<svg id="Layer_1" data-name="Layer 1" xmlns="http://www.w3.org/2000/svg" xmlns:xlink="http://www.w3.org/1999/xlink" viewBox="0 0 361.78 934.78"><defs><style>.cls-1{fill:none;stroke-width:10px;stroke:url(#linear-gradient);}.cls-1,.cls-2,.cls-3{stroke-miterlimit:10;}.cls-2{fill:#c5c6c8;stroke:#c5c6c8;}.cls-2,.cls-3{stroke-width:7px;}.cls-3{fill:#fff;stroke:#fff;}</style><linearGradient id="linear-gradient" x1="183.22" y1="378.75" x2="836.82" y2="378.75" gradientTransform="translate(39.18 1150.07) rotate(-90)" gradientUnits="userSpaceOnUse"><stop offset="0" stop-color="#b72025"/><stop offset="0.02" stop-color="#c5232a"/><stop offset="0.06" stop-color="#d8343d"/><stop offset="0.11" stop-color="#e33f48"/><stop offset="0.15" stop-color="#e6424b"/><stop offset="0.3" stop-color="#e98a7b"/><stop offset="0.47" stop-color="#7c79b9"/><stop offset="0.64" stop-color="#00b0b0"/><stop offset="0.79" stop-color="#7b77b6"/><stop offset="1" stop-color="#e73530"/></linearGradient></defs><path class="cls-1" d="M554.29,966.77c.45-33.43,10.66-102.26,7.49-131.66-7.24-67.37-102.64-83.4-109-132-7.08-54,104-84.82,102.43-138.66-1.25-43.35-91.27-42.35-177.8-111.6C321.94,408.52,290.75,353.26,273,315.37" transform="translate(-205.6 -32.07)"/><path class="cls-2" d="M209.47,50l51,241.81s13.34,23.67,13.86,23.57,3-27.87,3-27.87l-51-242.14S223.88,34,215.38,35.75,209.47,50,209.47,50Z" transform="translate(-205.6 -32.07)"/><path class="cls-3" d="M223,95.34h0a.44.44,0,0,1-.54-.36l-9.5-46.44a.45.45,0,0,1,.36-.54h0a.46.46,0,0,1,.55.36l9.49,46.44A.45.45,0,0,1,223,95.34Z" transform="translate(-205.6 -32.07)"/></svg>