<svg id="Layer_1" data-name="Layer 1" xmlns="http://www.w3.org/2000/svg" xmlns:xlink="http://www.w3.org/1999/xlink" viewBox="0 0 658.43 716.4"><defs><style>.cls-1,.cls-4{fill:none;}.cls-1,.cls-2,.cls-3,.cls-4{stroke-miterlimit:10;}.cls-1{stroke-width:10px;stroke:url(#linear-gradient);}.cls-2{fill:#c4c6c8;stroke:#c4c6c8;}.cls-2,.cls-3{stroke-width:7px;}.cls-3{fill:#fff;stroke:#fff;}.cls-4{stroke:#000;}</style><linearGradient id="linear-gradient" x1="582.25" y1="572.49" x2="2148.84" y2="572.49" gradientTransform="translate(-169.22 -219.97)" gradientUnits="userSpaceOnUse"><stop offset="0" stop-color="#b7151b"/><stop offset="0.02" stop-color="#c52229"/><stop offset="0.06" stop-color="#d7333c"/><stop offset="0.11" stop-color="#e23d47"/><stop offset="0.15" stop-color="#e6404b"/><stop offset="0.3" stop-color="#e98a7b"/><stop offset="0.47" stop-color="#7c78b8"/><stop offset="0.64" stop-color="#00b0b0"/><stop offset="0.79" stop-color="#7b76b6"/><stop offset="1" stop-color="#e7322f"/></linearGradient></defs><path class="cls-1" d="M413.1,680.3c80.3,1.1,245.6,25.6,316.2,18,161.8-17.4,200.3-246.5,316.9-261.8,129.8-17,203.7,249.7,333,246,104.1-3,101.7-219.2,268-427C1753.8,122.3,1886.5,47.4,1977.5,4.8"/><path class="cls-2" d="M178.8,69.8,373,630.6s38.9,52.4,40.1,52-1.2-67.3-1.2-67.3L217.5,53.7s-9.2-26.4-28.9-19.6S178.8,69.8,178.8,69.8Z"/><path class="cls-3" d="M224.6,173.8h0a1.08,1.08,0,0,1-1.4-.7L186.6,65.3a1.08,1.08,0,0,1,.7-1.4h0a1.08,1.08,0,0,1,1.4.7l36.6,107.8A1.08,1.08,0,0,1,224.6,173.8Z"/><rect class="cls-4" width="1975.3" height="716.4"/><line class="cls-4" x1="658.43" x2="658.43" y2="716.4"/></svg>