<?xml version="1.0" encoding="utf-8"?>
<!-- Generator: Adobe Illustrator 25.2.3, SVG Export Plug-In . SVG Version: 6.00 Build 0)  -->
<svg version="1.1" id="Layer_1" xmlns="http://www.w3.org/2000/svg" xmlns:xlink="http://www.w3.org/1999/xlink" x="0px" y="0px"
	 viewBox="0 0 1975.3 716.4" style="enable-background:new 0 0 1975.3 716.4;" xml:space="preserve">
<style type="text/css">
	.st0{fill:none;stroke:url(#SVGID_1_);stroke-width:10;stroke-miterlimit:10;}
	.st1{fill:#C4C6C8;stroke:#C4C6C8;stroke-width:7;stroke-miterlimit:10;}
	.st2{fill:#FFFFFF;stroke:#FFFFFF;stroke-width:7;stroke-miterlimit:10;}
</style>
<linearGradient id="SVGID_1_" gradientUnits="userSpaceOnUse" x1="582.2879" y1="-72.4867" x2="2148.8108" y2="-72.4867" gradientTransform="matrix(1 0 0 -1 -169.22 280.03)">
	<stop  offset="0" style="stop-color:#B7151B"/>
	<stop  offset="2.000000e-02" style="stop-color:#C52229"/>
	<stop  offset="6.000000e-02" style="stop-color:#D7333C"/>
	<stop  offset="0.11" style="stop-color:#E23D47"/>
	<stop  offset="0.15" style="stop-color:#E6404B"/>
	<stop  offset="0.3" style="stop-color:#E98A7B"/>
	<stop  offset="0.47" style="stop-color:#7C78B8"/>
	<stop  offset="0.64" style="stop-color:#00B0B0"/>
	<stop  offset="0.79" style="stop-color:#7B76B6"/>
	<stop  offset="1" style="stop-color:#E7322F"/>
</linearGradient>
<path class="st0" d="M413.1,680.3c80.3,1.1,245.6,25.6,316.2,18c161.8-17.4,200.3-246.5,316.9-261.8c129.8-17,203.7,249.7,333,246
	c104.1-3,101.7-219.2,268-427c106.6-133.2,239.3-208.1,330.3-250.7"/>
<path class="st1" d="M178.8,69.8L373,630.6c0,0,38.9,52.4,40.1,52c1.2-0.4-1.2-67.3-1.2-67.3L217.5,53.7c0,0-9.2-26.4-28.9-19.6
	S178.8,69.8,178.8,69.8z"/>
<path class="st2" d="M224.6,173.8L224.6,173.8c-0.6,0.2-1.2-0.1-1.4-0.7L186.6,65.3c-0.2-0.6,0.1-1.2,0.7-1.4l0,0
	c0.6-0.2,1.2,0.1,1.4,0.7l36.6,107.8C225.5,173,225.2,173.6,224.6,173.8z"/>
</svg>
