<svg xmlns="http://www.w3.org/2000/svg" width="1216.41" height="500.87" viewBox="0 0 1216.41 500.87">
    <defs>
        <style>
            .cls-1 {
                fill: #fff;
            }
        </style>
    </defs>
    <g id="Layer_2" data-name="Layer 2">
        <g id="Layer_2-2" data-name="Layer 2">
            <path class="cls-1"
                d="M11.34,280.65A528.32,528.32,0,0,1,221.49,92.47l-8.2-2.16c12.71,20.35,14.65,44.53,15.8,67.92,1.35,27.37,1.81,54.78,1.59,82.18-.42,54-3.45,108-7.42,161.94-2.28,30.93-4.88,61.84-7.47,92.75-.53,6.28,8.21,7.66,11.18,3C298.54,386.49,370.23,274.53,452.55,170.4q34.57-43.73,71.73-85.3l-10-2.65c26.18,105.74-9.56,213-28.5,316.76-5.44,29.81-9.72,59.87-11.31,90.14-.32,6.11,8.25,7.95,11.18,3L600,300.76c37.22-62.36,73.62-125.32,112.56-186.63,18.68-29.42,37.62-59.55,59.58-86.67,8-9.93,25-24.39,34.12-7.34C812.65,32,812,48.5,812.38,61.61c1.64,63.63-16,125.6-35.56,185.51-22.26,68.05-47.78,135.55-56.7,207-.82,6.62,8.13,7.13,11.19,3Q828.32,326.71,918,191q25.59-38.76,50.58-77.91l-11-1.44c27.24,92.78,15.6,190.62-3.72,283.71-5.54,26.67-11.74,53.21-18,79.72-1.09,4.61,4.32,10.07,8.82,6.77A2238.77,2238.77,0,0,0,1158,304.13q28.86-27.28,56.72-55.58c5.43-5.51-3.05-14-8.48-8.49a2225.52,2225.52,0,0,1-204.72,183.61q-31,24.49-62.85,47.85l8.81,6.78c22.35-94.38,45-191.75,36.6-289.41a410.44,410.44,0,0,0-14.86-80.4,6.07,6.07,0,0,0-11-1.43q-87.47,137-182.42,269.07-27.12,37.71-54.85,75l11.18,3c16.48-132,93.33-251.54,92.36-386.44C824.33,46.45,825.69-1,793.67,0,778.49.51,767.39,13.87,759,25c-11.44,15.24-22.39,30.86-33,46.66C684.45,133.32,647.4,198,609.32,261.74L475.27,486.33l11.18,3c5.72-108.82,47.45-212.71,49-322a346.3,346.3,0,0,0-9.63-88.13c-1.05-4.24-7-6-10-2.64-88.83,99-164.87,208.51-237.46,319.73Q247.21,444,216.61,492.07l11.18,3c9.3-110.8,18.63-222,13.48-333.3-1.24-26.61-3.13-54.36-17.62-77.54a6.16,6.16,0,0,0-8.21-2.16A541.56,541.56,0,0,0,38.57,222.92,548.38,548.38,0,0,0,1,274.59c-4.18,6.52,6.2,12.55,10.37,6.06Z" />
        </g>
    </g>
</svg>