<svg id="Layer_1" data-name="Layer 1" xmlns="http://www.w3.org/2000/svg" xmlns:xlink="http://www.w3.org/1999/xlink" viewBox="0 0 800 500"><defs><style>.cls-1{fill:#e2e3e4;}.cls-2{fill:#fff;}.cls-3{fill:#ed1c24;}.cls-4{fill:#fbb040;}.cls-5,.cls-6{fill:#39b54a;}.cls-10,.cls-6{font-size:20px;}.cls-10,.cls-11,.cls-34,.cls-6{font-family:MyriadPro-Regular, Myriad Pro;}.cls-7{letter-spacing:-0.01em;}.cls-8{letter-spacing:-0.01em;}.cls-9{letter-spacing:0em;}.cls-10,.cls-11,.cls-34,.cls-51{fill:#231f20;}.cls-11{font-size:14px;}.cls-12{letter-spacing:-0.01em;}.cls-13{letter-spacing:0em;}.cls-14{letter-spacing:0em;}.cls-15{letter-spacing:-0.01em;}.cls-16{letter-spacing:0.01em;}.cls-17{letter-spacing:-0.01em;}.cls-18{letter-spacing:0em;}.cls-19{letter-spacing:-0.01em;}.cls-20{letter-spacing:-0.01em;}.cls-21{letter-spacing:0em;}.cls-22{letter-spacing:0em;}.cls-23{letter-spacing:0em;}.cls-24{letter-spacing:-0.01em;}.cls-25{letter-spacing:0em;}.cls-26{letter-spacing:0em;}.cls-27{letter-spacing:-0.01em;}.cls-28{letter-spacing:0em;}.cls-29{letter-spacing:0.02em;}.cls-30{letter-spacing:0em;}.cls-31{letter-spacing:0em;}.cls-32{letter-spacing:0em;}.cls-33{letter-spacing:0em;}.cls-34{font-size:16px;}.cls-35{letter-spacing:-0.01em;}.cls-36{letter-spacing:0em;}.cls-37{letter-spacing:0em;}.cls-38{letter-spacing:-0.01em;}.cls-39{letter-spacing:0.01em;}.cls-40{letter-spacing:-0.01em;}.cls-41{letter-spacing:-0.01em;}.cls-42{letter-spacing:0em;}.cls-43{letter-spacing:-0.01em;}.cls-44{letter-spacing:0em;}.cls-45{letter-spacing:0em;}.cls-46{letter-spacing:0em;}.cls-47{letter-spacing:0em;}.cls-48{letter-spacing:-0.02em;}.cls-49{letter-spacing:-0.01em;}.cls-50{letter-spacing:0em;}.cls-52{fill:url(#Orange_Yellow);}.cls-53{fill:url(#Orange_Yellow-2);}.cls-54{fill:url(#Orange_Yellow-3);}.cls-55{fill:url(#Orange_Yellow-4);}.cls-56{fill:url(#Orange_Yellow-5);}.cls-57{fill:url(#Orange_Yellow-6);}.cls-58{fill:url(#Orange_Yellow-7);}.cls-59{fill:url(#Orange_Yellow-8);}.cls-60{fill:url(#Orange_Yellow-9);}.cls-61{fill:url(#Orange_Yellow-10);}.cls-62{fill:url(#Orange_Yellow-11);}.cls-63{fill:url(#Orange_Yellow-12);}.cls-64{fill:#ec008c;}.cls-65{fill:#ef4136;}.cls-66{fill:#f15a29;}.cls-67{fill:#2e3192;}.cls-68{fill:url(#Orange_Yellow-13);}.cls-69{fill:url(#Orange_Yellow-14);}.cls-70{fill:url(#Orange_Yellow-15);}.cls-71{fill:url(#Orange_Yellow-16);}.cls-72{fill:url(#Orange_Yellow-17);}.cls-73{fill:url(#Orange_Yellow-18);}.cls-74{fill:url(#Orange_Yellow-19);}.cls-75{fill:url(#Orange_Yellow-20);}</style><linearGradient id="Orange_Yellow" x1="76.44" y1="202.29" x2="87.13" y2="202.29" gradientUnits="userSpaceOnUse"><stop offset="0" stop-color="#fff33b"/><stop offset="0.04" stop-color="#fee72e"/><stop offset="0.12" stop-color="#fed51b"/><stop offset="0.2" stop-color="#fdca10"/><stop offset="0.28" stop-color="#fdc70c"/><stop offset="0.67" stop-color="#f3903f"/><stop offset="0.89" stop-color="#ed683c"/><stop offset="1" stop-color="#e93e3a"/></linearGradient><linearGradient id="Orange_Yellow-2" x1="86.3" y1="205.51" x2="99.75" y2="205.51" xlink:href="#Orange_Yellow"/><linearGradient id="Orange_Yellow-3" x1="103.42" y1="202.1" x2="129.35" y2="202.1" xlink:href="#Orange_Yellow"/><linearGradient id="Orange_Yellow-4" x1="133.12" y1="204" x2="141.16" y2="204" xlink:href="#Orange_Yellow"/><linearGradient id="Orange_Yellow-5" x1="144.26" y1="204.08" x2="156.02" y2="204.08" xlink:href="#Orange_Yellow"/><linearGradient id="Orange_Yellow-6" x1="159.01" y1="203.81" x2="169.73" y2="203.81" xlink:href="#Orange_Yellow"/><linearGradient id="Orange_Yellow-7" x1="177.28" y1="201.94" x2="193.32" y2="201.94" xlink:href="#Orange_Yellow"/><linearGradient id="Orange_Yellow-8" x1="192.21" y1="194.37" x2="195.12" y2="194.37" xlink:href="#Orange_Yellow"/><linearGradient id="Orange_Yellow-9" x1="202.01" y1="203.11" x2="215.38" y2="203.11" xlink:href="#Orange_Yellow"/><linearGradient id="Orange_Yellow-10" x1="223.41" y1="209.7" x2="237.38" y2="209.7" xlink:href="#Orange_Yellow"/><linearGradient id="Orange_Yellow-11" x1="257.98" y1="190.46" x2="267.15" y2="190.46" xlink:href="#Orange_Yellow"/><linearGradient id="Orange_Yellow-12" x1="254.07" y1="208.01" x2="256.99" y2="208.01" xlink:href="#Orange_Yellow"/><linearGradient id="Orange_Yellow-13" x1="433.43" y1="269.07" x2="458.19" y2="269.07" xlink:href="#Orange_Yellow"/><linearGradient id="Orange_Yellow-14" x1="464.76" y1="274.97" x2="478.62" y2="274.97" xlink:href="#Orange_Yellow"/><linearGradient id="Orange_Yellow-15" x1="471.66" y1="271.51" x2="471.77" y2="271.51" xlink:href="#Orange_Yellow"/><linearGradient id="Orange_Yellow-16" x1="470.53" y1="270.87" x2="470.6" y2="270.87" xlink:href="#Orange_Yellow"/><linearGradient id="Orange_Yellow-17" x1="484.25" y1="272.8" x2="499.18" y2="272.8" xlink:href="#Orange_Yellow"/><linearGradient id="Orange_Yellow-18" x1="500.22" y1="274.42" x2="511.42" y2="274.42" xlink:href="#Orange_Yellow"/><linearGradient id="Orange_Yellow-19" x1="520.46" y1="278.37" x2="530.49" y2="278.37" xlink:href="#Orange_Yellow"/><linearGradient id="Orange_Yellow-20" x1="404.99" y1="273.18" x2="540.55" y2="273.18" xlink:href="#Orange_Yellow"/></defs><rect class="cls-1" width="800" height="500" rx="10"/><path class="cls-2" d="M0,31.39H800a0,0,0,0,1,0,0V490a10,10,0,0,1-10,10H10A10,10,0,0,1,0,490V31.39a0,0,0,0,1,0,0Z"/><circle class="cls-3" cx="19.6" cy="17.51" r="5.22"/><circle class="cls-4" cx="40.73" cy="17.35" r="5.22"/><circle class="cls-5" cx="61.79" cy="17.35" r="5.22"/><text class="cls-6" transform="translate(15.33 67.71)"><tspan class="cls-7">L</tspan><tspan x="9.16" y="0">o</tspan><tspan class="cls-8" x="20.14" y="0">r</tspan><tspan class="cls-9" x="26.48" y="0">em ipsum dolor </tspan></text><text class="cls-10" transform="translate(15.33 67.71)"><tspan class="cls-7">L</tspan><tspan x="9.16" y="0">o</tspan><tspan class="cls-8" x="20.14" y="0">r</tspan><tspan class="cls-9" x="26.48" y="0">em ipsum dolor </tspan></text><text class="cls-11" transform="translate(27.98 112.99)"><tspan class="cls-12">L</tspan><tspan x="6.41" y="0">o</tspan><tspan class="cls-8" x="14.1" y="0">r</tspan><tspan x="18.54" y="0">em ipsum dolor sit ame</tspan><tspan class="cls-13" x="155.31" y="0">t</tspan><tspan class="cls-14" x="159.9" y="0">, </tspan><tspan class="cls-15" x="165.77" y="0">c</tspan><tspan x="171.96" y="0">onse</tspan><tspan class="cls-16" x="199.97" y="0">c</tspan><tspan class="cls-15" x="206.43" y="0">t</tspan><tspan x="210.98" y="0">etuer adipiscing eli</tspan><tspan class="cls-13" x="321.31" y="0">t</tspan><tspan x="325.9" y="0">, sed diam nonum</tspan><tspan class="cls-17" x="430.36" y="0">m</tspan><tspan x="441.86" y="0">y nibh euismod tincidu</tspan><tspan class="cls-18" x="575.78" y="0">n</tspan><tspan x="583.49" y="0">t ut lao</tspan><tspan class="cls-19" x="624.15" y="0">r</tspan><tspan x="628.58" y="0">eet dolo</tspan><tspan class="cls-20" x="676.78" y="0">r</tspan><tspan x="681.22" y="0">e ma</tspan><tspan class="cls-15" x="709.63" y="0">g</tspan><tspan x="717.37" y="0">na </tspan><tspan x="0" y="16.8">aliquam e</tspan><tspan class="cls-21" x="57.33" y="16.8">r</tspan><tspan class="cls-22" x="61.84" y="16.8">a</tspan><tspan x="68.53" y="16.8">t </tspan><tspan class="cls-20" x="76.13" y="16.8">v</tspan><tspan x="82.72" y="16.8">olutp</tspan><tspan class="cls-22" x="114.03" y="16.8">a</tspan><tspan class="cls-13" x="120.72" y="16.8">t</tspan><tspan x="125.31" y="16.8">. </tspan><tspan class="cls-23" x="131.18" y="16.8">U</tspan><tspan x="140.29" y="16.8">t wisi enim ad minim </tspan><tspan class="cls-8" x="264.22" y="16.8">v</tspan><tspan x="270.81" y="16.8">eniam, quis nostrud </tspan><tspan class="cls-13" x="389.33" y="16.8">e</tspan><tspan class="cls-24" x="396.3" y="16.8">x</tspan><tspan x="402.58" y="16.8">e</tspan><tspan class="cls-20" x="409.59" y="16.8">r</tspan><tspan x="414.03" y="16.8">ci t</tspan><tspan class="cls-25" x="431.18" y="16.8">a</tspan><tspan class="cls-26" x="437.87" y="16.8">tion ullam</tspan><tspan class="cls-27" x="496.95" y="16.8">c</tspan><tspan x="503.14" y="16.8">o</tspan><tspan class="cls-28" x="510.82" y="16.8">r</tspan><tspan x="515.46" y="16.8">per suscipit lobo</tspan><tspan class="cls-29" x="611.82" y="16.8">r</tspan><tspan x="616.73" y="16.8">tis nisl ut aliquip </tspan><tspan class="cls-13" x="714.46" y="16.8">e</tspan><tspan x="721.43" y="16.8">x ea </tspan><tspan class="cls-15" x="0" y="33.6">c</tspan><tspan x="6.19" y="33.6">ommodo </tspan><tspan class="cls-15" x="63.46" y="33.6">c</tspan><tspan x="69.65" y="33.6">onsequ</tspan><tspan class="cls-22" x="113.26" y="33.6">a</tspan><tspan class="cls-30" x="119.95" y="33.6">t</tspan><tspan x="124.54" y="33.6">. </tspan><tspan class="cls-31" x="130.41" y="33.6">D</tspan><tspan x="139.77" y="33.6">uis au</tspan><tspan class="cls-15" x="173.74" y="33.6">t</tspan><tspan x="178.29" y="33.6">em </tspan><tspan class="cls-8" x="199.94" y="33.6">v</tspan><tspan x="206.54" y="33.6">el eum i</tspan><tspan class="cls-23" x="252.47" y="33.6">r</tspan><tspan x="257.1" y="33.6">iu</tspan><tspan class="cls-8" x="268.09" y="33.6">r</tspan><tspan x="272.53" y="33.6">e dolor in hend</tspan><tspan class="cls-8" x="361.1" y="33.6">r</tspan><tspan x="365.53" y="33.6">e</tspan><tspan class="cls-32" x="372.55" y="33.6">r</tspan><tspan x="377.18" y="33.6">it in vulput</tspan><tspan class="cls-18" x="440.14" y="33.6">a</tspan><tspan class="cls-15" x="446.83" y="33.6">t</tspan><tspan x="451.38" y="33.6">e </tspan><tspan class="cls-19" x="461.36" y="33.6">v</tspan><tspan x="467.95" y="33.6">elit esse molestie </tspan><tspan class="cls-27" x="570.35" y="33.6">c</tspan><tspan x="576.53" y="33.6">onsequ</tspan><tspan class="cls-18" x="620.14" y="33.6">a</tspan><tspan class="cls-13" x="626.83" y="33.6">t</tspan><tspan x="631.43" y="33.6">, </tspan><tspan class="cls-20" x="637.29" y="33.6">v</tspan><tspan x="643.89" y="33.6">el illum dolo</tspan><tspan class="cls-20" x="715.98" y="33.6">r</tspan><tspan x="720.42" y="33.6">e eu </tspan><tspan class="cls-17" x="0" y="50.4">f</tspan><tspan x="3.91" y="50.4">eu</tspan><tspan class="cls-15" x="18.63" y="50.4">g</tspan><tspan x="26.38" y="50.4">i</tspan><tspan class="cls-22" x="29.65" y="50.4">a</tspan><tspan x="36.34" y="50.4">t nulla facilisis </tspan><tspan class="cls-22" x="120.05" y="50.4">a</tspan><tspan x="126.74" y="50.4">t </tspan><tspan class="cls-20" x="134.34" y="50.4">v</tspan><tspan x="140.93" y="50.4">e</tspan><tspan class="cls-8" x="147.95" y="50.4">r</tspan><tspan x="152.39" y="50.4">o e</tspan><tspan class="cls-20" x="170.05" y="50.4">r</tspan><tspan x="174.49" y="50.4">os et a</tspan><tspan class="cls-15" x="212.05" y="50.4">c</tspan><tspan x="218.24" y="50.4">cumsan et ius</tspan><tspan class="cls-15" x="298.08" y="50.4">t</tspan><tspan x="302.63" y="50.4">o odio di</tspan><tspan class="cls-15" x="353.97" y="50.4">g</tspan><tspan x="361.71" y="50.4">nissim qui blandit p</tspan><tspan class="cls-33" x="476.13" y="50.4">r</tspan><tspan x="480.64" y="50.4">aese</tspan><tspan class="cls-25" x="506.96" y="50.4">n</tspan><tspan x="514.67" y="50.4">t lupt</tspan><tspan class="cls-18" x="545.89" y="50.4">a</tspan><tspan x="552.58" y="50.4">tum zz</tspan><tspan class="cls-28" x="591.56" y="50.4">r</tspan><tspan x="596.19" y="50.4">il delenit augue duis dolo</tspan><tspan class="cls-20" x="743.56" y="50.4">r</tspan><tspan x="748" y="50.4">e </tspan><tspan class="cls-15" x="0" y="67.2">t</tspan><tspan x="4.55" y="67.2">e </tspan><tspan class="cls-17" x="14.53" y="67.2">f</tspan><tspan x="18.44" y="67.2">eugait nulla facilisi.</tspan></text><text class="cls-34" transform="translate(39.65 226.56)"><tspan class="cls-35">L</tspan><tspan class="cls-36" x="7.33" y="0">o</tspan><tspan class="cls-8" x="16.11" y="0">r</tspan><tspan x="21.18" y="0">em ipsum dolor sit ame</tspan><tspan class="cls-37" x="177.5" y="0">t</tspan><tspan x="182.75" y="0">, </tspan><tspan class="cls-38" x="189.45" y="0">c</tspan><tspan x="196.52" y="0">onse</tspan><tspan class="cls-39" x="228.54" y="0">c</tspan><tspan class="cls-40" x="235.92" y="0">t</tspan><tspan x="241.11" y="0">etuer adipiscing eli</tspan><tspan class="cls-37" x="367.21" y="0">t</tspan><tspan x="372.46" y="0">, sed diam nonum</tspan><tspan class="cls-41" x="491.85" y="0">m</tspan><tspan x="504.98" y="0">y nibh euismod tincidu</tspan><tspan class="cls-42" x="658.04" y="0">n</tspan><tspan x="666.85" y="0">t ut </tspan><tspan x="0" y="19.2">lao</tspan><tspan class="cls-43" x="20.27" y="19.2">r</tspan><tspan class="cls-44" x="25.34" y="19.2">eet dolo</tspan><tspan class="cls-43" x="80.43" y="19.2">r</tspan><tspan x="85.5" y="19.2">e ma</tspan><tspan class="cls-38" x="117.97" y="19.2">g</tspan><tspan x="126.81" y="19.2">na aliquam e</tspan><tspan class="cls-45" x="212.32" y="19.2">r</tspan><tspan class="cls-46" x="217.47" y="19.2">a</tspan><tspan x="225.12" y="19.2">t </tspan><tspan class="cls-43" x="233.8" y="19.2">v</tspan><tspan class="cls-44" x="241.34" y="19.2">olutp</tspan><tspan class="cls-42" x="277.11" y="19.2">a</tspan><tspan class="cls-37" x="284.76" y="19.2">t</tspan><tspan x="290.01" y="19.2">. </tspan><tspan class="cls-47" x="296.71" y="19.2">U</tspan><tspan x="307.13" y="19.2">t wisi enim ad minim </tspan><tspan class="cls-8" x="448.76" y="19.2">v</tspan><tspan x="456.29" y="19.2">eniam, quis nostrud </tspan><tspan class="cls-37" x="591.75" y="19.2">e</tspan><tspan class="cls-48" x="599.72" y="19.2">x</tspan><tspan x="606.88" y="19.2">e</tspan><tspan class="cls-49" x="614.9" y="19.2">r</tspan><tspan x="619.97" y="19.2">ci t</tspan><tspan class="cls-50" x="639.57" y="19.2">a</tspan><tspan x="647.22" y="19.2">tion ullam</tspan><tspan x="714.74" y="19.2">-</tspan></text><text class="cls-11" transform="translate(27.08 294.82)"><tspan class="cls-12">L</tspan><tspan x="6.41" y="0">o</tspan><tspan class="cls-8" x="14.1" y="0">r</tspan><tspan x="18.54" y="0">em ipsum dolor sit ame</tspan><tspan class="cls-13" x="155.31" y="0">t</tspan><tspan class="cls-14" x="159.9" y="0">, </tspan><tspan class="cls-15" x="165.77" y="0">c</tspan><tspan x="171.96" y="0">onse</tspan><tspan class="cls-16" x="199.97" y="0">c</tspan><tspan class="cls-15" x="206.43" y="0">t</tspan><tspan x="210.98" y="0">etuer adipiscing eli</tspan><tspan class="cls-13" x="321.31" y="0">t</tspan><tspan x="325.9" y="0">, sed diam nonum</tspan><tspan class="cls-17" x="430.36" y="0">m</tspan><tspan x="441.86" y="0">y nibh euismod tincidu</tspan><tspan class="cls-18" x="575.78" y="0">n</tspan><tspan x="583.49" y="0">t ut lao</tspan><tspan class="cls-19" x="624.15" y="0">r</tspan><tspan x="628.58" y="0">eet dolo</tspan><tspan class="cls-20" x="676.78" y="0">r</tspan><tspan x="681.22" y="0">e ma</tspan><tspan class="cls-15" x="709.63" y="0">g</tspan><tspan x="717.37" y="0">na </tspan><tspan x="0" y="16.8">aliquam e</tspan><tspan class="cls-21" x="57.33" y="16.8">r</tspan><tspan class="cls-22" x="61.84" y="16.8">a</tspan><tspan x="68.53" y="16.8">t </tspan><tspan class="cls-20" x="76.13" y="16.8">v</tspan><tspan x="82.72" y="16.8">olutp</tspan><tspan class="cls-22" x="114.03" y="16.8">a</tspan><tspan class="cls-13" x="120.72" y="16.8">t</tspan><tspan x="125.31" y="16.8">. </tspan><tspan class="cls-23" x="131.18" y="16.8">U</tspan><tspan x="140.29" y="16.8">t wisi enim ad minim </tspan><tspan class="cls-8" x="264.22" y="16.8">v</tspan><tspan x="270.81" y="16.8">eniam, quis nostrud </tspan><tspan class="cls-13" x="389.33" y="16.8">e</tspan><tspan class="cls-24" x="396.3" y="16.8">x</tspan><tspan x="402.58" y="16.8">e</tspan><tspan class="cls-20" x="409.59" y="16.8">r</tspan><tspan x="414.03" y="16.8">ci t</tspan><tspan class="cls-25" x="431.18" y="16.8">a</tspan><tspan class="cls-26" x="437.87" y="16.8">tion ullam</tspan><tspan class="cls-27" x="496.95" y="16.8">c</tspan><tspan x="503.14" y="16.8">o</tspan><tspan class="cls-28" x="510.82" y="16.8">r</tspan><tspan x="515.46" y="16.8">per suscipit lobo</tspan><tspan class="cls-29" x="611.82" y="16.8">r</tspan><tspan x="616.73" y="16.8">tis nisl ut aliquip </tspan><tspan class="cls-13" x="714.46" y="16.8">e</tspan><tspan x="721.43" y="16.8">x ea </tspan><tspan class="cls-15" x="0" y="33.6">c</tspan><tspan x="6.19" y="33.6">ommodo </tspan><tspan class="cls-15" x="63.46" y="33.6">c</tspan><tspan x="69.65" y="33.6">onsequ</tspan><tspan class="cls-22" x="113.26" y="33.6">a</tspan><tspan class="cls-30" x="119.95" y="33.6">t</tspan><tspan x="124.54" y="33.6">. </tspan><tspan class="cls-31" x="130.41" y="33.6">D</tspan><tspan x="139.77" y="33.6">uis au</tspan><tspan class="cls-15" x="173.74" y="33.6">t</tspan><tspan x="178.29" y="33.6">em </tspan><tspan class="cls-8" x="199.94" y="33.6">v</tspan><tspan x="206.54" y="33.6">el eum i</tspan><tspan class="cls-23" x="252.47" y="33.6">r</tspan><tspan x="257.1" y="33.6">iu</tspan><tspan class="cls-8" x="268.09" y="33.6">r</tspan><tspan x="272.53" y="33.6">e dolor in hend</tspan><tspan class="cls-8" x="361.1" y="33.6">r</tspan><tspan x="365.53" y="33.6">e</tspan><tspan class="cls-32" x="372.55" y="33.6">r</tspan><tspan x="377.18" y="33.6">it in vulput</tspan><tspan class="cls-18" x="440.14" y="33.6">a</tspan><tspan class="cls-15" x="446.83" y="33.6">t</tspan><tspan x="451.38" y="33.6">e </tspan><tspan class="cls-19" x="461.36" y="33.6">v</tspan><tspan x="467.95" y="33.6">elit esse molestie </tspan><tspan class="cls-27" x="570.35" y="33.6">c</tspan><tspan x="576.53" y="33.6">onsequ</tspan><tspan class="cls-18" x="620.14" y="33.6">a</tspan><tspan class="cls-13" x="626.83" y="33.6">t</tspan><tspan x="631.43" y="33.6">, </tspan><tspan class="cls-20" x="637.29" y="33.6">v</tspan><tspan x="643.89" y="33.6">el illum dolo</tspan><tspan class="cls-20" x="715.98" y="33.6">r</tspan><tspan x="720.42" y="33.6">e eu </tspan><tspan class="cls-17" x="0" y="50.4">f</tspan><tspan x="3.91" y="50.4">eu</tspan><tspan class="cls-15" x="18.63" y="50.4">g</tspan><tspan x="26.38" y="50.4">i</tspan><tspan class="cls-22" x="29.65" y="50.4">a</tspan><tspan x="36.34" y="50.4">t nulla facilisis </tspan><tspan class="cls-22" x="120.05" y="50.4">a</tspan><tspan x="126.74" y="50.4">t </tspan><tspan class="cls-20" x="134.34" y="50.4">v</tspan><tspan x="140.93" y="50.4">e</tspan><tspan class="cls-8" x="147.95" y="50.4">r</tspan><tspan x="152.39" y="50.4">o e</tspan><tspan class="cls-20" x="170.05" y="50.4">r</tspan><tspan x="174.49" y="50.4">os et a</tspan><tspan class="cls-15" x="212.05" y="50.4">c</tspan><tspan x="218.24" y="50.4">cumsan et ius</tspan><tspan class="cls-15" x="298.08" y="50.4">t</tspan><tspan x="302.63" y="50.4">o odio di</tspan><tspan class="cls-15" x="353.97" y="50.4">g</tspan><tspan x="361.71" y="50.4">nissim qui blandit p</tspan><tspan class="cls-33" x="476.13" y="50.4">r</tspan><tspan x="480.64" y="50.4">aese</tspan><tspan class="cls-25" x="506.96" y="50.4">n</tspan><tspan x="514.67" y="50.4">t lupt</tspan><tspan class="cls-18" x="545.89" y="50.4">a</tspan><tspan x="552.58" y="50.4">tum zz</tspan><tspan class="cls-28" x="591.56" y="50.4">r</tspan><tspan x="596.19" y="50.4">il delenit augue duis </tspan></text><text class="cls-11" transform="translate(27.08 409.48)"><tspan class="cls-12">L</tspan><tspan x="6.41" y="0">o</tspan><tspan class="cls-8" x="14.1" y="0">r</tspan><tspan x="18.54" y="0">em ipsum dolor sit ame</tspan><tspan class="cls-13" x="155.31" y="0">t</tspan><tspan class="cls-14" x="159.9" y="0">, </tspan><tspan class="cls-15" x="165.77" y="0">c</tspan><tspan x="171.96" y="0">onse</tspan><tspan class="cls-16" x="199.97" y="0">c</tspan><tspan class="cls-15" x="206.43" y="0">t</tspan><tspan x="210.98" y="0">etuer adipiscing eli</tspan><tspan class="cls-13" x="321.31" y="0">t</tspan><tspan x="325.9" y="0">, sed diam nonum</tspan><tspan class="cls-17" x="430.36" y="0">m</tspan><tspan x="441.86" y="0">y nibh euismod tincidu</tspan><tspan class="cls-18" x="575.78" y="0">n</tspan><tspan x="583.49" y="0">t ut lao</tspan><tspan class="cls-19" x="624.15" y="0">r</tspan><tspan x="628.58" y="0">eet dolo</tspan><tspan class="cls-20" x="676.78" y="0">r</tspan><tspan x="681.22" y="0">e ma</tspan><tspan class="cls-15" x="709.63" y="0">g</tspan><tspan x="717.37" y="0">na </tspan><tspan x="0" y="16.8">aliquam e</tspan><tspan class="cls-21" x="57.33" y="16.8">r</tspan><tspan class="cls-22" x="61.84" y="16.8">a</tspan><tspan x="68.53" y="16.8">t </tspan><tspan class="cls-20" x="76.13" y="16.8">v</tspan><tspan x="82.72" y="16.8">olutp</tspan><tspan class="cls-22" x="114.03" y="16.8">a</tspan><tspan class="cls-13" x="120.72" y="16.8">t</tspan><tspan x="125.31" y="16.8">. </tspan><tspan class="cls-23" x="131.18" y="16.8">U</tspan><tspan x="140.29" y="16.8">t wisi enim ad minim </tspan><tspan class="cls-8" x="264.22" y="16.8">v</tspan><tspan x="270.81" y="16.8">eniam, quis nostrud </tspan><tspan class="cls-13" x="389.33" y="16.8">e</tspan><tspan class="cls-24" x="396.3" y="16.8">x</tspan><tspan x="402.58" y="16.8">e</tspan><tspan class="cls-20" x="409.59" y="16.8">r</tspan><tspan x="414.03" y="16.8">ci t</tspan><tspan class="cls-25" x="431.18" y="16.8">a</tspan><tspan class="cls-26" x="437.87" y="16.8">tion ullam</tspan><tspan class="cls-27" x="496.95" y="16.8">c</tspan><tspan x="503.14" y="16.8">o</tspan><tspan class="cls-28" x="510.82" y="16.8">r</tspan><tspan x="515.46" y="16.8">per suscipit lobo</tspan><tspan class="cls-29" x="611.82" y="16.8">r</tspan><tspan x="616.73" y="16.8">tis nisl ut aliquip </tspan><tspan class="cls-13" x="714.46" y="16.8">e</tspan><tspan x="721.43" y="16.8">x ea </tspan><tspan class="cls-15" x="0" y="33.6">c</tspan><tspan x="6.19" y="33.6">ommodo </tspan><tspan class="cls-15" x="63.46" y="33.6">c</tspan><tspan x="69.65" y="33.6">onsequ</tspan><tspan class="cls-22" x="113.26" y="33.6">a</tspan><tspan class="cls-30" x="119.95" y="33.6">t</tspan><tspan x="124.54" y="33.6">. </tspan><tspan class="cls-31" x="130.41" y="33.6">D</tspan><tspan x="139.77" y="33.6">uis au</tspan><tspan class="cls-15" x="173.74" y="33.6">t</tspan><tspan x="178.29" y="33.6">em </tspan><tspan class="cls-8" x="199.94" y="33.6">v</tspan><tspan x="206.54" y="33.6">el eum i</tspan><tspan class="cls-23" x="252.47" y="33.6">r</tspan><tspan x="257.1" y="33.6">iu</tspan><tspan class="cls-8" x="268.09" y="33.6">r</tspan><tspan x="272.53" y="33.6">e dolor in hend</tspan><tspan class="cls-8" x="361.1" y="33.6">r</tspan><tspan x="365.53" y="33.6">e</tspan><tspan class="cls-32" x="372.55" y="33.6">r</tspan><tspan x="377.18" y="33.6">it in vulput</tspan><tspan class="cls-18" x="440.14" y="33.6">a</tspan><tspan class="cls-15" x="446.83" y="33.6">t</tspan><tspan x="451.38" y="33.6">e </tspan><tspan class="cls-19" x="461.36" y="33.6">v</tspan><tspan x="467.95" y="33.6">elit esse molestie </tspan><tspan class="cls-27" x="570.35" y="33.6">c</tspan><tspan x="576.53" y="33.6">onsequ</tspan><tspan class="cls-18" x="620.14" y="33.6">a</tspan><tspan class="cls-13" x="626.83" y="33.6">t</tspan><tspan x="631.43" y="33.6">, </tspan><tspan class="cls-20" x="637.29" y="33.6">v</tspan><tspan x="643.89" y="33.6">el illum dolo</tspan><tspan class="cls-20" x="715.98" y="33.6">r</tspan><tspan x="720.42" y="33.6">e eu </tspan><tspan class="cls-17" x="0" y="50.4">f</tspan><tspan x="3.91" y="50.4">eu</tspan><tspan class="cls-15" x="18.63" y="50.4">g</tspan><tspan x="26.38" y="50.4">i</tspan><tspan class="cls-22" x="29.65" y="50.4">a</tspan><tspan x="36.34" y="50.4">t nulla facilisis </tspan><tspan class="cls-22" x="120.05" y="50.4">a</tspan><tspan x="126.74" y="50.4">t </tspan><tspan class="cls-20" x="134.34" y="50.4">v</tspan><tspan x="140.93" y="50.4">e</tspan><tspan class="cls-8" x="147.95" y="50.4">r</tspan><tspan x="152.39" y="50.4">o e</tspan><tspan class="cls-20" x="170.05" y="50.4">r</tspan><tspan x="174.49" y="50.4">os et a</tspan><tspan class="cls-15" x="212.05" y="50.4">c</tspan><tspan x="218.24" y="50.4">cumsan et ius</tspan><tspan class="cls-15" x="298.08" y="50.4">t</tspan><tspan x="302.63" y="50.4">o odio di</tspan><tspan class="cls-15" x="353.97" y="50.4">g</tspan><tspan x="361.71" y="50.4">nissim qui blandit p</tspan><tspan class="cls-33" x="476.13" y="50.4">r</tspan><tspan x="480.64" y="50.4">aese</tspan><tspan class="cls-25" x="506.96" y="50.4">n</tspan><tspan x="514.67" y="50.4">t lupt</tspan><tspan class="cls-18" x="545.89" y="50.4">a</tspan><tspan x="552.58" y="50.4">tum zz</tspan><tspan class="cls-28" x="591.56" y="50.4">r</tspan><tspan x="596.19" y="50.4">il delenit augue duis </tspan></text><path class="cls-51" d="M201.48,286.06a1.51,1.51,0,0,0,0,3A1.51,1.51,0,0,0,201.48,286.06Z"/><path class="cls-52" d="M85.28,191.89a2.56,2.56,0,0,0-3.07,1.75c-1.73,5.21-3,10.68-5.46,15.39a2.5,2.5,0,0,0,4.32,2.52c2.74-5.24,4.11-11,6-16.58A2.53,2.53,0,0,0,85.28,191.89Z"/><path class="cls-53" d="M99.64,206.25a11.11,11.11,0,0,0-1.37-4.85c-1-1.61-2.61-3.2-4.67-3.18a5.37,5.37,0,0,0-4,2.25c-1.1,1.38-2,2.91-2.95,4.37a2.51,2.51,0,0,0,.89,3.42,2.56,2.56,0,0,0,3.42-.89c.68-1,1.29-2.06,2-3.06.15-.22.3-.42.46-.64-.54.75,0,0,.2-.19l.15.15L94,204a3.18,3.18,0,0,1,.16.32,8.85,8.85,0,0,1,.46,1.84,22.69,22.69,0,0,1,.06,4.12,2.51,2.51,0,0,0,2.5,2.5,2.56,2.56,0,0,0,2.5-2.5A23.7,23.7,0,0,0,99.64,206.25Z"/><path class="cls-54" d="M127.53,204.84c-1-.32-2.14-.53-3.18-.87a7.27,7.27,0,0,0,.57-.54,9.44,9.44,0,0,0,2-3.46,2.41,2.41,0,0,0-.45-2.18,2.35,2.35,0,0,0-2-1,8.5,8.5,0,0,0-2.58.69,7.87,7.87,0,0,0-1.85,1.21,5.85,5.85,0,0,0-.94,1,2.5,2.5,0,0,0-2.17-1.41l.84-2.17a2.5,2.5,0,0,0-1.74-3.07,2.56,2.56,0,0,0-3.08,1.74l-1.36,3.48a28.93,28.93,0,0,0-6.41.87A2.5,2.5,0,1,0,106.6,204a18.28,18.28,0,0,1,2.53-.51l.43-.05.25,0a48.11,48.11,0,0,0-1.34,4.73,2.5,2.5,0,1,0,4.82,1.33,53,53,0,0,1,1.84-6.19l1.84,0a2.37,2.37,0,0,0,1-.21h0a5.1,5.1,0,0,0,1.65,3.9,9.4,9.4,0,0,0,3.44,1.84c1,.33,2.12.54,3.17.85a2.5,2.5,0,1,0,1.32-4.82Z"/><path class="cls-55" d="M141.08,200.49a2.53,2.53,0,0,0-1.15-1.49,2.49,2.49,0,0,0-1.92-.25,2.75,2.75,0,0,0-1.5,1.14,30.83,30.83,0,0,0-3.3,6.31,2.52,2.52,0,0,0,1.75,3.08,2.55,2.55,0,0,0,1.93-.26l.5-.39a2.52,2.52,0,0,0,.65-1.1c0-.13.1-.25.15-.38a27.07,27.07,0,0,1,2.64-4.73A2.55,2.55,0,0,0,141.08,200.49Z"/><path class="cls-56" d="M155.28,205.48a2.78,2.78,0,0,0-1.68-.72l.44.06a8.15,8.15,0,0,1-1.81-.52c-.28-.12-.55-.26-.82-.4a3.48,3.48,0,0,0,.43-4.28,2.47,2.47,0,0,0-1.19-1,2.67,2.67,0,0,0-1.63-.12,6.41,6.41,0,0,0-3.72,1.7,3.74,3.74,0,0,0-1,2.43,4.09,4.09,0,0,0,.5,2,7.54,7.54,0,0,0,2.4,2.53,13.32,13.32,0,0,0,2.47,1.45,12.48,12.48,0,0,0,3.88,1.14,2.49,2.49,0,0,0,1.76-.74,2.47,2.47,0,0,0,0-3.53Z"/><path class="cls-57" d="M168.62,198.75a2.52,2.52,0,0,0-3.42-.89,2.56,2.56,0,0,0-.9,3.42l.15.32a7,7,0,0,1,.27.92v.11l-.06.21s0,.09-.08.14-.21.21-.32.3a33.83,33.83,0,0,1-4,2.19,2.52,2.52,0,0,0-.9,3.42,2.56,2.56,0,0,0,3.42.9c1.82-1,3.93-1.74,5.37-3.29a5.74,5.74,0,0,0,1.57-3.63A8.17,8.17,0,0,0,168.62,198.75Z"/><path class="cls-58" d="M191.31,200.26a5.52,5.52,0,0,0-2.83-1.92l.69-1.63a2.57,2.57,0,0,0-.9-3.42c-1.08-.57-2.86-.38-3.42.89s-1.08,2.55-1.61,3.83c-1.15.07-2.31.17-3.46.27a2.5,2.5,0,0,0,0,5l1.35-.12-.18.43c-.45,1.06-.93,2.11-1.42,3.16a2.5,2.5,0,1,0,4.31,2.52c1-2.07,1.87-4.18,2.74-6.29a4,4,0,0,1,.47.11l.06,0,.18.11.08.07c.07.13.15.26.22.4l0,.1q.12.36.21.72c.07.29.13.59.18.88s0,.31.07.47c.1.84.17,1.68.23,2.53a2.5,2.5,0,0,0,5,0C193.14,205.69,193,202.49,191.31,200.26Z"/><path class="cls-59" d="M193.66,192.87a1.51,1.51,0,0,0,0,3A1.51,1.51,0,0,0,193.66,192.87Z"/><path class="cls-60" d="M215.31,205.06a10.09,10.09,0,0,0-3.9-6,6,6,0,0,0-3.2-1.08,5.37,5.37,0,0,0-3.65,1.41,9.11,9.11,0,0,0-2.45,4.14,2.5,2.5,0,0,0,4.82,1.33c.06-.17.13-.34.19-.5a7.37,7.37,0,0,1,.34-.69l.21-.33.21-.22.07-.07h0l.11,0h0l.24.06c.12.07.24.14.35.22a1.08,1.08,0,0,1,.2.16,4.68,4.68,0,0,1,.38.39l.09.1.28.42a5.78,5.78,0,0,1,.81,2,2.5,2.5,0,0,0,3.07,1.74A2.55,2.55,0,0,0,215.31,205.06Z"/><path class="cls-61" d="M235.66,204.19a17.46,17.46,0,0,0-4.19-6.39c-.93-.81-2.64-1.11-3.54,0l-.07.09a2.31,2.31,0,0,0-1.5.74,12.78,12.78,0,0,0-2.65,3.86,2.61,2.61,0,0,0,.39,3,2.57,2.57,0,0,0,3,.39,9.07,9.07,0,0,0,2.64-2.36,20.22,20.22,0,0,1,1.39,2.75,13.09,13.09,0,0,1,1.22,5.09s0,.23,0,.36-.05.3-.05.34c-.05.21-.12.41-.18.62a.45.45,0,0,1,0,.08h0a10,10,0,0,1-.58,1l0,.06,0,0c-.12.14-.24.28-.37.41a22.9,22.9,0,0,1-4.23,3.34,2.57,2.57,0,0,0-.9,3.42,2.54,2.54,0,0,0,3.43.9c3.75-2.61,7.7-5.36,8-10.35A17,17,0,0,0,235.66,204.19Z"/><path class="cls-62" d="M265.33,178.57a2.52,2.52,0,0,0-3.07,1.75c-1.59,6.52-4.15,12.9-4.28,19.69-.07,3.22,4.93,3.22,5,0,.12-6.3,2.62-12.3,4.1-18.36A2.56,2.56,0,0,0,265.33,178.57Z"/><path class="cls-63" d="M255.53,206.5a1.51,1.51,0,0,0,0,3A1.51,1.51,0,0,0,255.53,206.5Z"/><path class="cls-51" d="M155,382.65c-1.52.05-3,.21-4.55.19a5.39,5.39,0,0,1-3.3-.76c.27.19-.32-.39-.3-.3a.57.57,0,0,1-.08-.13s0,0,0,0l-.12-.21.1.16a.84.84,0,0,1-.08-.2c0-.16-.07-.31-.1-.47s0-.47,0-.57c0-.28,0-.57,0-.85s.05-.61.08-.91a1.47,1.47,0,0,0,0-.16s0-.1,0-.24c.89-4.85,3-9.27,4.32-14,.87-3.1-4-4.43-4.82-1.32-1.13,4.05-2.92,7.88-3.91,12-1.09,4.54-1.49,10,3.64,12.19,2.9,1.21,6.09.74,9.13.63C158.21,387.53,158.22,382.53,155,382.65Z"/><path class="cls-51" d="M146.77,381.65l-.05-.1,0,.05Z"/><path class="cls-51" d="M175,378.66l-.06.17h0a.62.62,0,0,0,.06-.14v0Z"/><polygon class="cls-51" points="174.93 378.75 174.93 378.75 174.93 378.74 174.93 378.75"/><path class="cls-51" d="M178.94,374.78a20.65,20.65,0,0,0-6.09-6.53,2.5,2.5,0,0,0-3.42.9,2.57,2.57,0,0,0,.89,3.42.1.1,0,0,1,.05,0,1.33,1.33,0,0,1,.19.14l-.1-.07.47.38c.3.26.58.52.86.79a15.38,15.38,0,0,0-1.69,3.64c-.64,1.91-1,4.38.27,6.09,1.92,2.48,5.21,1.16,7.25-.42a5.92,5.92,0,0,0,2.36-4.3A7.62,7.62,0,0,0,178.94,374.78Z"/><path class="cls-51" d="M170.37,372.61l-.05,0h0c-.15-.11-.3-.2.14.11l-.07-.06Z"/><path class="cls-51" d="M174.93,378.86l0-.05h0s0,0,0,.05Z"/><path class="cls-51" d="M192.63,368.69a2.54,2.54,0,0,0-1.5-1.15,2.48,2.48,0,0,0-1.92.25l-.51.39a2.5,2.5,0,0,0-.64,1.1,26.26,26.26,0,0,0-1.93,8,2.49,2.49,0,0,0,2.5,2.5,2.57,2.57,0,0,0,2.5-2.5c0-.27.05-.54.08-.82a25.22,25.22,0,0,1,1.67-5.89A2.49,2.49,0,0,0,192.63,368.69Z"/><path class="cls-51" d="M201,380.62a2.83,2.83,0,0,0-1.7-.72l.38.05a7.62,7.62,0,0,1-1.27-.32l-.34-.19-.27-.27-.11-.19-.09-.3c0-.07,0-.13,0-.2l0-.15a7.88,7.88,0,0,0,1.76-2.3,2.53,2.53,0,0,0-.64-3.23,2.4,2.4,0,0,0-1.52-.53,2.88,2.88,0,0,0-1.77.73,7.57,7.57,0,0,0-2.86,5.42,6,6,0,0,0,2.82,5.27,8.53,8.53,0,0,0,3.8,1.2,2.47,2.47,0,0,0,1.77-.74,2.5,2.5,0,0,0,0-3.53Z"/><path class="cls-51" d="M229.48,377.9a12.27,12.27,0,0,0-3.89-4.39,6.91,6.91,0,0,0-4.79-.83,14.15,14.15,0,0,0-3.92,1.46c-.68.34-1.35.7-2,1.05l-.32.15-.15-.18c-.12-.2-.45-.83-.28-.38-.51-1.39-2.25-2.49-3.68-1.49a7,7,0,0,0-3.11,5.87,2.53,2.53,0,0,0,2.5,2.5,2.47,2.47,0,0,0,2.17-1.33,2.5,2.5,0,0,0,2.37.57c1.42-.6,2.78-1.27,4.14-2l1.68-.84a1.84,1.84,0,1,0,.19-.08l.14-.06c.27-.1.54-.19.82-.27l.44-.1.48,0,.15,0,.11,0,.25.08a3.44,3.44,0,0,0,.38.22l.05,0c.21.22.45.41.66.63s.26.29.38.44l.05.06.1.15c.27.41.53.82.78,1.24C226.78,383.2,231.1,380.69,229.48,377.9Z"/><path class="cls-51" d="M253.68,377.58a1.78,1.78,0,0,0-.44-.85,1.85,1.85,0,0,0-.71-.65l-.59-.25a2.5,2.5,0,0,0-1.33,0l-.6.25a2.5,2.5,0,0,0-.9.9,10,10,0,0,0-.55,1.5,9.68,9.68,0,0,0-.25,1.6,2.83,2.83,0,0,0,.73,1.77,2,2,0,0,0,.81.52,1.88,1.88,0,0,0,1,.21l.67-.09a2.5,2.5,0,0,0,1.1-.64l.39-.51a2.58,2.58,0,0,0,.31-1,5.94,5.94,0,0,1,.31-1.17,1.07,1.07,0,0,0,.07-.19,0,0,0,0,1,0,0v0a2.26,2.26,0,0,0,.07-.39A1.86,1.86,0,0,0,253.68,377.58Z"/><path class="cls-51" d="M256.8,361.53a1.51,1.51,0,0,0,0,3A1.51,1.51,0,0,0,256.8,361.53Z"/><path class="cls-51" d="M266.91,374.69h0l0,0h0l0,0h0Z"/><polygon class="cls-51" points="266.92 374.68 266.92 374.68 266.93 374.68 266.92 374.68"/><path class="cls-51" d="M266.88,374.73l0,0-.07.06s0,.05-.07.07S266.8,374.8,266.88,374.73Z"/><path class="cls-51" d="M272.14,373.23c-1.13-2.33-4.09-4.21-6.7-3.37-2,.63-3.31,2.47-4.12,4.31a24.68,24.68,0,0,0-1.79,6.15,18.64,18.64,0,0,0-.24,6.23c.44,2.43,4.33,2.35,4.82,0a34.41,34.41,0,0,0,.72-5.55,2,2,0,0,0-.09-.63,2.34,2.34,0,0,0,1.94.28,11.58,11.58,0,0,0,4.39-2.2A4.31,4.31,0,0,0,272.14,373.23Zm-5.51,2.16c.35-.2-.25.09-.33.12l-.07,0c.09-.14.17-.3.26-.44l0,0,.18-.21s0-.06.11-.13h0c-.56.1-.44-.16-.25-.09l.19,0H267l.06,0,0,0h0c.23-.07.24.08,0,.08h0l0,0,.2.12.2.18-.49.28C266.74,375.33,266.27,375.6,266.63,375.39Z"/><path class="cls-51" d="M266.91,374.68h0Z"/><path class="cls-51" d="M266.77,374.68h0S266.73,374.69,266.77,374.68Z"/><path class="cls-51" d="M266.74,374.67h-.13A.69.69,0,0,0,266.74,374.67Z"/><path class="cls-51" d="M266.93,374.67h0S266.93,374.67,266.93,374.67Z"/><path class="cls-51" d="M266.78,374.67h0Z"/><path class="cls-51" d="M288.21,377.68c-.48-2-1.75-3.7-2.78-5.43a2.5,2.5,0,0,0-1.66-4.71c-.8.15-1.6.33-2.4.53a2.53,2.53,0,0,0-1.83,2.41c.12,2.6,1.94,4.74,3.15,6.92.14.25.27.5.4.76s.11.28.18.4a.28.28,0,0,0,0-.08c0,.14.09.28.13.43l-.5.14a2.5,2.5,0,0,0,1.33,4.83,5.72,5.72,0,0,0,3.58-2.39A5,5,0,0,0,288.21,377.68Z"/><path class="cls-51" d="M283.22,378.48v0C283.13,378.21,282.9,377.94,283.22,378.48Z"/><path class="cls-51" d="M306.19,373.43a2.51,2.51,0,0,0-1.14-1.49,2.56,2.56,0,0,0-1.93-.26,2.46,2.46,0,0,0-1.5,1.15,11.49,11.49,0,0,1-1.18,2.11c-.16.18-.33.36-.51.53,0-.13.08-.25.13-.38a2.49,2.49,0,0,0-2.93-3.41,2.44,2.44,0,0,0-1.49,1.15,7.85,7.85,0,0,0-.7,2,6.89,6.89,0,0,0,0,2.56,6,6,0,0,0,.73,1.87,3,3,0,0,0,1.71,1.5,6.86,6.86,0,0,0,1.26.19,6.63,6.63,0,0,0,5.56-2.75,12.82,12.82,0,0,0,1.72-2.83,2,2,0,0,0,.3-.93A1.89,1.89,0,0,0,306.19,373.43Z"/><path class="cls-51" d="M327,379.17a.32.32,0,0,0,.16,0H327Z"/><path class="cls-51" d="M333.12,378.36a6.93,6.93,0,0,0-3.23-3.48,8.23,8.23,0,0,0-5-.54,22.22,22.22,0,0,0-5.07,1.69l-.18-.39,0-.05h0c-.06-.19-.12-.37-.17-.56a2.5,2.5,0,0,0-3.07-1.74,6.42,6.42,0,0,0-4,4.75,2.53,2.53,0,0,0,1.74,3.07,2.76,2.76,0,0,0,2.17-.43,2.23,2.23,0,0,0,2.66,1c2.14-.74,4.15-1.83,6.36-2.37.27-.06.54-.09.8-.16-.58.14,0,0,.29,0H327c-.12,0-.19-.06.08,0h.08l.32.09h0l.18.09.21.14,0,0a2.89,2.89,0,0,0,.29.32l0,.05c.18.32.36.63.51,1a2.52,2.52,0,0,0,3.42.9A2.55,2.55,0,0,0,333.12,378.36Z"/><path class="cls-51" d="M370,374.3h0l.16.12Z"/><path class="cls-51" d="M376.14,359.68c-1.19-.27-2.87.36-3.07,1.75-.43,2.83-.72,5.45-1.11,8.12a18,18,0,0,0-2.31-1.34c-2.51-1.19-5.63-1.92-8.13-.27-2.26,1.5-3.77,4.58-2.42,7.16,1,1.9,3.17,2.84,5.12,3.43a54.39,54.39,0,0,0,5.54,1.14,2.54,2.54,0,0,0,3.07-1.75,2.77,2.77,0,0,0-.05-1.37,2.49,2.49,0,0,0,3.3-1.65c.44-2.13.75-4.27,1-6.43s.48-3.82.77-5.71A2.58,2.58,0,0,0,376.14,359.68ZM367,374.1a16.9,16.9,0,0,1-2.31-.66l-.26-.1-.06,0-.2-.11-.44-.25-.11-.08,0,0,.17-.25c.06-.1.13-.18.18-.28-.31.49,0,.08.07,0l.1-.1,0,0,.17-.09a3.84,3.84,0,0,0,.46-.11h.55l.57.13c.23.06.46.13.68.21a3.4,3.4,0,0,0,.34.12h0a21.65,21.65,0,0,1,3.06,1.85h0l-.09-.08.1.08.15.12.1.08.3.26C369.4,374.55,368.21,374.37,367,374.1Z"/><path class="cls-51" d="M364.26,372.1Z"/><path class="cls-51" d="M388.68,372a3.47,3.47,0,0,0-.29-.25c-.35-.29-.71-.57-1.08-.82a10.48,10.48,0,0,0-2.06-1,9.34,9.34,0,0,0-1.72-.48,2.7,2.7,0,0,0-1.93.26,2.53,2.53,0,0,0-1.15,1.49,2.71,2.71,0,0,0,.09,1.57,2.12,2.12,0,0,0-.61.44,2.49,2.49,0,0,0-.73,1.77l.09.66a2.5,2.5,0,0,0,.64,1.1,6,6,0,0,0,2.86,1.92,2.77,2.77,0,0,0,.48.11,6.41,6.41,0,0,0,1.15.12,4.71,4.71,0,0,0,1.54-.27,5.2,5.2,0,0,0,1.86-1.12,4.72,4.72,0,0,0,.5-.59,4.33,4.33,0,0,0,.48-.7,6,6,0,0,0,.63-2A2.46,2.46,0,0,0,388.68,372Z"/><path class="cls-51" d="M401.53,363.87a2.57,2.57,0,0,0-2.5,2.5c-.18,1.85-.27,3.7-.4,5.55-.07.92-.15,1.83-.26,2.74,0,0,0,.1,0,.15l0,.13c0,.2-.06.41-.1.62-.08.47-.17.95-.28,1.42a2.5,2.5,0,0,0,4.83,1.33c.86-3.92.87-8,1.25-11.94A2.5,2.5,0,0,0,401.53,363.87Z"/><path class="cls-51" d="M416,370.32a9,9,0,0,0-5.55-2.17,2.6,2.6,0,0,0-2.35,1.62,2.47,2.47,0,0,0-2,1.77,5.13,5.13,0,0,0,1.49,5.15,7.29,7.29,0,0,0,4.7,1.87,5.38,5.38,0,0,0,4.74-2.38A4.52,4.52,0,0,0,416,370.32Z"/><path class="cls-51" d="M432.08,368.49a2.56,2.56,0,0,0-3.54,0c-2.55,2.27-5.35,5-5,8.77a2.73,2.73,0,0,0,.73,1.77,2.57,2.57,0,0,0,1.77.73,2.53,2.53,0,0,0,1.77-.73,2.48,2.48,0,0,0,.73-1.77,6.94,6.94,0,0,1,0-.79,5.27,5.27,0,0,1,.19-.68,7.73,7.73,0,0,1,.66-1.11,25.13,25.13,0,0,1,2.71-2.65A2.53,2.53,0,0,0,432.08,368.49Z"/><path class="cls-51" d="M454.81,352.69a2.5,2.5,0,0,0-2.53,4.32,13.88,13.88,0,0,1,2.41,1.93c.15.15.3.31.44.47l.28.35c.21.31.4.62.59.95,0,.07.07.14.09.18s.11.31.16.46.09.38.14.57c0,0,0,0,0,0V362c0,.32,0,.63,0,1v0l0,.06c-.06.19-.09.38-.14.57l-.16.46s0,0,0,0a.54.54,0,0,0-.06.11c-.18.34-.36.68-.57,1-.11.18-.24.35-.36.53a.68.68,0,0,1-.05.07l0,.05c-.28.33-.56.65-.86,1a20,20,0,0,1-4.53,3.47,2.5,2.5,0,0,0,2.53,4.32c3.76-2.28,7.94-5.55,9-10.06C462.37,359.41,458.85,355.35,454.81,352.69Z"/><path class="cls-51" d="M450.1,387.43a1.51,1.51,0,0,0,0,3A1.51,1.51,0,0,0,450.1,387.43Z"/><path class="cls-64" d="M278.13,410.28c-4.1,1-8.39.39-12.56.29-4.62-.12-9.26.19-13.87.39-9.45.43-18.9.44-28.35.43-18.81,0-37.64-.21-56.43.42-9.42.32-19.09,1.43-28.41-.39a2.58,2.58,0,0,0-3.08,1.75,2.54,2.54,0,0,0,1.75,3.08c8.57,1.66,17.32,1.1,26,.71,9.19-.41,18.41-.45,27.61-.57,19.31-.27,38.66.51,57.95-.3,5.32-.22,10.66-.59,16-.54,4.94.05,9.88.74,14.75-.45C282.58,414.33,281.26,409.51,278.13,410.28Z"/><path class="cls-51" d="M303.69,463a63.68,63.68,0,0,1-8.24-1.1,28.42,28.42,0,0,0-8.78-.15c-4.87.73-9.51,2.92-14.45,3.17a48.93,48.93,0,0,1-8-.7c-2.54-.28-5.09-.49-7.65-.52a57.39,57.39,0,0,0-7.86.47,72.32,72.32,0,0,1-8.3.88c-5.24,0-10.43-1.36-15.66-1.18s-10,2.29-15,3.37a14.51,14.51,0,0,1-6.42.19,41.77,41.77,0,0,1-6.09-2.38,19.06,19.06,0,0,0-6.67-1.72,16.93,16.93,0,0,0-6.93,1.45,49.34,49.34,0,0,1-6.53,2.55c-2.34.58-4.4,0-6.56-1s-4.19-2-6.54-2.08c-2.83-.14-5.27,1.41-7.26,3.27-2.35,2.21,1.19,5.74,3.54,3.54a7,7,0,0,1,2.38-1.64,3.49,3.49,0,0,1,1.8-.1,35.26,35.26,0,0,1,5.49,2.14,13.41,13.41,0,0,0,7.13.91,24.21,24.21,0,0,0,6.18-2.08,21.82,21.82,0,0,1,5.92-2,11.68,11.68,0,0,1,5.75,1.11c2,.81,4,1.83,6,2.49a16.73,16.73,0,0,0,7,.6c5-.58,9.59-2.65,14.52-3.47s10.15.59,15.11.88c5.36.31,10.52-1,15.85-1.22a93,93,0,0,1,15.28,1c5.8.7,11.18-1.49,16.73-2.75a22.94,22.94,0,0,1,8.62-.32,73.55,73.55,0,0,0,9.57,1.28C306.91,468.11,306.91,463.11,303.69,463Z"/><path class="cls-51" d="M134.08,426.63a172,172,0,0,0-32.79-1.83c-10.43.29-20.9.74-31.28,1.83-10.15,1.07-20.37,2.76-30,6.33-3.86,1.43-8.23,3-11.35,5.81a7.86,7.86,0,0,0-2.57,5.38c0,2,1.46,2.75,2.87,3.76a14.08,14.08,0,0,0,4.64,2.34,37.25,37.25,0,0,0,6.22,1c4.83.45,9.67.87,14.53,1a233.81,233.81,0,0,0,33.88-1.32,289.29,289.29,0,0,0,32.79-.48,83.1,83.1,0,0,0,16.05-2.71c5-1.44,12.06-4.21,12.28-10.35C149.66,429.69,139.9,427.59,134.08,426.63Zm9.71,12.13-.27.31-.55.52-.17.17-.1.06a18.47,18.47,0,0,1-1.63,1,16.7,16.7,0,0,1-3.22,1.4,54.81,54.81,0,0,1-8.37,2.1l-1.95.32-.93.14-.78.11c-1,.14-2.07.26-3.11.36a213.67,213.67,0,0,1-23.33.86,2.64,2.64,0,0,0-2.9-1.29q-4.07.6-8.16,1.07H88a2.54,2.54,0,0,0-.94.15,207.82,207.82,0,0,1-22.73,1.31c-5.39,0-10.79-.07-16.18-.44a108.79,108.79,0,0,1-11.41-1.11,18.74,18.74,0,0,1-2.46-.59c-.1,0-.93-.36-.73-.26-.18-.09-1-.62-.75-.41-.47-.33-.92-.68-1.38-1a3,3,0,0,1,.17-.41c.18-.37,0-.19.37-.51a9.91,9.91,0,0,1,1.92-1.39,40,40,0,0,1,4.74-2.33c8.45-3.62,17.66-5.52,26.74-6.71,9.37-1.22,18.83-1.7,28.27-2.1,10.76-.46,21.58-.73,32.32.41a91.33,91.33,0,0,1,10.5,1.66,28.71,28.71,0,0,1,4.28,1.28,7.52,7.52,0,0,1,3.18,2.16l0,.08.23.4s.18.52.21.62a1.57,1.57,0,0,1,0,.16c0,.09,0,.18,0,.26a1.71,1.71,0,0,0,0,.32c0,.2-.11.4-.16.6a1.74,1.74,0,0,1-.1.19C144,438.4,143.91,438.58,143.79,438.76Z"/><path class="cls-51" d="M51.3,369.64a2.56,2.56,0,0,0-3.42.9c-8.6,11.64-14.54,25.73-13.3,40.44a53,53,0,0,0,2.71,12.81,2.5,2.5,0,0,0,4.82-1.33,47,47,0,0,1-2.43-20.39,52.58,52.58,0,0,1,6.06-18.85,80.37,80.37,0,0,1,6.46-10.16A2.52,2.52,0,0,0,51.3,369.64Z"/><path class="cls-51" d="M63.06,357.43a2.54,2.54,0,0,0-2.5,2.5c-.09,4.59-.48,9.18-.38,13.78a2.5,2.5,0,0,0,5,0c-.1-4.6.29-9.19.38-13.78A2.52,2.52,0,0,0,63.06,357.43Z"/><path class="cls-51" d="M61.53,382.93a1.51,1.51,0,0,0,0,3A1.51,1.51,0,0,0,61.53,382.93Z"/><path class="cls-51" d="M76.08,359.72a2.56,2.56,0,0,0-2.5,2.5c0,1.89,0,3.78-.08,5.67,0,.93-.09,1.86-.19,2.79,0,.2,0,.4-.07.61s0,.21,0,.31c-.08.48-.17,1-.28,1.45a2.5,2.5,0,0,0,4.82,1.33c.91-4,.77-8.09.85-12.16A2.53,2.53,0,0,0,76.08,359.72Z"/><path class="cls-51" d="M75.7,381.4a1.51,1.51,0,0,0,0,3A1.51,1.51,0,0,0,75.7,381.4Z"/><path class="cls-51" d="M89.5,365.67a2.5,2.5,0,0,0-5,0c.3,4.21.72,8.42.77,12.64a2.5,2.5,0,0,0,5,0C90.22,374.09,89.8,369.88,89.5,365.67Z"/><path class="cls-51" d="M87.77,387.14a1.51,1.51,0,0,0,0,3A1.51,1.51,0,0,0,87.77,387.14Z"/><path class="cls-65" d="M181.57,276.91a2.56,2.56,0,0,0-3.08-1.74c-2.15.36-4.47.86-6.43,1.05a15.76,15.76,0,0,1-4.24,0c1-5.22,4-10.43,5.53-15.61a2.5,2.5,0,1,0-4.82-1.33c-1.83,6.33-5.39,12.08-6,18.76a2.55,2.55,0,0,0,1.83,2.41c4.89,2,10.46.4,15.42-.43A2.53,2.53,0,0,0,181.57,276.91Z"/><path class="cls-65" d="M198.1,267.7a6.72,6.72,0,0,0-1.65-3.07,9,9,0,0,0-3.48-2.2,2.55,2.55,0,0,0-1.93.25,2.51,2.51,0,0,0-.9,3.42l.09.11a2.35,2.35,0,0,0-1.32,1.07,15.89,15.89,0,0,0-1.73,4.35,12,12,0,0,0-.38,2.59,3.17,3.17,0,0,0,1.43,2.41,5.07,5.07,0,0,0,5.55.3,8.46,8.46,0,0,0,3.45-3.56A8.3,8.3,0,0,0,198.1,267.7ZM193.22,270a5.76,5.76,0,0,1-.18.59h0a.87.87,0,0,0,.08-.14,2,2,0,0,0-.1.21,1.47,1.47,0,0,1-.12.24c-.1.18-.2.36-.31.54l-.16.23-.08.08c0-.12.08-.25.13-.37s.07-.17.1-.26c-.05.13-.13.26,0,0l0-.07s0-.05,0-.08a.25.25,0,0,1,0,.07c.2-.42.4-.83.63-1.23l0-.08,0-.09v0h0v0h0C193.26,269.87,193.2,270.1,193.22,270Z"/><path class="cls-65" d="M193.28,269.69l0,0a2.28,2.28,0,0,0,0,.24l0-.1Z"/><path class="cls-65" d="M193,270.77a1,1,0,0,1,.07-.15.14.14,0,0,0,0-.07c-.08.18-.13.27-.14.31A.41.41,0,0,1,193,270.77Z"/><path class="cls-65" d="M192.6,271l0,0s0,0,0-.05Z"/><path class="cls-65" d="M208.76,264.33a2.56,2.56,0,0,0-3.42.89,29.4,29.4,0,0,0-3.53,7.58,2.5,2.5,0,1,0,4.82,1.33,16.19,16.19,0,0,1,.67-2,38.47,38.47,0,0,1,2.36-4.38A2.52,2.52,0,0,0,208.76,264.33Z"/><path class="cls-65" d="M218.21,275l-.36-.24,0,0a4.36,4.36,0,0,0,.49-.9,3.38,3.38,0,0,0,.3-1.44,3.25,3.25,0,0,0-1.72-2.75,2.62,2.62,0,0,0-1.6-.3,2.57,2.57,0,0,0-1.43.69,5.18,5.18,0,0,0-1.63,5.33,7.13,7.13,0,0,0,3.4,4,2.6,2.6,0,0,0,1.93.26,2.5,2.5,0,0,0,.59-4.57Z"/><path class="cls-65" d="M243.25,273.77a9.49,9.49,0,0,0-1.47-4.7,5.27,5.27,0,0,0-5.39-2.13,6.41,6.41,0,0,0-3.47,2.54,7.47,7.47,0,0,0-1.5-2,2.54,2.54,0,0,0-3.53,0,12.75,12.75,0,0,0-3.58,7.67,2.51,2.51,0,0,0,2.5,2.5,2.57,2.57,0,0,0,2.5-2.5c-.06.53.05-.17.09-.38a11.15,11.15,0,0,0,.69,1.75,2.47,2.47,0,0,0,2.15,1.24,2.58,2.58,0,0,0,2.16-1.24c.84-1.2,1.46-2.52,2.29-3.72l.12-.18.26-.32.37-.36v0l.09-.05h0l.08,0,0,0,.18.3v0c.18.36.08.24,0,.1,0,.17.15.42.17.47.09.34.13.69.21,1,0,.05,0,.1,0,.14s0,.34,0,.52c0,.39,0,.77,0,1.16,0,.66,0,1.31-.07,2a2.52,2.52,0,0,0,2.5,2.5,2.57,2.57,0,0,0,2.5-2.5A20.2,20.2,0,0,0,243.25,273.77Z"/><path class="cls-65" d="M237.85,272.2h0a.3.3,0,0,0,0,.11.58.58,0,0,1,0-.1Z"/><path class="cls-65" d="M284.55,267.14a4.68,4.68,0,0,0-5.28-2.66c-1.79.41-3.19,1.88-4.32,3.25-.24.29-.48.6-.72.9a15.83,15.83,0,0,0-2-3.68,2.56,2.56,0,0,0-3.93-.51c-2.07,1.8-2.88,4.47-3.59,7.11a2.8,2.8,0,0,0-.95,1.92c-.08.81-.15,1.61-.24,2.42a2.49,2.49,0,0,0,2.17,2.46,2.53,2.53,0,0,0,2.74-1.79c.61-1.62,1-3.31,1.48-5l.06-.17c.27.79.51,1.63.76,2.53a2.52,2.52,0,0,0,3.08,1.75,8.55,8.55,0,0,0,3.48-2.94c.92-1.15,1.86-2.2,2.88-3.25a.86.86,0,0,0,0,.13c.05.18.09.36.13.55a.45.45,0,0,1,0,.08v0a15.89,15.89,0,0,1,0,2.39c0,.25-.05.5-.07.75v.06a.65.65,0,0,1,0,.11c-.07.43-.14.87-.24,1.3a15.64,15.64,0,0,1-.56,2A2.52,2.52,0,0,0,281.2,280a2.56,2.56,0,0,0,3.07-1.75,21.43,21.43,0,0,0,1-5.08A11.46,11.46,0,0,0,284.55,267.14Z"/><path class="cls-65" d="M301.17,269.07a7.74,7.74,0,0,0-1.9-3.09,8.45,8.45,0,0,0-3.19-1.91,2.53,2.53,0,0,0-1.92.26,2.5,2.5,0,0,0-.9,3.42,3.13,3.13,0,0,0,.36.44,2.48,2.48,0,0,0-1.84,1.74,7.2,7.2,0,0,0,.39,5.43,4.71,4.71,0,0,0,4.06,2.51C300.43,277.88,302.31,272.48,301.17,269.07Z"/><path class="cls-66" d="M314.67,265.41a2.58,2.58,0,0,0-1.15-1.5,2.54,2.54,0,0,0-3.42.9,21.89,21.89,0,0,0-2.3,7.17,2.75,2.75,0,0,0,.25,1.93,2.56,2.56,0,0,0,1.49,1.15,2.6,2.6,0,0,0,1.93-.25,2.41,2.41,0,0,0,1.15-1.5,21.48,21.48,0,0,1,1.27-4.86c.17-.37.34-.75.53-1.11A2.65,2.65,0,0,0,314.67,265.41Z"/><path class="cls-65" d="M329.31,266.77h0l0,0h0l0,0Z"/><path class="cls-65" d="M329.31,266.78h0Z"/><path class="cls-65" d="M331.6,262.31a5.28,5.28,0,0,0-4.8.09,8.65,8.65,0,0,0-4,4.51,2.17,2.17,0,0,0-1.23-.78,2.53,2.53,0,0,0-3.07,1.74c-.5,1.94-.25,4.08,1.55,5.25a4.72,4.72,0,0,0,2.92.64,5.84,5.84,0,0,0,.33.53,9.7,9.7,0,0,0,5.57,3.64,2.53,2.53,0,0,0,3.08-1.74,2.55,2.55,0,0,0-1.75-3.08c-.43-.11-.83-.28-1.26-.41l.31.09a2.67,2.67,0,0,1-.36-.14,5.39,5.39,0,0,1-.58-.32l-.28-.19,0,0a.46.46,0,0,0-.07-.07,15,15,0,0,0,4.65-4.19,6.74,6.74,0,0,0,1-2A3.11,3.11,0,0,0,331.6,262.31Z"/><path class="cls-65" d="M329.37,266.8l.05,0-.06,0Z"/><path class="cls-65" d="M329.31,266.78h0Z"/><polygon class="cls-65" points="329.36 266.76 329.36 266.76 329.36 266.76 329.36 266.76 329.36 266.76"/><path class="cls-65" d="M329.36,266.79v0h0Z"/><path class="cls-65" d="M329.23,272.79Z"/><polygon class="cls-65" points="329.31 266.77 329.31 266.77 329.31 266.78 329.31 266.77 329.31 266.77"/><path class="cls-65" d="M329.31,266.78l.07.06v0l-.06,0Z"/><path class="cls-65" d="M348.28,268.48a6.63,6.63,0,0,0-4-1.63,6.55,6.55,0,0,0-3.86,1.12,10.72,10.72,0,0,0-3.6,4.24,2.5,2.5,0,1,0,4.31,2.52c.15-.3.31-.6.49-.9l.25-.4.22-.3,0-.05.24-.27c.17-.18.36-.34.54-.5l.24-.16.3-.17.13-.06h0a.78.78,0,0,1,.28-.06h0l.18,0h0l-.13,0h.31l.23.06h0c.1.06.31.23.44.29l.1.08.18.2.05.06c.09.15.19.32.2.35a2,2,0,0,1,.13.25c.08.24.17.48.23.74s.05.27.08.41a10.59,10.59,0,0,1,0,2,2.5,2.5,0,0,0,4.27,1.77,2.81,2.81,0,0,0,.73-1.77C351.22,273.58,350.49,270.34,348.28,268.48Z"/><path class="cls-65" d="M343.87,271.86l-.26.05s.07,0,.34-.06h-.08Z"/><path class="cls-65" d="M374.09,254.17a7.34,7.34,0,0,0-2.57-3.11,11.41,11.41,0,0,0-4.37-1.78,2.5,2.5,0,0,0-1.32,4.83c.39.08.78.17,1.16.28l.6.2.08,0c.24.13.51.23.74.37l.39.25c.17.15.33.3.49.47l.12.2a.31.31,0,0,1,.1.17v.05a.64.64,0,0,0,.08.14h0l-.07-.09c0,.08.05.16.07.24s0,.33,0,.49a.54.54,0,0,1,0-.1.58.58,0,0,0,0,.14V257a.56.56,0,0,1-.05.2c-.05.24-.14.46-.21.7l-.19.36c-.15.27-.31.53-.49.79s-.2.25-.28.39l.09-.14-.1.13a14.13,14.13,0,0,1-1.6,1.59,2.5,2.5,0,0,0,0,3.53,2.54,2.54,0,0,0,3.53,0,11.53,11.53,0,0,0,4.15-6.41A6.82,6.82,0,0,0,374.09,254.17Z"/><path class="cls-65" d="M368.48,259.3c.1-.15.18-.29,0,0Z"/><path class="cls-65" d="M369.61,257v0c-.11.27-.09.37-.05.29h0C369.58,257.12,369.59,257,369.61,257Z"/><path class="cls-65" d="M369.42,255.93v0s0,.05.12.27v-.05A1.24,1.24,0,0,0,369.42,255.93Z"/><path class="cls-65" d="M369,271.14a1.51,1.51,0,0,0,0,3A1.51,1.51,0,0,0,369,271.14Z"/><path class="cls-51" d="M303.17,296.63a2.55,2.55,0,0,0-3.08-1.74c-11.5,2.38-23.39,1.74-35.06,1.36-12.32-.4-24.67-.22-37-.22H190.28c-12.35,0-24.74.27-37.09-.11-13.06-.4-26.23-1.62-39.2.61a2.51,2.51,0,0,0-1.74,3.07,2.55,2.55,0,0,0,3.07,1.75c11.36-2,23-1,34.48-.55,12.32.49,24.67.23,37,.23h37.77c12.33,0,24.69-.23,37,.11,13.29.37,26.73,1.29,39.85-1.43A2.53,2.53,0,0,0,303.17,296.63Z"/><path class="cls-67" d="M346.51,133.05a8.7,8.7,0,0,0-2.62-3.41,19.16,19.16,0,0,0-3.53-2.54c-4.85-2.71-10.47-3.63-15.9-4.42-7.2-1.05-14.37-2.14-21.62-2.72-15.9-1.25-31.94-1.16-47.87-.91a380,380,0,0,0-43,3.17,100.23,100.23,0,0,0-16.39,3.13c-4.57,1.4-9.17,3.55-12,7.58a7.37,7.37,0,0,0,.65,9.5c2.43,2.72,6.1,4.26,9.42,5.51,7.54,2.84,15.58,4.1,23.48,5.44,14.73,2.51,29.78,4.66,44.75,3.63a92.18,92.18,0,0,0,10.6-1.33,2,2,0,0,0,1-.52c9.59-.32,19.19-.48,28.73-1.61,10-1.18,20.34-3.09,29.69-6.86,4.25-1.71,8.72-3.86,11.8-7.37C344.93,137.87,347.08,135.13,346.51,133.05Zm-6.15,2.45c-.06.08-.27.31-.32.37a14.4,14.4,0,0,1-1.1,1.11,14.79,14.79,0,0,1-2.36,1.8,34.63,34.63,0,0,1-3,1.71,67.16,67.16,0,0,1-13.9,4.81c-12.44,3.09-25.08,4.16-37.86,4.58-9.24.31-18.49.48-27.69,1.5a3,3,0,0,0-1.86.88c-3.88-.07-7.75-.31-11.6-.66-9.95-.89-19.82-2.58-29.65-4.34A101.51,101.51,0,0,1,197.45,144c-1.32-.42-2.62-.89-3.9-1.42l-.06,0-.41-.18-.82-.38c-.58-.29-1.15-.58-1.71-.91s-1-.59-1.44-.92l-.22-.16h0c-.22-.2-.45-.39-.66-.59s-.31-.33-.47-.49l-.13-.15-.31-.5c0-.06-.08-.14-.12-.21a2.52,2.52,0,0,0-.14-.54v-.06c0-.28.07-.48,0-.25,0-.2.09-.39.14-.58a.81.81,0,0,1,0-.11l.05-.08c.13-.21.24-.43.37-.64l.26-.37,0,0a10,10,0,0,1,.7-.76,18.44,18.44,0,0,1,7.79-4.3c6.82-2.17,13.88-2.89,20.88-3.77,22-2.75,44.18-2.89,66.29-2.47a254.39,254.39,0,0,1,33.1,2.44c3.9.6,7.83,1.09,11.7,1.84a29.74,29.74,0,0,1,10.26,3.54,11.86,11.86,0,0,1,2.6,2.19c-.19.35-.38.69-.6,1Z"/><path class="cls-67" d="M362.7,185.62c-11-1.81-22.3-2.46-33.18-4.18-11.12-1.75-22.6-4.26-31.91-10.66A30,30,0,0,1,287,158.1a2.58,2.58,0,0,0-3.07-1.75,2.51,2.51,0,0,0-1.75,3.07,34.14,34.14,0,0,0,10,13.49,52.83,52.83,0,0,0,15.28,8.33c11.52,4.21,23.91,5.66,36,7,6.13.69,12.17,1.26,17.9,2.2a2.57,2.57,0,0,0,3.07-1.75A2.51,2.51,0,0,0,362.7,185.62Z"/><path class="cls-67" d="M389.34,183.68a2.57,2.57,0,0,0-3.42-.9,10.78,10.78,0,0,0-3.64,2.72,53.94,53.94,0,0,0,1.68-6.56,2.59,2.59,0,0,0-1.75-3.08,2.51,2.51,0,0,0-3.07,1.75c-.52,3.17-1.67,6.21-2.43,9.32s-1.55,6.87-.33,10a2.53,2.53,0,0,0,2.08,1.79,2.5,2.5,0,0,0,2.49-1.19c1.2-2,2.15-4.23,3.35-6.27.3-.5.61-1,.94-1.47l.27-.36c.18-.22.36-.43.56-.64h0a39.65,39.65,0,0,1,.89,6.59,2.57,2.57,0,0,0,2.5,2.5,2.51,2.51,0,0,0,2.5-2.5C391.56,191.37,391.47,187.2,389.34,183.68Z"/><path class="cls-67" d="M406.07,192.18c-.07-.12-.13-.24-.19-.36l-.08-.19,0-.1-.11-.3a11.46,11.46,0,0,1-.37-1.51,1.11,1.11,0,0,1,0-.19,10.25,10.25,0,0,0,2.69-6.61,2.49,2.49,0,0,0-1.53-2.29,2.57,2.57,0,0,0-2.73.52,9.62,9.62,0,0,0-3.31,6.07c-.23.16-.45.36-.67.49s-.75.41-1.13.6a2.52,2.52,0,0,0-.9,3.42,2.54,2.54,0,0,0,3.22,1,12.26,12.26,0,0,0,1.66,3.29,2.5,2.5,0,1,0,4.32-2.52A10.4,10.4,0,0,1,406.07,192.18Z"/><path class="cls-67" d="M423.65,173.34c-1.92,7.91-4.23,15.73-5.49,23.78a2.58,2.58,0,0,0,1.75,3.08,2.53,2.53,0,0,0,3.07-1.75c1.26-8,3.57-15.87,5.49-23.78C429.23,171.54,424.41,170.21,423.65,173.34Z"/><path class="cls-67" d="M437.69,167.58a2.51,2.51,0,0,0-3.42.89c-3.48,8.17-4.85,16.89-5.83,25.66a2.51,2.51,0,0,0,2.5,2.5,2.57,2.57,0,0,0,2.5-2.5c.87-7.81,2.05-15.85,5.14-23.13A2.58,2.58,0,0,0,437.69,167.58Z"/><path class="cls-67" d="M446.66,190.76a7.71,7.71,0,0,0-1.76-3.22,11.8,11.8,0,0,0-2.81-2.36,11.5,11.5,0,0,0-3.17-1.39,2.54,2.54,0,0,0-3.08,1.75,2.62,2.62,0,0,0,1,2.71,8.9,8.9,0,0,0-.58,5.39,5.68,5.68,0,0,0,3.67,4.6,4.56,4.56,0,0,0,3.51-.54,7.58,7.58,0,0,0,2.68-2.83A5.93,5.93,0,0,0,446.66,190.76Zm-5.31.32a6.11,6.11,0,0,1,.38.65,1.92,1.92,0,0,1,.09.32s0,0,0,.07l-.09.33c-.06.08-.11.17-.17.26s-.2.23-.31.34c-.06-.21-.12-.43-.16-.65a7.11,7.11,0,0,1,0-1.13,2.33,2.33,0,0,1,.08-.38Z"/><path class="cls-67" d="M466.49,177a.4.4,0,0,0,.09.25c0-.08-.05-.16-.07-.23Z"/><path class="cls-67" d="M470.69,174.28a8.34,8.34,0,0,0-4.94-3.3,2.5,2.5,0,0,0-1.33,4.83c.25.06.49.14.73.22l.16.06,0,0c.25.14.53.35.8.48a1.59,1.59,0,0,1,.13.13.73.73,0,0,1,.08.09,1.13,1.13,0,0,1,.13.2.07.07,0,0,1,0,0h0a.23.23,0,0,0,0,.07l0,0c.13.24.1.26.05.2s.05.13.06.16v0c0,.25,0,.51,0,.77s-.07.3-.1.45c-.09.34-.2.67-.32,1l0,.07h0c-.06.14-.12.27-.19.4-.18.36-.37.71-.58,1.06s-.38.61-.58.9l-.36.5-.06.09h0a20.07,20.07,0,0,1-2.93,3,2.51,2.51,0,0,0,0,3.54,2.57,2.57,0,0,0,3.53,0,20.21,20.21,0,0,0,5.17-6.28C471.56,180.31,472.42,176.94,470.69,174.28Z"/><path class="cls-51" d="M464.48,196.28a1.51,1.51,0,0,0,0,3A1.51,1.51,0,0,0,464.48,196.28Z"/><path class="cls-68" d="M457.71,257.08c0-3.22-5-3.22-5,0,0,8.05,1.11,16.44.06,24.51-5.26-10.44-6.77-22.62-12.13-33-1-2-3.95-1.34-4.57.59-3.91,12.15-1.41,25.24-2.63,37.72a2.51,2.51,0,0,0,2.5,2.5,2.56,2.56,0,0,0,2.5-2.5c.6-6.16.33-12.37.37-18.55a90.85,90.85,0,0,1,.51-10.3c3.91,10.66,5.73,22.22,12.41,31.62a2.54,2.54,0,0,0,4.57-.6C459.44,278.71,457.71,267.66,457.71,257.08Z"/><path class="cls-69" d="M477.43,270.71a9.94,9.94,0,0,0-6.37-4.95,2.5,2.5,0,1,0-1.33,4.83c.38.09.75.26,1.13.35l-.26-.06a2,2,0,0,1,.31.12l.49.28a2.48,2.48,0,0,1,.26.19c-.06-.06-.06-.07.08,0l.12.08-.09-.06,0,0a8.11,8.11,0,0,1,.77.78l0,0h0c.1.15.21.3.3.45s.28.53.42.8l0,.06c.05.17.11.34.16.51s.09.34.13.52a.92.92,0,0,0,0,.18c0,.08,0,.17,0,.2,0,.18,0,.35,0,.53s0,.34,0,.51-.13.59-.23.87c0,.08-.05.15-.07.22l-.15.27-.28.45,0,0h0c-.23.24-.45.46-.7.69h0l-.07,0-.51.31-.22.11-.07,0-.08,0-.57-.33h0l-.43-.43a.88.88,0,0,0-.07-.12,3.25,3.25,0,0,0-.25-.49l0-.08c0-.18-.09-.35-.13-.53a.37.37,0,0,1,0-.09v0c0-.39,0-.81,0-1.2,0,0,0-.06,0-.09,0-.23.1-.45.15-.67l.21-.66a3.42,3.42,0,0,1,.13-.34l0,0a2.49,2.49,0,0,0-4.34-2.44,10,10,0,0,0-.25,8.71,7.15,7.15,0,0,0,3,3,8.83,8.83,0,0,0,2.23.84,4.65,4.65,0,0,0,3.12-.77C478.64,281,479.78,275.16,477.43,270.71Z"/><path class="cls-70" d="M471.66,271.47l.11.07,0,0Z"/><path class="cls-71" d="M470.6,270.88Z"/><path class="cls-72" d="M499.09,269.26a2.57,2.57,0,0,0-3.08-1.74c-.8.13-1.61.25-2.42.36l-.21,0-.34,0c.08-1.88.18-3.75.3-5.63a2.5,2.5,0,0,0-5,0c-.13,2.05-.23,4.1-.32,6.14l-1.27.13a2.5,2.5,0,0,0,0,5l1.11-.1c-.08,3.29-.12,6.57-.11,9.86s5,3.22,5,0q0-5.19.12-10.39,2.24-.27,4.47-.63a2.5,2.5,0,0,0,1.75-3.08Z"/><path class="cls-73" d="M509.61,277.45l-.52-.15h0l-.18-.08a4.77,4.77,0,0,1-.44-.24,7,7,0,0,1-.67-.44l-.34-.3c-.21-.2-.41-.4-.6-.61l-.27-.32-.28-.42a8.58,8.58,0,0,0,3.59-4.93,2.55,2.55,0,0,0-1.75-3.07,7.23,7.23,0,0,0-5.39.29,4.91,4.91,0,0,0-2.43,3.48c-.51,3.19,1,6.41,3.17,8.69a10.37,10.37,0,0,0,4.79,2.93,2.5,2.5,0,0,0,1.33-4.82Z"/><path class="cls-74" d="M530.23,278.79c-.86-3.52-3.28-6.5-5.11-9.54a2.5,2.5,0,1,0-4.32,2.52c.83,1.38,1.73,2.72,2.57,4.09.41.67.81,1.34,1.17,2,.17.33.32.67.49,1-.29-.58,0-.05,0,.07s.12.32.17.49.19.64.26,1l0,.16v.07a1.7,1.7,0,0,0,0,.21c0,.14,0,.28,0,.42a3.39,3.39,0,0,0-.11.43l0,.13c-.11.18-.33.45-.36.5a6.75,6.75,0,0,1-.53.54l-.08.07-.06,0c-.2.11-.38.25-.57.37a13.33,13.33,0,0,1-1.46.74,2.51,2.51,0,0,0-.9,3.42,2.58,2.58,0,0,0,3.42.9,9.84,9.84,0,0,0,4.85-4.07A7.76,7.76,0,0,0,530.23,278.79Z"/><path class="cls-75" d="M540.2,278.34c-1-5.28-3.83-10-7.17-14.14a64.66,64.66,0,0,0-12.7-11.57,79.86,79.86,0,0,0-13.28-7.76c-13.44-6.13-28.73-8.61-43.43-8.24-14.5.37-29.41,3.47-42.45,10-5.17,2.57-10.2,6.07-13.3,11.06s-3.35,11-2.33,16.73c1.61,9.11,7.43,16.47,15.18,21.29,8,5,17.42,7.48,26.61,9.13,8.18,1.47,16.45,2.23,24.72,3,0,.06,0,.12,0,.17a2.58,2.58,0,0,0,3.08,1.75c.75-.12.53-.09,1.23-.17s1.24-.14,1.86-.19c1.27-.11,2.55-.19,3.82-.25,2.71-.12,5.43-.16,8.15-.19,5.86-.07,11.74-.1,17.58-.65,11.23-1,23-4.09,29.33-14.23A22,22,0,0,0,540.2,278.34Zm-4.94,7.31a20.25,20.25,0,0,1-7.89,11.68c-4.17,2.91-9,4.31-14,5.2-10.34,1.83-21.1,1.09-31.63,1.6a3.38,3.38,0,0,0-1.42-.49c-8.1-1-16.24-1.47-24.33-2.53l-1.33-.18-1.73-.26c-1.11-.17-2.23-.35-3.34-.54-2.31-.4-4.61-.85-6.89-1.38a80.57,80.57,0,0,1-12.79-4l-.5-.22-.69-.31c-.5-.22-1-.46-1.48-.7-1-.47-1.92-1-2.85-1.52s-1.73-1-2.57-1.62c-.43-.29-.85-.59-1.27-.9l-.33-.25-.57-.46a31.82,31.82,0,0,1-4.22-4.23l-.25-.32-.42-.57c-.3-.42-.58-.84-.85-1.27a25.32,25.32,0,0,1-1.49-2.7c-.11-.22-.21-.44-.31-.66l-.07-.15-.05-.14c-.2-.5-.39-1-.56-1.5a29.49,29.49,0,0,1-.87-3.19,26.52,26.52,0,0,1-.6-6.78c.2-5.17,3.22-9.41,7.27-12.49s9.13-5.29,14-7.08a102.29,102.29,0,0,1,65.82-1.35q2.63.85,5.21,1.86l.63.25.29.12,1.44.64c2.15,1,4.24,2.09,6.29,3.27a75.38,75.38,0,0,1,12.53,9,42.58,42.58,0,0,1,9.67,11.77A18.59,18.59,0,0,1,535.26,285.65Z"/></svg>