<svg id="Layer_1" data-name="Layer 1" xmlns="http://www.w3.org/2000/svg" xmlns:xlink="http://www.w3.org/1999/xlink" viewBox="0 0 802.13 500"><defs><style>.cls-1{fill:#e2e3e4;}.cls-2{fill:#ededee;}.cls-3{fill:#ed1c24;}.cls-4{fill:#fbb040;}.cls-5{fill:#39b54a;}.cls-6{font-size:14px;}.cls-30,.cls-6{fill:#231f20;font-family:MyriadPro-Regular, Myriad Pro;}.cls-7{letter-spacing:-0.01em;}.cls-8{letter-spacing:-0.01em;}.cls-9{letter-spacing:0em;}.cls-10{letter-spacing:0em;}.cls-11{letter-spacing:-0.01em;}.cls-12{letter-spacing:0.01em;}.cls-13{letter-spacing:-0.01em;}.cls-14{letter-spacing:0em;}.cls-15{letter-spacing:-0.01em;}.cls-16{letter-spacing:-0.01em;}.cls-17{letter-spacing:0em;}.cls-18{letter-spacing:0em;}.cls-19{letter-spacing:0em;}.cls-20{letter-spacing:-0.01em;}.cls-21{letter-spacing:0em;}.cls-22{letter-spacing:0em;}.cls-23{letter-spacing:-0.01em;}.cls-24{letter-spacing:0em;}.cls-25{letter-spacing:0.02em;}.cls-26{letter-spacing:0em;}.cls-27{letter-spacing:0em;}.cls-28{letter-spacing:0em;}.cls-29{letter-spacing:0em;}.cls-30{font-size:20px;}.cls-31{letter-spacing:-0.01em;}.cls-32{letter-spacing:0em;}.cls-33{fill:url(#linear-gradient);}</style><linearGradient id="linear-gradient" x1="19.85" y1="256.24" x2="715.38" y2="256.24" gradientUnits="userSpaceOnUse"><stop offset="0" stop-color="#fff33b"/><stop offset="0.01" stop-color="#f2ee3c"/><stop offset="0.05" stop-color="#c8df3f"/><stop offset="0.1" stop-color="#a6d341"/><stop offset="0.14" stop-color="#8bc943"/><stop offset="0.19" stop-color="#78c244"/><stop offset="0.23" stop-color="#6dbe45"/><stop offset="0.28" stop-color="#69bd45"/><stop offset="0.55" stop-color="#f3903f"/><stop offset="0.79" stop-color="#ed683c"/><stop offset="1" stop-color="#51489d"/></linearGradient></defs><rect class="cls-1" width="800" height="500" rx="10"/><path class="cls-2" d="M0,31.39H800a0,0,0,0,1,0,0V490a10,10,0,0,1-10,10H10A10,10,0,0,1,0,490V31.39a0,0,0,0,1,0,0Z"/><circle class="cls-3" cx="19.6" cy="17.51" r="5.22"/><circle class="cls-4" cx="40.73" cy="17.35" r="5.22"/><circle class="cls-5" cx="61.79" cy="17.35" r="5.22"/><text class="cls-6" transform="translate(27.98 112.99)"><tspan class="cls-7">L</tspan><tspan x="6.41" y="0">o</tspan><tspan class="cls-8" x="14.1" y="0">r</tspan><tspan x="18.54" y="0">em ipsum dolor sit ame</tspan><tspan class="cls-9" x="155.31" y="0">t</tspan><tspan class="cls-10" x="159.9" y="0">, </tspan><tspan class="cls-11" x="165.77" y="0">c</tspan><tspan x="171.96" y="0">onse</tspan><tspan class="cls-12" x="199.97" y="0">c</tspan><tspan class="cls-11" x="206.43" y="0">t</tspan><tspan x="210.98" y="0">etuer adipiscing eli</tspan><tspan class="cls-9" x="321.31" y="0">t</tspan><tspan x="325.9" y="0">, sed diam nonum</tspan><tspan class="cls-13" x="430.36" y="0">m</tspan><tspan x="441.86" y="0">y nibh euismod tincidu</tspan><tspan class="cls-14" x="575.78" y="0">n</tspan><tspan x="583.49" y="0">t ut lao</tspan><tspan class="cls-15" x="624.15" y="0">r</tspan><tspan x="628.58" y="0">eet dolo</tspan><tspan class="cls-16" x="676.78" y="0">r</tspan><tspan x="681.22" y="0">e ma</tspan><tspan class="cls-11" x="709.63" y="0">g</tspan><tspan x="717.37" y="0">na </tspan><tspan x="0" y="16.8">aliquam e</tspan><tspan class="cls-17" x="57.33" y="16.8">r</tspan><tspan class="cls-18" x="61.84" y="16.8">a</tspan><tspan x="68.53" y="16.8">t </tspan><tspan class="cls-16" x="76.13" y="16.8">v</tspan><tspan x="82.72" y="16.8">olutp</tspan><tspan class="cls-18" x="114.03" y="16.8">a</tspan><tspan class="cls-9" x="120.72" y="16.8">t</tspan><tspan x="125.31" y="16.8">. </tspan><tspan class="cls-19" x="131.18" y="16.8">U</tspan><tspan x="140.29" y="16.8">t wisi enim ad minim </tspan><tspan class="cls-8" x="264.22" y="16.8">v</tspan><tspan x="270.81" y="16.8">eniam, quis nostrud </tspan><tspan class="cls-9" x="389.33" y="16.8">e</tspan><tspan class="cls-20" x="396.3" y="16.8">x</tspan><tspan x="402.58" y="16.8">e</tspan><tspan class="cls-16" x="409.59" y="16.8">r</tspan><tspan x="414.03" y="16.8">ci t</tspan><tspan class="cls-21" x="431.18" y="16.8">a</tspan><tspan class="cls-22" x="437.87" y="16.8">tion ullam</tspan><tspan class="cls-23" x="496.95" y="16.8">c</tspan><tspan x="503.14" y="16.8">o</tspan><tspan class="cls-24" x="510.82" y="16.8">r</tspan><tspan x="515.46" y="16.8">per suscipit lobo</tspan><tspan class="cls-25" x="611.82" y="16.8">r</tspan><tspan x="616.73" y="16.8">tis nisl ut aliquip </tspan><tspan class="cls-9" x="714.46" y="16.8">e</tspan><tspan x="721.43" y="16.8">x ea </tspan><tspan class="cls-11" x="0" y="33.6">c</tspan><tspan x="6.19" y="33.6">ommodo </tspan><tspan class="cls-11" x="63.46" y="33.6">c</tspan><tspan x="69.65" y="33.6">onsequ</tspan><tspan class="cls-18" x="113.26" y="33.6">a</tspan><tspan class="cls-26" x="119.95" y="33.6">t</tspan><tspan x="124.54" y="33.6">. </tspan><tspan class="cls-27" x="130.41" y="33.6">D</tspan><tspan x="139.77" y="33.6">uis au</tspan><tspan class="cls-11" x="173.74" y="33.6">t</tspan><tspan x="178.29" y="33.6">em </tspan><tspan class="cls-8" x="199.94" y="33.6">v</tspan><tspan x="206.54" y="33.6">el eum i</tspan><tspan class="cls-19" x="252.47" y="33.6">r</tspan><tspan x="257.1" y="33.6">iu</tspan><tspan class="cls-8" x="268.09" y="33.6">r</tspan><tspan x="272.53" y="33.6">e dolor in hend</tspan><tspan class="cls-8" x="361.1" y="33.6">r</tspan><tspan x="365.53" y="33.6">e</tspan><tspan class="cls-28" x="372.55" y="33.6">r</tspan><tspan x="377.18" y="33.6">it in vulput</tspan><tspan class="cls-14" x="440.14" y="33.6">a</tspan><tspan class="cls-11" x="446.83" y="33.6">t</tspan><tspan x="451.38" y="33.6">e </tspan><tspan class="cls-15" x="461.36" y="33.6">v</tspan><tspan x="467.95" y="33.6">elit esse molestie </tspan><tspan class="cls-23" x="570.35" y="33.6">c</tspan><tspan x="576.53" y="33.6">onsequ</tspan><tspan class="cls-14" x="620.14" y="33.6">a</tspan><tspan class="cls-9" x="626.83" y="33.6">t</tspan><tspan x="631.43" y="33.6">, </tspan><tspan class="cls-16" x="637.29" y="33.6">v</tspan><tspan x="643.89" y="33.6">el illum dolo</tspan><tspan class="cls-16" x="715.98" y="33.6">r</tspan><tspan x="720.42" y="33.6">e eu </tspan><tspan class="cls-13" x="0" y="50.4">f</tspan><tspan x="3.91" y="50.4">eu</tspan><tspan class="cls-11" x="18.63" y="50.4">g</tspan><tspan x="26.38" y="50.4">i</tspan><tspan class="cls-18" x="29.65" y="50.4">a</tspan><tspan x="36.34" y="50.4">t nulla facilisis </tspan><tspan class="cls-18" x="120.05" y="50.4">a</tspan><tspan x="126.74" y="50.4">t </tspan><tspan class="cls-16" x="134.34" y="50.4">v</tspan><tspan x="140.93" y="50.4">e</tspan><tspan class="cls-8" x="147.95" y="50.4">r</tspan><tspan x="152.39" y="50.4">o e</tspan><tspan class="cls-16" x="170.05" y="50.4">r</tspan><tspan x="174.49" y="50.4">os et a</tspan><tspan class="cls-11" x="212.05" y="50.4">c</tspan><tspan x="218.24" y="50.4">cumsan et ius</tspan><tspan class="cls-11" x="298.08" y="50.4">t</tspan><tspan x="302.63" y="50.4">o odio di</tspan><tspan class="cls-11" x="353.97" y="50.4">g</tspan><tspan x="361.71" y="50.4">nissim qui blandit p</tspan><tspan class="cls-29" x="476.13" y="50.4">r</tspan><tspan x="480.64" y="50.4">aese</tspan><tspan class="cls-21" x="506.96" y="50.4">n</tspan><tspan x="514.67" y="50.4">t lupt</tspan><tspan class="cls-14" x="545.89" y="50.4">a</tspan><tspan x="552.58" y="50.4">tum zz</tspan><tspan class="cls-24" x="591.56" y="50.4">r</tspan><tspan x="596.19" y="50.4">il delenit augue duis dolo</tspan><tspan class="cls-16" x="743.56" y="50.4">r</tspan><tspan x="748" y="50.4">e </tspan><tspan class="cls-11" x="757.98" y="50.4">t</tspan><tspan x="762.53" y="50.4">e </tspan><tspan class="cls-13" x="0" y="67.2">f</tspan><tspan x="3.91" y="67.2">eugait nulla facilisi.</tspan><tspan class="cls-7" x="0" y="84">L</tspan><tspan x="6.41" y="84">o</tspan><tspan class="cls-8" x="14.1" y="84">r</tspan><tspan x="18.54" y="84">em ipsum dolor sit ame</tspan><tspan class="cls-9" x="155.31" y="84">t</tspan><tspan class="cls-10" x="159.9" y="84">, </tspan><tspan class="cls-11" x="165.77" y="84">c</tspan><tspan x="171.96" y="84">ons e</tspan><tspan class="cls-12" x="202.94" y="84">c</tspan><tspan class="cls-11" x="209.39" y="84">t</tspan><tspan x="213.94" y="84">etuer adipiscing eli</tspan><tspan class="cls-9" x="324.27" y="84">t</tspan><tspan x="328.87" y="84">, sed diam nonum</tspan><tspan class="cls-13" x="433.33" y="84">m</tspan><tspan x="444.82" y="84">y nibh euismod tincidu</tspan><tspan class="cls-14" x="578.74" y="84">n</tspan><tspan x="586.46" y="84">t ut lao</tspan><tspan class="cls-15" x="627.11" y="84">r</tspan><tspan x="631.55" y="84">eet dolo</tspan><tspan class="cls-16" x="679.75" y="84">r</tspan><tspan x="684.19" y="84">e ma</tspan><tspan class="cls-11" x="712.59" y="84">g</tspan><tspan x="720.34" y="84">na </tspan><tspan x="0" y="100.8">aliquam e</tspan><tspan class="cls-17" x="57.33" y="100.8">r</tspan><tspan class="cls-18" x="61.84" y="100.8">a</tspan><tspan x="68.53" y="100.8">t </tspan><tspan class="cls-16" x="76.13" y="100.8">v</tspan><tspan x="82.72" y="100.8">olutp</tspan><tspan class="cls-18" x="114.03" y="100.8">a</tspan><tspan class="cls-9" x="120.72" y="100.8">t</tspan><tspan x="125.31" y="100.8">. </tspan><tspan class="cls-19" x="131.18" y="100.8">U</tspan><tspan x="140.29" y="100.8">t wisi enim ad minim </tspan><tspan class="cls-8" x="264.22" y="100.8">v</tspan><tspan x="270.81" y="100.8">eniam, quis nostrud </tspan><tspan class="cls-9" x="389.33" y="100.8">e</tspan><tspan class="cls-20" x="396.3" y="100.8">x</tspan><tspan x="402.58" y="100.8">e</tspan><tspan class="cls-16" x="409.59" y="100.8">r</tspan><tspan x="414.03" y="100.8">ci t</tspan><tspan class="cls-21" x="431.18" y="100.8">a</tspan><tspan class="cls-22" x="437.87" y="100.8">tion ullam</tspan><tspan class="cls-23" x="496.95" y="100.8">c</tspan><tspan x="503.14" y="100.8">o</tspan><tspan class="cls-24" x="510.82" y="100.8">r</tspan><tspan x="515.46" y="100.8">per suscipit lobo</tspan><tspan class="cls-25" x="611.82" y="100.8">r</tspan><tspan x="616.73" y="100.8">tis nisl ut aliquip </tspan><tspan class="cls-9" x="714.46" y="100.8">e</tspan><tspan x="721.43" y="100.8">x ea </tspan><tspan class="cls-11" x="0" y="117.6">c</tspan><tspan x="6.19" y="117.6">ommodo </tspan><tspan class="cls-11" x="63.46" y="117.6">c</tspan><tspan x="69.65" y="117.6">onsequ</tspan><tspan class="cls-18" x="113.26" y="117.6">a</tspan><tspan class="cls-26" x="119.95" y="117.6">t</tspan><tspan x="124.54" y="117.6">.</tspan><tspan class="cls-7" x="0" y="134.4">L</tspan><tspan x="6.41" y="134.4">o</tspan><tspan class="cls-8" x="14.1" y="134.4">r</tspan><tspan x="18.54" y="134.4">em ipsum dolor sit ame</tspan><tspan class="cls-9" x="155.31" y="134.4">t</tspan><tspan class="cls-10" x="159.9" y="134.4">, </tspan><tspan class="cls-11" x="165.77" y="134.4">c</tspan><tspan x="171.96" y="134.4">onse</tspan><tspan class="cls-12" x="199.97" y="134.4">c</tspan><tspan class="cls-11" x="206.43" y="134.4">t</tspan><tspan x="210.98" y="134.4">etuer adipiscing eli</tspan><tspan class="cls-9" x="321.31" y="134.4">t</tspan><tspan x="325.9" y="134.4">, sed diam nonum</tspan><tspan class="cls-13" x="430.36" y="134.4">m</tspan><tspan x="441.86" y="134.4">y nibh euismod tincidu</tspan><tspan class="cls-14" x="575.78" y="134.4">n</tspan><tspan x="583.49" y="134.4">t ut lao</tspan><tspan class="cls-15" x="624.15" y="134.4">r</tspan><tspan x="628.58" y="134.4">eet dolo</tspan><tspan class="cls-16" x="676.78" y="134.4">r</tspan><tspan x="681.22" y="134.4">e ma</tspan><tspan class="cls-11" x="709.63" y="134.4">g</tspan><tspan x="717.37" y="134.4">na </tspan><tspan x="0" y="151.2">aliquam e</tspan><tspan class="cls-17" x="57.33" y="151.2">r</tspan><tspan class="cls-18" x="61.84" y="151.2">a</tspan><tspan x="68.53" y="151.2">t </tspan><tspan class="cls-16" x="76.13" y="151.2">v</tspan><tspan x="82.72" y="151.2">olutp</tspan><tspan class="cls-18" x="114.03" y="151.2">a</tspan><tspan class="cls-9" x="120.72" y="151.2">t</tspan><tspan x="125.31" y="151.2">. </tspan><tspan class="cls-19" x="131.18" y="151.2">U</tspan><tspan x="140.29" y="151.2">t wisi enim ad minim </tspan><tspan class="cls-8" x="264.22" y="151.2">v</tspan><tspan x="270.81" y="151.2">eniam, quis nostrud </tspan><tspan class="cls-9" x="389.33" y="151.2">e</tspan><tspan class="cls-20" x="396.3" y="151.2">x</tspan><tspan x="402.58" y="151.2">e</tspan><tspan class="cls-16" x="409.59" y="151.2">r</tspan><tspan x="414.03" y="151.2">ci t</tspan><tspan class="cls-21" x="431.18" y="151.2">a</tspan><tspan class="cls-22" x="437.87" y="151.2">tion ullam</tspan><tspan class="cls-23" x="496.95" y="151.2">c</tspan><tspan x="503.14" y="151.2">o</tspan><tspan class="cls-24" x="510.82" y="151.2">r</tspan><tspan x="515.46" y="151.2">per suscipit lobo</tspan><tspan class="cls-25" x="611.82" y="151.2">r</tspan><tspan x="616.73" y="151.2">tis nisl ut aliquip </tspan><tspan class="cls-9" x="714.46" y="151.2">e</tspan><tspan x="721.43" y="151.2">x ea </tspan><tspan class="cls-11" x="0" y="168">c</tspan><tspan x="6.19" y="168">ommodo </tspan><tspan class="cls-11" x="63.46" y="168">c</tspan><tspan x="69.65" y="168">onsequ</tspan><tspan class="cls-18" x="113.26" y="168">a</tspan><tspan class="cls-26" x="119.95" y="168">t</tspan><tspan x="124.54" y="168">. </tspan><tspan class="cls-27" x="130.41" y="168">D</tspan><tspan x="139.77" y="168">uis au</tspan><tspan class="cls-11" x="173.74" y="168">t</tspan><tspan x="178.29" y="168">em </tspan><tspan class="cls-8" x="199.94" y="168">v</tspan><tspan x="206.54" y="168">el eum i</tspan><tspan class="cls-19" x="252.47" y="168">r</tspan><tspan x="257.1" y="168">iu</tspan><tspan class="cls-8" x="268.09" y="168">r</tspan><tspan x="272.53" y="168">e dolor in hend</tspan><tspan class="cls-8" x="361.1" y="168">r</tspan><tspan x="365.53" y="168">e</tspan><tspan class="cls-28" x="372.55" y="168">r</tspan><tspan x="377.18" y="168">it in vulput</tspan><tspan class="cls-14" x="440.14" y="168">a</tspan><tspan class="cls-11" x="446.83" y="168">t</tspan><tspan x="451.38" y="168">e </tspan><tspan class="cls-15" x="461.36" y="168">v</tspan><tspan x="467.95" y="168">elit esse molestie </tspan><tspan class="cls-23" x="570.35" y="168">c</tspan><tspan x="576.53" y="168">onsequ</tspan><tspan class="cls-14" x="620.14" y="168">a</tspan><tspan class="cls-9" x="626.83" y="168">t</tspan><tspan x="631.43" y="168">, </tspan><tspan class="cls-16" x="637.29" y="168">v</tspan><tspan x="643.89" y="168">el illum dolo</tspan><tspan class="cls-16" x="715.98" y="168">r</tspan><tspan x="720.42" y="168">e eu </tspan><tspan class="cls-13" x="0" y="184.8">f</tspan><tspan x="3.91" y="184.8">eu</tspan><tspan class="cls-11" x="18.63" y="184.8">g</tspan><tspan x="26.38" y="184.8">i</tspan><tspan class="cls-18" x="29.65" y="184.8">a</tspan><tspan x="36.34" y="184.8">t nulla facilisis </tspan><tspan class="cls-18" x="120.05" y="184.8">a</tspan><tspan x="126.74" y="184.8">t </tspan><tspan class="cls-16" x="134.34" y="184.8">v</tspan><tspan x="140.93" y="184.8">e</tspan><tspan class="cls-8" x="147.95" y="184.8">r</tspan><tspan x="152.39" y="184.8">o e</tspan><tspan class="cls-16" x="170.05" y="184.8">r</tspan><tspan x="174.49" y="184.8">os et a</tspan><tspan class="cls-11" x="212.05" y="184.8">c</tspan><tspan x="218.24" y="184.8">cumsan et ius</tspan><tspan class="cls-11" x="298.08" y="184.8">t</tspan><tspan x="302.63" y="184.8">o odio di</tspan><tspan class="cls-11" x="353.97" y="184.8">g</tspan><tspan x="361.71" y="184.8">nissim qui blandit p</tspan><tspan class="cls-29" x="476.13" y="184.8">r</tspan><tspan x="480.64" y="184.8">aese</tspan><tspan class="cls-21" x="506.96" y="184.8">n</tspan><tspan x="514.67" y="184.8">t lupt</tspan><tspan class="cls-14" x="545.89" y="184.8">a</tspan><tspan x="552.58" y="184.8">tum zz</tspan><tspan class="cls-24" x="591.56" y="184.8">r</tspan><tspan x="596.19" y="184.8">il delenit augue duis dolo</tspan><tspan class="cls-16" x="743.56" y="184.8">r</tspan><tspan x="748" y="184.8">e </tspan><tspan class="cls-11" x="757.98" y="184.8">t</tspan><tspan x="762.53" y="184.8">e </tspan><tspan class="cls-13" x="0" y="201.6">f</tspan><tspan x="3.91" y="201.6">eugait nulla facilisi.</tspan><tspan class="cls-7" x="0" y="218.4">L</tspan><tspan x="6.41" y="218.4">o</tspan><tspan class="cls-8" x="14.1" y="218.4">r</tspan><tspan x="18.54" y="218.4">em ipsum dolor sit ame</tspan><tspan class="cls-9" x="155.31" y="218.4">t</tspan><tspan class="cls-10" x="159.9" y="218.4">, </tspan><tspan class="cls-11" x="165.77" y="218.4">c</tspan><tspan x="171.96" y="218.4">ons e</tspan><tspan class="cls-12" x="202.94" y="218.4">c</tspan><tspan class="cls-11" x="209.39" y="218.4">t</tspan><tspan x="213.94" y="218.4">etuer adipiscing eli</tspan><tspan class="cls-9" x="324.27" y="218.4">t</tspan><tspan x="328.87" y="218.4">, sed diam nonum</tspan><tspan class="cls-13" x="433.33" y="218.4">m</tspan><tspan x="444.82" y="218.4">y nibh euismod tincidu</tspan><tspan class="cls-14" x="578.74" y="218.4">n</tspan><tspan x="586.46" y="218.4">t ut lao</tspan><tspan class="cls-15" x="627.11" y="218.4">r</tspan><tspan x="631.55" y="218.4">eet dolo</tspan><tspan class="cls-16" x="679.75" y="218.4">r</tspan><tspan x="684.19" y="218.4">e ma</tspan><tspan class="cls-11" x="712.59" y="218.4">g</tspan><tspan x="720.34" y="218.4">na </tspan><tspan x="0" y="235.2">aliquam e</tspan><tspan class="cls-17" x="57.33" y="235.2">r</tspan><tspan class="cls-18" x="61.84" y="235.2">a</tspan><tspan x="68.53" y="235.2">t </tspan><tspan class="cls-16" x="76.13" y="235.2">v</tspan><tspan x="82.72" y="235.2">olutp</tspan><tspan class="cls-18" x="114.03" y="235.2">a</tspan><tspan class="cls-9" x="120.72" y="235.2">t</tspan><tspan x="125.31" y="235.2">. </tspan><tspan class="cls-19" x="131.18" y="235.2">U</tspan><tspan x="140.29" y="235.2">t wisi enim ad minim </tspan><tspan class="cls-8" x="264.22" y="235.2">v</tspan><tspan x="270.81" y="235.2">eniam, quis nostrud </tspan><tspan class="cls-9" x="389.33" y="235.2">e</tspan><tspan class="cls-20" x="396.3" y="235.2">x</tspan><tspan x="402.58" y="235.2">e</tspan><tspan class="cls-16" x="409.59" y="235.2">r</tspan><tspan x="414.03" y="235.2">ci t</tspan><tspan class="cls-21" x="431.18" y="235.2">a</tspan><tspan class="cls-22" x="437.87" y="235.2">tion ullam</tspan><tspan class="cls-23" x="496.95" y="235.2">c</tspan><tspan x="503.14" y="235.2">o</tspan><tspan class="cls-24" x="510.82" y="235.2">r</tspan><tspan x="515.46" y="235.2">per suscipit lobo</tspan><tspan class="cls-25" x="611.82" y="235.2">r</tspan><tspan x="616.73" y="235.2">tis nisl ut aliquip </tspan><tspan class="cls-9" x="714.46" y="235.2">e</tspan><tspan x="721.43" y="235.2">x ea </tspan><tspan class="cls-11" x="0" y="252">c</tspan><tspan x="6.19" y="252">ommodo </tspan><tspan class="cls-11" x="63.46" y="252">c</tspan><tspan x="69.65" y="252">onsequ</tspan><tspan class="cls-18" x="113.26" y="252">a</tspan><tspan class="cls-26" x="119.95" y="252">t</tspan><tspan x="124.54" y="252">.</tspan><tspan class="cls-7" x="0" y="268.8">L</tspan><tspan x="6.41" y="268.8">o</tspan><tspan class="cls-8" x="14.1" y="268.8">r</tspan><tspan x="18.54" y="268.8">em ipsum dolor sit ame</tspan><tspan class="cls-9" x="155.31" y="268.8">t</tspan><tspan class="cls-10" x="159.9" y="268.8">, </tspan><tspan class="cls-11" x="165.77" y="268.8">c</tspan><tspan x="171.96" y="268.8">onse</tspan><tspan class="cls-12" x="199.97" y="268.8">c</tspan><tspan class="cls-11" x="206.43" y="268.8">t</tspan><tspan x="210.98" y="268.8">etuer adipiscing eli</tspan><tspan class="cls-9" x="321.31" y="268.8">t</tspan><tspan x="325.9" y="268.8">, sed diam nonum</tspan><tspan class="cls-13" x="430.36" y="268.8">m</tspan><tspan x="441.86" y="268.8">y nibh euismod tincidu</tspan><tspan class="cls-14" x="575.78" y="268.8">n</tspan><tspan x="583.49" y="268.8">t ut lao</tspan><tspan class="cls-15" x="624.15" y="268.8">r</tspan><tspan x="628.58" y="268.8">eet dolo</tspan><tspan class="cls-16" x="676.78" y="268.8">r</tspan><tspan x="681.22" y="268.8">e ma</tspan><tspan class="cls-11" x="709.63" y="268.8">g</tspan><tspan x="717.37" y="268.8">na </tspan><tspan x="0" y="285.6">aliquam e</tspan><tspan class="cls-17" x="57.33" y="285.6">r</tspan><tspan class="cls-18" x="61.84" y="285.6">a</tspan><tspan x="68.53" y="285.6">t </tspan><tspan class="cls-16" x="76.13" y="285.6">v</tspan><tspan x="82.72" y="285.6">olutp</tspan><tspan class="cls-18" x="114.03" y="285.6">a</tspan><tspan class="cls-9" x="120.72" y="285.6">t</tspan><tspan x="125.31" y="285.6">. </tspan><tspan class="cls-19" x="131.18" y="285.6">U</tspan><tspan x="140.29" y="285.6">t wisi enim ad minim </tspan><tspan class="cls-8" x="264.22" y="285.6">v</tspan><tspan x="270.81" y="285.6">eniam, quis nostrud </tspan><tspan class="cls-9" x="389.33" y="285.6">e</tspan><tspan class="cls-20" x="396.3" y="285.6">x</tspan><tspan x="402.58" y="285.6">e</tspan><tspan class="cls-16" x="409.59" y="285.6">r</tspan><tspan x="414.03" y="285.6">ci t</tspan><tspan class="cls-21" x="431.18" y="285.6">a</tspan><tspan class="cls-22" x="437.87" y="285.6">tion ullam</tspan><tspan class="cls-23" x="496.95" y="285.6">c</tspan><tspan x="503.14" y="285.6">o</tspan><tspan class="cls-24" x="510.82" y="285.6">r</tspan><tspan x="515.46" y="285.6">per suscipit lobo</tspan><tspan class="cls-25" x="611.82" y="285.6">r</tspan><tspan x="616.73" y="285.6">tis nisl ut aliquip </tspan><tspan class="cls-9" x="714.46" y="285.6">e</tspan><tspan x="721.43" y="285.6">x ea </tspan><tspan class="cls-11" x="0" y="302.4">c</tspan><tspan x="6.19" y="302.4">ommodo </tspan><tspan class="cls-11" x="63.46" y="302.4">c</tspan><tspan x="69.65" y="302.4">onsequ</tspan><tspan class="cls-18" x="113.26" y="302.4">a</tspan><tspan class="cls-26" x="119.95" y="302.4">t</tspan><tspan x="124.54" y="302.4">. </tspan><tspan class="cls-27" x="130.41" y="302.4">D</tspan><tspan x="139.77" y="302.4">uis au</tspan><tspan class="cls-11" x="173.74" y="302.4">t</tspan><tspan x="178.29" y="302.4">em </tspan><tspan class="cls-8" x="199.94" y="302.4">v</tspan><tspan x="206.54" y="302.4">el eum i</tspan><tspan class="cls-19" x="252.47" y="302.4">r</tspan><tspan x="257.1" y="302.4">iu</tspan><tspan class="cls-8" x="268.09" y="302.4">r</tspan><tspan x="272.53" y="302.4">e dolor in hend</tspan><tspan class="cls-8" x="361.1" y="302.4">r</tspan><tspan x="365.53" y="302.4">e</tspan><tspan class="cls-28" x="372.55" y="302.4">r</tspan><tspan x="377.18" y="302.4">it in vulput</tspan><tspan class="cls-14" x="440.14" y="302.4">a</tspan><tspan class="cls-11" x="446.83" y="302.4">t</tspan><tspan x="451.38" y="302.4">e </tspan><tspan class="cls-15" x="461.36" y="302.4">v</tspan><tspan x="467.95" y="302.4">elit esse molestie </tspan><tspan class="cls-23" x="570.35" y="302.4">c</tspan><tspan x="576.53" y="302.4">onsequ</tspan><tspan class="cls-14" x="620.14" y="302.4">a</tspan><tspan class="cls-9" x="626.83" y="302.4">t</tspan><tspan x="631.43" y="302.4">, </tspan><tspan class="cls-16" x="637.29" y="302.4">v</tspan><tspan x="643.89" y="302.4">el illum dolo</tspan><tspan class="cls-16" x="715.98" y="302.4">r</tspan><tspan x="720.42" y="302.4">e eu </tspan><tspan class="cls-13" x="0" y="319.2">f</tspan><tspan x="3.91" y="319.2">eu</tspan><tspan class="cls-11" x="18.63" y="319.2">g</tspan><tspan x="26.38" y="319.2">i</tspan><tspan class="cls-18" x="29.65" y="319.2">a</tspan><tspan x="36.34" y="319.2">t nulla facilisis </tspan><tspan class="cls-18" x="120.05" y="319.2">a</tspan><tspan x="126.74" y="319.2">t </tspan><tspan class="cls-16" x="134.34" y="319.2">v</tspan><tspan x="140.93" y="319.2">e</tspan><tspan class="cls-8" x="147.95" y="319.2">r</tspan><tspan x="152.39" y="319.2">o e</tspan><tspan class="cls-16" x="170.05" y="319.2">r</tspan><tspan x="174.49" y="319.2">os et a</tspan><tspan class="cls-11" x="212.05" y="319.2">c</tspan><tspan x="218.24" y="319.2">cumsan et ius</tspan><tspan class="cls-11" x="298.08" y="319.2">t</tspan><tspan x="302.63" y="319.2">o odio di</tspan><tspan class="cls-11" x="353.97" y="319.2">g</tspan><tspan x="361.71" y="319.2">nissim qui blandit p</tspan><tspan class="cls-29" x="476.13" y="319.2">r</tspan><tspan x="480.64" y="319.2">aese</tspan><tspan class="cls-21" x="506.96" y="319.2">n</tspan><tspan x="514.67" y="319.2">t lupt</tspan><tspan class="cls-14" x="545.89" y="319.2">a</tspan><tspan x="552.58" y="319.2">tum zz</tspan><tspan class="cls-24" x="591.56" y="319.2">r</tspan><tspan x="596.19" y="319.2">il delenit augue duis dolo</tspan><tspan class="cls-16" x="743.56" y="319.2">r</tspan><tspan x="748" y="319.2">e </tspan><tspan class="cls-11" x="757.98" y="319.2">t</tspan><tspan x="762.53" y="319.2">e </tspan><tspan class="cls-13" x="0" y="336">f</tspan><tspan x="3.91" y="336">eugait nulla facilisi.</tspan><tspan class="cls-7" x="0" y="352.8">L</tspan><tspan x="6.41" y="352.8">o</tspan><tspan class="cls-8" x="14.1" y="352.8">r</tspan><tspan x="18.54" y="352.8">em ipsum dolor sit ame</tspan><tspan class="cls-9" x="155.31" y="352.8">t</tspan><tspan class="cls-10" x="159.9" y="352.8">, </tspan><tspan class="cls-11" x="165.77" y="352.8">c</tspan><tspan x="171.96" y="352.8">ons e</tspan><tspan class="cls-12" x="202.94" y="352.8">c</tspan><tspan class="cls-11" x="209.39" y="352.8">t</tspan><tspan x="213.94" y="352.8">etuer adipiscing eli</tspan><tspan class="cls-9" x="324.27" y="352.8">t</tspan><tspan x="328.87" y="352.8">, sed diam nonum</tspan><tspan class="cls-13" x="433.33" y="352.8">m</tspan><tspan x="444.82" y="352.8">y nibh euismod tincidu</tspan><tspan class="cls-14" x="578.74" y="352.8">n</tspan><tspan x="586.46" y="352.8">t ut lao</tspan><tspan class="cls-15" x="627.11" y="352.8">r</tspan><tspan x="631.55" y="352.8">eet dolo</tspan><tspan class="cls-16" x="679.75" y="352.8">r</tspan><tspan x="684.19" y="352.8">e ma</tspan><tspan class="cls-11" x="712.59" y="352.8">g</tspan><tspan x="720.34" y="352.8">na </tspan></text><text class="cls-30" transform="translate(15.33 67.71)"><tspan class="cls-31">L</tspan><tspan x="9.16" y="0">o</tspan><tspan class="cls-8" x="20.14" y="0">r</tspan><tspan class="cls-32" x="26.48" y="0">em ipsum dolor </tspan></text><path class="cls-33" d="M19.86,257.39c51,1.29,102.43,2.51,152.87-6.36,21.42-3.76,42.87-9,62.48-18.64,16.4-8,32-19.42,41.56-35.28,22.88-37.93-1-83.2-34.65-105.14-35.05-22.84-81.45-24-115.9.59-16.1,11.5-28.92,27.79-34.91,46.78-6.42,20.38-4.34,43.11,9.58,59.92,12.52,15.11,31.65,23.21,49.92,29,22.88,7.19,46.49,12.24,70,16.7,48,9.08,96.64,14.89,144.42,25.28a531,531,0,0,1,69.68,19.69c20.25,7.4,41.55,16,57.4,31.11,15.2,14.49,22,34.42,18,55.14S493.67,415,476.44,427c-18.19,12.69-40,19.12-61.84,22-22,2.95-44.67,2.79-66.43-1.66-21.23-4.35-42-13-58.54-27.17a98.27,98.27,0,0,1-30.69-49c-4.88-18.41-4-38.55,5.14-55.53,9.54-17.78,26.15-30.1,44.2-38.37,19.08-8.74,39.87-13.17,60.5-16.36,23.05-3.56,46.34-5.22,69.62-6.35,46.22-2.25,92.78-2.2,138.55-9.83,22.22-3.71,44.18-9.33,65-17.94,18.93-7.81,38.46-17.7,51.86-33.66,6.39-7.6,11.22-16.58,12.91-26.44,2-11.41,0-23.07-3.87-33.86a113,113,0,0,0-32.55-46.69c-28.3-24.45-68.47-36.32-105-25.75-36.3,10.5-65.62,41.88-74.88,78.36-9.8,38.61,6.31,77.13,34.2,104,32.19,31,75.4,44.5,118.9,49.9,23.82,3,47.83,3.72,71.8,4.44,3.22.1,3.22-4.9,0-5-47.58-1.43-97.48-2.72-141.67-22.49-35.25-15.76-67.6-44.81-78-83.08-10.2-37.54,5.51-77.15,34.73-101.76,14.54-12.24,32.5-20.5,51.45-22.64a107.77,107.77,0,0,1,54.86,8.64,118.12,118.12,0,0,1,44.4,33.63c13.17,16.22,24.24,39,20.92,60.33-3.23,20.75-20.21,35.56-37.45,45.57-19.05,11.07-40.25,18.59-61.57,23.93-43.94,11-89.54,12.37-134.58,14.06-44.25,1.67-89.65,2.87-132.74,14.13-35.85,9.37-73.91,29.83-82.77,68.93-8.35,36.85,10.36,76,40,97.8,34.35,25.24,80.18,30.29,121.41,24.9,40.31-5.26,82.19-23.66,97.32-64.24,6.72-18,6.73-38.51-2.69-55.58-9.63-17.46-27-29.05-44.54-37.49-42-20.18-88.6-30.34-134.19-38.47-47.11-8.39-94.68-14.31-141.34-25.1-36.84-8.51-93-20.2-96-67-2.81-42.61,34.43-78.4,74.28-85.54,41.94-7.51,88.18,15.43,106.63,54,8.95,18.73,9.87,40.51-.64,58.81-9.3,16.2-25.26,27.43-41.82,35.34-19.62,9.37-41.19,14.33-62.53,17.93-25.14,4.24-50.65,5.93-76.12,6.45-24.28.49-48.56-.11-72.83-.72-3.22-.09-3.22,4.91,0,5Z"/></svg>