<svg xmlns="http://www.w3.org/2000/svg" xmlns:xlink="http://www.w3.org/1999/xlink" viewBox="0 0 800 500"><defs><style>.cls-1{fill:#e2e3e4;}.cls-2{fill:#f3f4f4;}.cls-3,.cls-51{fill:#ed1c24;}.cls-4{fill:#fbb040;}.cls-5,.cls-6{fill:#39b54a;}.cls-10,.cls-6{font-size:20px;}.cls-10,.cls-11,.cls-34,.cls-6{font-family:MyriadPro-Regular, Myriad Pro;}.cls-7{letter-spacing:-0.01em;}.cls-8{letter-spacing:-0.01em;}.cls-9{letter-spacing:0em;}.cls-10,.cls-11,.cls-34{fill:#231f20;}.cls-11{font-size:14px;}.cls-12{letter-spacing:-0.01em;}.cls-13{letter-spacing:0em;}.cls-14{letter-spacing:0em;}.cls-15{letter-spacing:-0.01em;}.cls-16{letter-spacing:0.01em;}.cls-17{letter-spacing:-0.01em;}.cls-18{letter-spacing:0em;}.cls-19{letter-spacing:-0.01em;}.cls-20{letter-spacing:-0.01em;}.cls-21{letter-spacing:0em;}.cls-22{letter-spacing:0em;}.cls-23{letter-spacing:0em;}.cls-24{letter-spacing:-0.01em;}.cls-25{letter-spacing:0em;}.cls-26{letter-spacing:0em;}.cls-27{letter-spacing:-0.01em;}.cls-28{letter-spacing:0em;}.cls-29{letter-spacing:0.02em;}.cls-30{letter-spacing:0em;}.cls-31{letter-spacing:0em;}.cls-32{letter-spacing:0em;}.cls-33{letter-spacing:0em;}.cls-34{font-size:16px;}.cls-35{letter-spacing:-0.01em;}.cls-36{letter-spacing:0em;}.cls-37{letter-spacing:0em;}.cls-38{letter-spacing:-0.01em;}.cls-39{letter-spacing:0.01em;}.cls-40{letter-spacing:-0.01em;}.cls-41{letter-spacing:-0.01em;}.cls-42{letter-spacing:0em;}.cls-43{letter-spacing:-0.01em;}.cls-44{letter-spacing:0em;}.cls-45{letter-spacing:0em;}.cls-46{letter-spacing:0em;}.cls-47{letter-spacing:0em;}.cls-48{letter-spacing:-0.02em;}.cls-49{letter-spacing:-0.01em;}.cls-50{letter-spacing:0em;}.cls-51{font-size:25px;font-family:BradleyHandITCTT-Bold, Bradley Hand;font-weight:700;}.cls-51,.cls-52{stroke:#ed1c24;}.cls-51,.cls-52,.cls-56,.cls-57,.cls-58,.cls-59,.cls-60,.cls-61,.cls-62,.cls-63,.cls-64{stroke-miterlimit:10;}.cls-52,.cls-56,.cls-57,.cls-58,.cls-59,.cls-60,.cls-61,.cls-62,.cls-63,.cls-64{fill:none;}.cls-52,.cls-56{stroke-width:3px;}.cls-53{font-size:18px;fill:#00a651;font-family:Chalkboard;}.cls-54{letter-spacing:-0.02em;}.cls-55{letter-spacing:-0.08em;}.cls-56{stroke:#231f20;}.cls-57,.cls-58,.cls-59,.cls-60,.cls-61,.cls-62,.cls-63,.cls-64{stroke-width:4px;}.cls-57{stroke:url(#Orange_Yellow);}.cls-58{stroke:url(#linear-gradient);}.cls-59{stroke:url(#Orange_Yellow-2);}.cls-60{stroke:url(#Orange_Yellow-3);}.cls-61{stroke:url(#Orange_Yellow-4);}.cls-62{stroke:url(#Orange_Yellow-5);}.cls-63{stroke:url(#Orange_Yellow-6);}.cls-64{stroke:url(#Orange_Yellow-7);}</style><linearGradient id="Orange_Yellow" x1="37.48" y1="203.23" x2="268.39" y2="203.23" gradientUnits="userSpaceOnUse"><stop offset="0" stop-color="#fff33b"/><stop offset="0.04" stop-color="#fee72e"/><stop offset="0.12" stop-color="#fed51b"/><stop offset="0.2" stop-color="#fdca10"/><stop offset="0.28" stop-color="#fdc70c"/><stop offset="0.67" stop-color="#f3903f"/><stop offset="0.89" stop-color="#ed683c"/><stop offset="1" stop-color="#e93e3a"/></linearGradient><linearGradient id="linear-gradient" x1="455.98" y1="42.96" x2="658.38" y2="42.96" gradientTransform="matrix(0.59, -0.81, 0.81, 0.59, 94.98, 570.34)" gradientUnits="userSpaceOnUse"><stop offset="0" stop-color="#253979"/><stop offset="0.02" stop-color="#20376f"/><stop offset="0.06" stop-color="#123254"/><stop offset="0.11" stop-color="#082e41"/><stop offset="0.16" stop-color="#022c36"/><stop offset="0.21" stop-color="#002b32"/><stop offset="0.53" stop-color="#009899"/><stop offset="0.89" stop-color="#ed683c"/><stop offset="1" stop-color="#e93e3a"/></linearGradient><linearGradient id="Orange_Yellow-2" x1="288.26" y1="372.87" x2="319.38" y2="372.87" xlink:href="#Orange_Yellow"/><linearGradient id="Orange_Yellow-3" x1="323.34" y1="374.06" x2="358.48" y2="374.06" xlink:href="#Orange_Yellow"/><linearGradient id="Orange_Yellow-4" x1="372.88" y1="373.54" x2="378.62" y2="373.54" xlink:href="#Orange_Yellow"/><linearGradient id="Orange_Yellow-5" x1="395.88" y1="373.51" x2="428.41" y2="373.51" xlink:href="#Orange_Yellow"/><linearGradient id="Orange_Yellow-6" x1="430.06" y1="374.09" x2="452.88" y2="374.09" xlink:href="#Orange_Yellow"/><linearGradient id="Orange_Yellow-7" x1="362.3" y1="369.21" x2="388.57" y2="369.21" xlink:href="#Orange_Yellow"/></defs><g id="Layer_1" data-name="Layer 1"><rect class="cls-1" width="800" height="500" rx="10"/><path class="cls-2" d="M0,31.39H800a0,0,0,0,1,0,0V490a10,10,0,0,1-10,10H10A10,10,0,0,1,0,490V31.39a0,0,0,0,1,0,0Z"/><circle class="cls-3" cx="19.6" cy="17.51" r="5.22"/><circle class="cls-4" cx="40.73" cy="17.35" r="5.22"/><circle class="cls-5" cx="61.79" cy="17.35" r="5.22"/><text class="cls-6" transform="translate(15.33 67.71)"><tspan class="cls-7">L</tspan><tspan x="9.16" y="0">o</tspan><tspan class="cls-8" x="20.14" y="0">r</tspan><tspan class="cls-9" x="26.48" y="0">em ipsum dolor </tspan></text><text class="cls-10" transform="translate(15.33 67.71)"><tspan class="cls-7">L</tspan><tspan x="9.16" y="0">o</tspan><tspan class="cls-8" x="20.14" y="0">r</tspan><tspan class="cls-9" x="26.48" y="0">em ipsum dolor </tspan></text><text class="cls-11" transform="translate(27.98 112.99)"><tspan class="cls-12">L</tspan><tspan x="6.41" y="0">o</tspan><tspan class="cls-8" x="14.1" y="0">r</tspan><tspan x="18.54" y="0">em ipsum dolor sit ame</tspan><tspan class="cls-13" x="155.31" y="0">t</tspan><tspan class="cls-14" x="159.9" y="0">, </tspan><tspan class="cls-15" x="165.77" y="0">c</tspan><tspan x="171.96" y="0">onse</tspan><tspan class="cls-16" x="199.97" y="0">c</tspan><tspan class="cls-15" x="206.43" y="0">t</tspan><tspan x="210.98" y="0">etuer adipiscing eli</tspan><tspan class="cls-13" x="321.31" y="0">t</tspan><tspan x="325.9" y="0">, sed diam nonum</tspan><tspan class="cls-17" x="430.36" y="0">m</tspan><tspan x="441.86" y="0">y nibh euismod tincidu</tspan><tspan class="cls-18" x="575.78" y="0">n</tspan><tspan x="583.49" y="0">t ut lao</tspan><tspan class="cls-19" x="624.15" y="0">r</tspan><tspan x="628.58" y="0">eet dolo</tspan><tspan class="cls-20" x="676.78" y="0">r</tspan><tspan x="681.22" y="0">e ma</tspan><tspan class="cls-15" x="709.63" y="0">g</tspan><tspan x="717.37" y="0">na </tspan><tspan x="0" y="16.8">aliquam e</tspan><tspan class="cls-21" x="57.33" y="16.8">r</tspan><tspan class="cls-22" x="61.84" y="16.8">a</tspan><tspan x="68.53" y="16.8">t </tspan><tspan class="cls-20" x="76.13" y="16.8">v</tspan><tspan x="82.72" y="16.8">olutp</tspan><tspan class="cls-22" x="114.03" y="16.8">a</tspan><tspan class="cls-13" x="120.72" y="16.8">t</tspan><tspan x="125.31" y="16.8">. </tspan><tspan class="cls-23" x="131.18" y="16.8">U</tspan><tspan x="140.29" y="16.8">t wisi enim ad minim </tspan><tspan class="cls-8" x="264.22" y="16.8">v</tspan><tspan x="270.81" y="16.8">eniam, quis nostrud </tspan><tspan class="cls-13" x="389.33" y="16.8">e</tspan><tspan class="cls-24" x="396.3" y="16.8">x</tspan><tspan x="402.58" y="16.8">e</tspan><tspan class="cls-20" x="409.59" y="16.8">r</tspan><tspan x="414.03" y="16.8">ci t</tspan><tspan class="cls-25" x="431.18" y="16.8">a</tspan><tspan class="cls-26" x="437.87" y="16.8">tion ullam</tspan><tspan class="cls-27" x="496.95" y="16.8">c</tspan><tspan x="503.14" y="16.8">o</tspan><tspan class="cls-28" x="510.82" y="16.8">r</tspan><tspan x="515.46" y="16.8">per suscipit lobo</tspan><tspan class="cls-29" x="611.82" y="16.8">r</tspan><tspan x="616.73" y="16.8">tis nisl ut aliquip </tspan><tspan class="cls-13" x="714.46" y="16.8">e</tspan><tspan x="721.43" y="16.8">x ea </tspan><tspan class="cls-15" x="0" y="33.6">c</tspan><tspan x="6.19" y="33.6">ommodo </tspan><tspan class="cls-15" x="63.46" y="33.6">c</tspan><tspan x="69.65" y="33.6">onsequ</tspan><tspan class="cls-22" x="113.26" y="33.6">a</tspan><tspan class="cls-30" x="119.95" y="33.6">t</tspan><tspan x="124.54" y="33.6">. </tspan><tspan class="cls-31" x="130.41" y="33.6">D</tspan><tspan x="139.77" y="33.6">uis au</tspan><tspan class="cls-15" x="173.74" y="33.6">t</tspan><tspan x="178.29" y="33.6">em </tspan><tspan class="cls-8" x="199.94" y="33.6">v</tspan><tspan x="206.54" y="33.6">el eum i</tspan><tspan class="cls-23" x="252.47" y="33.6">r</tspan><tspan x="257.1" y="33.6">iu</tspan><tspan class="cls-8" x="268.09" y="33.6">r</tspan><tspan x="272.53" y="33.6">e dolor in hend</tspan><tspan class="cls-8" x="361.1" y="33.6">r</tspan><tspan x="365.53" y="33.6">e</tspan><tspan class="cls-32" x="372.55" y="33.6">r</tspan><tspan x="377.18" y="33.6">it in vulput</tspan><tspan class="cls-18" x="440.14" y="33.6">a</tspan><tspan class="cls-15" x="446.83" y="33.6">t</tspan><tspan x="451.38" y="33.6">e </tspan><tspan class="cls-19" x="461.36" y="33.6">v</tspan><tspan x="467.95" y="33.6">elit esse molestie </tspan><tspan class="cls-27" x="570.35" y="33.6">c</tspan><tspan x="576.53" y="33.6">onsequ</tspan><tspan class="cls-18" x="620.14" y="33.6">a</tspan><tspan class="cls-13" x="626.83" y="33.6">t</tspan><tspan x="631.43" y="33.6">, </tspan><tspan class="cls-20" x="637.29" y="33.6">v</tspan><tspan x="643.89" y="33.6">el illum dolo</tspan><tspan class="cls-20" x="715.98" y="33.6">r</tspan><tspan x="720.42" y="33.6">e eu </tspan><tspan class="cls-17" x="0" y="50.4">f</tspan><tspan x="3.91" y="50.4">eu</tspan><tspan class="cls-15" x="18.63" y="50.4">g</tspan><tspan x="26.38" y="50.4">i</tspan><tspan class="cls-22" x="29.65" y="50.4">a</tspan><tspan x="36.34" y="50.4">t nulla facilisis </tspan><tspan class="cls-22" x="120.05" y="50.4">a</tspan><tspan x="126.74" y="50.4">t </tspan><tspan class="cls-20" x="134.34" y="50.4">v</tspan><tspan x="140.93" y="50.4">e</tspan><tspan class="cls-8" x="147.95" y="50.4">r</tspan><tspan x="152.39" y="50.4">o e</tspan><tspan class="cls-20" x="170.05" y="50.4">r</tspan><tspan x="174.49" y="50.4">os et a</tspan><tspan class="cls-15" x="212.05" y="50.4">c</tspan><tspan x="218.24" y="50.4">cumsan et ius</tspan><tspan class="cls-15" x="298.08" y="50.4">t</tspan><tspan x="302.63" y="50.4">o odio di</tspan><tspan class="cls-15" x="353.97" y="50.4">g</tspan><tspan x="361.71" y="50.4">nissim qui blandit p</tspan><tspan class="cls-33" x="476.13" y="50.4">r</tspan><tspan x="480.64" y="50.4">aese</tspan><tspan class="cls-25" x="506.96" y="50.4">n</tspan><tspan x="514.67" y="50.4">t lupt</tspan><tspan class="cls-18" x="545.89" y="50.4">a</tspan><tspan x="552.58" y="50.4">tum zz</tspan><tspan class="cls-28" x="591.56" y="50.4">r</tspan><tspan x="596.19" y="50.4">il delenit augue duis dolo</tspan><tspan class="cls-20" x="743.56" y="50.4">r</tspan><tspan x="748" y="50.4">e </tspan><tspan class="cls-15" x="0" y="67.2">t</tspan><tspan x="4.55" y="67.2">e </tspan><tspan class="cls-17" x="14.53" y="67.2">f</tspan><tspan x="18.44" y="67.2">eugait nulla facilisi.</tspan></text><text class="cls-34" transform="translate(39.65 209.01)"><tspan class="cls-35">L</tspan><tspan class="cls-36" x="7.33" y="0">o</tspan><tspan class="cls-8" x="16.11" y="0">r</tspan><tspan x="21.18" y="0">em ipsum dolor sit ame</tspan><tspan class="cls-37" x="177.5" y="0">t</tspan><tspan x="182.75" y="0">, </tspan><tspan class="cls-38" x="189.45" y="0">c</tspan><tspan x="196.52" y="0">onse</tspan><tspan class="cls-39" x="228.54" y="0">c</tspan><tspan class="cls-40" x="235.92" y="0">t</tspan><tspan x="241.11" y="0">etuer adipiscing eli</tspan><tspan class="cls-37" x="367.21" y="0">t</tspan><tspan x="372.46" y="0">, sed diam nonum</tspan><tspan class="cls-41" x="491.85" y="0">m</tspan><tspan x="504.98" y="0">y nibh euismod tincidu</tspan><tspan class="cls-42" x="658.04" y="0">n</tspan><tspan x="666.85" y="0">t ut </tspan><tspan x="0" y="19.2">lao</tspan><tspan class="cls-43" x="20.27" y="19.2">r</tspan><tspan class="cls-44" x="25.34" y="19.2">eet dolo</tspan><tspan class="cls-43" x="80.43" y="19.2">r</tspan><tspan x="85.5" y="19.2">e ma</tspan><tspan class="cls-38" x="117.97" y="19.2">g</tspan><tspan x="126.81" y="19.2">na aliquam e</tspan><tspan class="cls-45" x="212.32" y="19.2">r</tspan><tspan class="cls-46" x="217.47" y="19.2">a</tspan><tspan x="225.12" y="19.2">t </tspan><tspan class="cls-43" x="233.8" y="19.2">v</tspan><tspan class="cls-44" x="241.34" y="19.2">olutp</tspan><tspan class="cls-42" x="277.11" y="19.2">a</tspan><tspan class="cls-37" x="284.76" y="19.2">t</tspan><tspan x="290.01" y="19.2">. </tspan><tspan class="cls-47" x="296.71" y="19.2">U</tspan><tspan x="307.13" y="19.2">t wisi enim ad minim </tspan><tspan class="cls-8" x="448.76" y="19.2">v</tspan><tspan x="456.29" y="19.2">eniam, quis nostrud </tspan><tspan class="cls-37" x="591.75" y="19.2">e</tspan><tspan class="cls-48" x="599.72" y="19.2">x</tspan><tspan x="606.88" y="19.2">e</tspan><tspan class="cls-49" x="614.9" y="19.2">r</tspan><tspan x="619.97" y="19.2">ci t</tspan><tspan class="cls-50" x="639.57" y="19.2">a</tspan><tspan x="647.22" y="19.2">tion ullam</tspan><tspan x="714.74" y="19.2">-</tspan></text><text class="cls-11" transform="translate(27.08 294.82)"><tspan class="cls-12">L</tspan><tspan x="6.41" y="0">o</tspan><tspan class="cls-8" x="14.1" y="0">r</tspan><tspan x="18.54" y="0">em ipsum dolor sit ame</tspan><tspan class="cls-13" x="155.31" y="0">t</tspan><tspan class="cls-14" x="159.9" y="0">, </tspan><tspan class="cls-15" x="165.77" y="0">c</tspan><tspan x="171.96" y="0">onse</tspan><tspan class="cls-16" x="199.97" y="0">c</tspan><tspan class="cls-15" x="206.43" y="0">t</tspan><tspan x="210.98" y="0">etuer adipiscing eli</tspan><tspan class="cls-13" x="321.31" y="0">t</tspan><tspan x="325.9" y="0">, sed diam nonum</tspan><tspan class="cls-17" x="430.36" y="0">m</tspan><tspan x="441.86" y="0">y nibh euismod tincidu</tspan><tspan class="cls-18" x="575.78" y="0">n</tspan><tspan x="583.49" y="0">t ut lao</tspan><tspan class="cls-19" x="624.15" y="0">r</tspan><tspan x="628.58" y="0">eet dolo</tspan><tspan class="cls-20" x="676.78" y="0">r</tspan><tspan x="681.22" y="0">e ma</tspan><tspan class="cls-15" x="709.63" y="0">g</tspan><tspan x="717.37" y="0">na </tspan><tspan x="0" y="16.8">aliquam e</tspan><tspan class="cls-21" x="57.33" y="16.8">r</tspan><tspan class="cls-22" x="61.84" y="16.8">a</tspan><tspan x="68.53" y="16.8">t </tspan><tspan class="cls-20" x="76.13" y="16.8">v</tspan><tspan x="82.72" y="16.8">olutp</tspan><tspan class="cls-22" x="114.03" y="16.8">a</tspan><tspan class="cls-13" x="120.72" y="16.8">t</tspan><tspan x="125.31" y="16.8">. </tspan><tspan class="cls-23" x="131.18" y="16.8">U</tspan><tspan x="140.29" y="16.8">t wisi enim ad minim </tspan><tspan class="cls-8" x="264.22" y="16.8">v</tspan><tspan x="270.81" y="16.8">eniam, quis nostrud </tspan><tspan class="cls-13" x="389.33" y="16.8">e</tspan><tspan class="cls-24" x="396.3" y="16.8">x</tspan><tspan x="402.58" y="16.8">e</tspan><tspan class="cls-20" x="409.59" y="16.8">r</tspan><tspan x="414.03" y="16.8">ci t</tspan><tspan class="cls-25" x="431.18" y="16.8">a</tspan><tspan class="cls-26" x="437.87" y="16.8">tion ullam</tspan><tspan class="cls-27" x="496.95" y="16.8">c</tspan><tspan x="503.14" y="16.8">o</tspan><tspan class="cls-28" x="510.82" y="16.8">r</tspan><tspan x="515.46" y="16.8">per suscipit lobo</tspan><tspan class="cls-29" x="611.82" y="16.8">r</tspan><tspan x="616.73" y="16.8">tis nisl ut aliquip </tspan><tspan class="cls-13" x="714.46" y="16.8">e</tspan><tspan x="721.43" y="16.8">x ea </tspan><tspan class="cls-15" x="0" y="33.6">c</tspan><tspan x="6.19" y="33.6">ommodo </tspan><tspan class="cls-15" x="63.46" y="33.6">c</tspan><tspan x="69.65" y="33.6">onsequ</tspan><tspan class="cls-22" x="113.26" y="33.6">a</tspan><tspan class="cls-30" x="119.95" y="33.6">t</tspan><tspan x="124.54" y="33.6">. </tspan><tspan class="cls-31" x="130.41" y="33.6">D</tspan><tspan x="139.77" y="33.6">uis au</tspan><tspan class="cls-15" x="173.74" y="33.6">t</tspan><tspan x="178.29" y="33.6">em </tspan><tspan class="cls-8" x="199.94" y="33.6">v</tspan><tspan x="206.54" y="33.6">el eum i</tspan><tspan class="cls-23" x="252.47" y="33.6">r</tspan><tspan x="257.1" y="33.6">iu</tspan><tspan class="cls-8" x="268.09" y="33.6">r</tspan><tspan x="272.53" y="33.6">e dolor in hend</tspan><tspan class="cls-8" x="361.1" y="33.6">r</tspan><tspan x="365.53" y="33.6">e</tspan><tspan class="cls-32" x="372.55" y="33.6">r</tspan><tspan x="377.18" y="33.6">it in vulput</tspan><tspan class="cls-18" x="440.14" y="33.6">a</tspan><tspan class="cls-15" x="446.83" y="33.6">t</tspan><tspan x="451.38" y="33.6">e </tspan><tspan class="cls-19" x="461.36" y="33.6">v</tspan><tspan x="467.95" y="33.6">elit esse molestie </tspan><tspan class="cls-27" x="570.35" y="33.6">c</tspan><tspan x="576.53" y="33.6">onsequ</tspan><tspan class="cls-18" x="620.14" y="33.6">a</tspan><tspan class="cls-13" x="626.83" y="33.6">t</tspan><tspan x="631.43" y="33.6">, </tspan><tspan class="cls-20" x="637.29" y="33.6">v</tspan><tspan x="643.89" y="33.6">el illum dolo</tspan><tspan class="cls-20" x="715.98" y="33.6">r</tspan><tspan x="720.42" y="33.6">e eu </tspan><tspan class="cls-17" x="0" y="50.4">f</tspan><tspan x="3.91" y="50.4">eu</tspan><tspan class="cls-15" x="18.63" y="50.4">g</tspan><tspan x="26.38" y="50.4">i</tspan><tspan class="cls-22" x="29.65" y="50.4">a</tspan><tspan x="36.34" y="50.4">t nulla facilisis </tspan><tspan class="cls-22" x="120.05" y="50.4">a</tspan><tspan x="126.74" y="50.4">t </tspan><tspan class="cls-20" x="134.34" y="50.4">v</tspan><tspan x="140.93" y="50.4">e</tspan><tspan class="cls-8" x="147.95" y="50.4">r</tspan><tspan x="152.39" y="50.4">o e</tspan><tspan class="cls-20" x="170.05" y="50.4">r</tspan><tspan x="174.49" y="50.4">os et a</tspan><tspan class="cls-15" x="212.05" y="50.4">c</tspan><tspan x="218.24" y="50.4">cumsan et ius</tspan><tspan class="cls-15" x="298.08" y="50.4">t</tspan><tspan x="302.63" y="50.4">o odio di</tspan><tspan class="cls-15" x="353.97" y="50.4">g</tspan><tspan x="361.71" y="50.4">nissim qui blandit p</tspan><tspan class="cls-33" x="476.13" y="50.4">r</tspan><tspan x="480.64" y="50.4">aese</tspan><tspan class="cls-25" x="506.96" y="50.4">n</tspan><tspan x="514.67" y="50.4">t lupt</tspan><tspan class="cls-18" x="545.89" y="50.4">a</tspan><tspan x="552.58" y="50.4">tum zz</tspan><tspan class="cls-28" x="591.56" y="50.4">r</tspan><tspan x="596.19" y="50.4">il delenit augue duis </tspan></text><text class="cls-11" transform="translate(27.08 409.48)"><tspan class="cls-12">L</tspan><tspan x="6.41" y="0">o</tspan><tspan class="cls-8" x="14.1" y="0">r</tspan><tspan x="18.54" y="0">em ipsum dolor sit ame</tspan><tspan class="cls-13" x="155.31" y="0">t</tspan><tspan class="cls-14" x="159.9" y="0">, </tspan><tspan class="cls-15" x="165.77" y="0">c</tspan><tspan x="171.96" y="0">onse</tspan><tspan class="cls-16" x="199.97" y="0">c</tspan><tspan class="cls-15" x="206.43" y="0">t</tspan><tspan x="210.98" y="0">etuer adipiscing eli</tspan><tspan class="cls-13" x="321.31" y="0">t</tspan><tspan x="325.9" y="0">, sed diam nonum</tspan><tspan class="cls-17" x="430.36" y="0">m</tspan><tspan x="441.86" y="0">y nibh euismod tincidu</tspan><tspan class="cls-18" x="575.78" y="0">n</tspan><tspan x="583.49" y="0">t ut lao</tspan><tspan class="cls-19" x="624.15" y="0">r</tspan><tspan x="628.58" y="0">eet dolo</tspan><tspan class="cls-20" x="676.78" y="0">r</tspan><tspan x="681.22" y="0">e ma</tspan><tspan class="cls-15" x="709.63" y="0">g</tspan><tspan x="717.37" y="0">na </tspan><tspan x="0" y="16.8">aliquam e</tspan><tspan class="cls-21" x="57.33" y="16.8">r</tspan><tspan class="cls-22" x="61.84" y="16.8">a</tspan><tspan x="68.53" y="16.8">t </tspan><tspan class="cls-20" x="76.13" y="16.8">v</tspan><tspan x="82.72" y="16.8">olutp</tspan><tspan class="cls-22" x="114.03" y="16.8">a</tspan><tspan class="cls-13" x="120.72" y="16.8">t</tspan><tspan x="125.31" y="16.8">. </tspan><tspan class="cls-23" x="131.18" y="16.8">U</tspan><tspan x="140.29" y="16.8">t wisi enim ad minim </tspan><tspan class="cls-8" x="264.22" y="16.8">v</tspan><tspan x="270.81" y="16.8">eniam, quis nostrud </tspan><tspan class="cls-13" x="389.33" y="16.8">e</tspan><tspan class="cls-24" x="396.3" y="16.8">x</tspan><tspan x="402.58" y="16.8">e</tspan><tspan class="cls-20" x="409.59" y="16.8">r</tspan><tspan x="414.03" y="16.8">ci t</tspan><tspan class="cls-25" x="431.18" y="16.8">a</tspan><tspan class="cls-26" x="437.87" y="16.8">tion ullam</tspan><tspan class="cls-27" x="496.95" y="16.8">c</tspan><tspan x="503.14" y="16.8">o</tspan><tspan class="cls-28" x="510.82" y="16.8">r</tspan><tspan x="515.46" y="16.8">per suscipit lobo</tspan><tspan class="cls-29" x="611.82" y="16.8">r</tspan><tspan x="616.73" y="16.8">tis nisl ut aliquip </tspan><tspan class="cls-13" x="714.46" y="16.8">e</tspan><tspan x="721.43" y="16.8">x ea </tspan><tspan class="cls-15" x="0" y="33.6">c</tspan><tspan x="6.19" y="33.6">ommodo </tspan><tspan class="cls-15" x="63.46" y="33.6">c</tspan><tspan x="69.65" y="33.6">onsequ</tspan><tspan class="cls-22" x="113.26" y="33.6">a</tspan><tspan class="cls-30" x="119.95" y="33.6">t</tspan><tspan x="124.54" y="33.6">. </tspan><tspan class="cls-31" x="130.41" y="33.6">D</tspan><tspan x="139.77" y="33.6">uis au</tspan><tspan class="cls-15" x="173.74" y="33.6">t</tspan><tspan x="178.29" y="33.6">em </tspan><tspan class="cls-8" x="199.94" y="33.6">v</tspan><tspan x="206.54" y="33.6">el eum i</tspan><tspan class="cls-23" x="252.47" y="33.6">r</tspan><tspan x="257.1" y="33.6">iu</tspan><tspan class="cls-8" x="268.09" y="33.6">r</tspan><tspan x="272.53" y="33.6">e dolor in hend</tspan><tspan class="cls-8" x="361.1" y="33.6">r</tspan><tspan x="365.53" y="33.6">e</tspan><tspan class="cls-32" x="372.55" y="33.6">r</tspan><tspan x="377.18" y="33.6">it in vulput</tspan><tspan class="cls-18" x="440.14" y="33.6">a</tspan><tspan class="cls-15" x="446.83" y="33.6">t</tspan><tspan x="451.38" y="33.6">e </tspan><tspan class="cls-19" x="461.36" y="33.6">v</tspan><tspan x="467.95" y="33.6">elit esse molestie </tspan><tspan class="cls-27" x="570.35" y="33.6">c</tspan><tspan x="576.53" y="33.6">onsequ</tspan><tspan class="cls-18" x="620.14" y="33.6">a</tspan><tspan class="cls-13" x="626.83" y="33.6">t</tspan><tspan x="631.43" y="33.6">, </tspan><tspan class="cls-20" x="637.29" y="33.6">v</tspan><tspan x="643.89" y="33.6">el illum dolo</tspan><tspan class="cls-20" x="715.98" y="33.6">r</tspan><tspan x="720.42" y="33.6">e eu </tspan><tspan class="cls-17" x="0" y="50.4">f</tspan><tspan x="3.91" y="50.4">eu</tspan><tspan class="cls-15" x="18.63" y="50.4">g</tspan><tspan x="26.38" y="50.4">i</tspan><tspan class="cls-22" x="29.65" y="50.4">a</tspan><tspan x="36.34" y="50.4">t nulla facilisis </tspan><tspan class="cls-22" x="120.05" y="50.4">a</tspan><tspan x="126.74" y="50.4">t </tspan><tspan class="cls-20" x="134.34" y="50.4">v</tspan><tspan x="140.93" y="50.4">e</tspan><tspan class="cls-8" x="147.95" y="50.4">r</tspan><tspan x="152.39" y="50.4">o e</tspan><tspan class="cls-20" x="170.05" y="50.4">r</tspan><tspan x="174.49" y="50.4">os et a</tspan><tspan class="cls-15" x="212.05" y="50.4">c</tspan><tspan x="218.24" y="50.4">cumsan et ius</tspan><tspan class="cls-15" x="298.08" y="50.4">t</tspan><tspan x="302.63" y="50.4">o odio di</tspan><tspan class="cls-15" x="353.97" y="50.4">g</tspan><tspan x="361.71" y="50.4">nissim qui blandit p</tspan><tspan class="cls-33" x="476.13" y="50.4">r</tspan><tspan x="480.64" y="50.4">aese</tspan><tspan class="cls-25" x="506.96" y="50.4">n</tspan><tspan x="514.67" y="50.4">t lupt</tspan><tspan class="cls-18" x="545.89" y="50.4">a</tspan><tspan x="552.58" y="50.4">tum zz</tspan><tspan class="cls-28" x="591.56" y="50.4">r</tspan><tspan x="596.19" y="50.4">il delenit augue duis </tspan></text></g><g id="Paths"><text class="cls-51" transform="translate(44.47 373.54)">interesting!</text><path class="cls-52" d="M46.25,435.71c1.15,20.15,77,25.42,116.42,25.42,40,0,114.56-7.84,114.56-27.75,0-29.13-76.94-34.21-118.07-33.82-30.82.29-115.94,2.26-112.91,36.15"/><line class="cls-52" x1="152.23" y1="399.65" x2="116.63" y2="380.26"/><text class="cls-53" transform="translate(312.98 253.44)">TEXT<tspan class="cls-54" x="42.13" y="0">B</tspan><tspan class="cls-55" x="52.03" y="0">O</tspan><tspan x="63.65" y="0">X</tspan></text><rect class="cls-56" x="284.46" y="219.48" width="144.05" height="55.17" rx="6"/><path class="cls-57" d="M39.65,103.05s15,19.59,22.54,20.51C75.56,125.19,108,96.36,109.6,98c5.15,5.1-74,58.43-68.78,63.85,4.56,4.71,85.62-44.34,100-53.53,6-3.83,7-1.69,7.24-1.45,10.51,9.87-113.74,83.73-108.37,90.83,5.65,7.45,149.2-94.26,156.35-84.6,3.26,4.41-153.38,111.79-147.88,118.5,9.28,11.31,182.2-111.34,188.38-103.1,3.09,4.11-192.71,128.76-183.35,142.66,5.21,7.72,189.91-125.4,197.72-114.9,5.21,7-178.76,117.92-170,128.67C89.52,295.41,254,184.7,260.59,188.61c8.5,5-147.51,106.37-140,115.66,4,5,136.48-86,145.62-75.54,5,5.69-97.28,67.49-91.3,73.71,3.83,4,30-22.47,50.36-17.56,10.9,2.63,26.17,24.54,26.17,24.54"/><path class="cls-58" d="M302.13,155.54s32-.82,37.2-6.42c9.15-9.88,7.71-23.69,9.94-24.06,7.14-1.19,2.16,51.88,9.61,50.8,6.49-.93,7.65-74.64,14-74.47,7.74.2,5,86.66,13.88,86.45,9.35-.21,5.09-104.63,17.1-104.77,5.49-.07,6.35,118.53,15,118,14.59-.9,3.31-124.59,13.61-124.78,5.14-.1,3,130.19,19.79,130.73,9.31.3-2-135.18,11.11-135.35,8.75-.12,5.56,138.61,19.42,137.77,13.58-.82,7.34-139.7,15-139.31,9.65.49,6.93,128.17,18.86,127.52,6.43-.36,5-109.63,18.86-110.89,7.52-.69,4.25,100.76,12.8,99.56,5.48-.77,11.94-81.85,19.94-83.27,8.63-1.54,12,69.14,12,69.14"/><path class="cls-52" d="M460,294.21c1,9.25,69.07,11.67,104.48,11.67,35.87,0,102.81-3.6,102.81-12.74,0-13.37-69-15.7-106-15.52-27.66.13-104,1-101.33,16.59"/></g><g id="Notes"><path class="cls-59" d="M292.11,392.54c-3.63-28.54-.88-32.39-.44-36.34,1.26-11.22,16.28,36.32,22.34,35,4.05-.87,3.77-18.72,2.62-35.91"/><path class="cls-60" d="M340.23,359.65C351,358,357,368.32,356.44,376.71c-.57,8.11-6.89,13.73-17.09,11.4-6.11-1.39-14.13-6.72-14-14.45S333.73,360.65,340.23,359.65Z"/><path class="cls-61" d="M376.63,390.4q-.88-16.86-1.76-33.72"/><path class="cls-62" d="M406.29,374.92c6.72-2.52,14.42-6,14-8.76-.55-3.82-16.5-7.7-21-1.75-3.86,5.09.51,17.55,9.64,20.58,6,2,13.23-.41,17.95-6.13"/><path class="cls-63" d="M451,360.83c-14,3.32-17.19,5.32-17.08,6.57.21,2.35,12,1.08,15.76,7.88,1.7,3.05,1.58,7.3-.43,9.64-3,3.45-10.81,3.45-18-2.19"/><path class="cls-64" d="M362.47,370.46c8.61-.73,16.9-3.39,25.83-2.19"/></g></svg>