<svg xmlns="http://www.w3.org/2000/svg" xmlns:xlink="http://www.w3.org/1999/xlink" width="1819" height="958"
    viewBox="0 0 1819 958">
    <defs>
        <style>
            .cls-1 {
                fill: url(#Red_Purple_Blue);
            }

            .cls-2 {
                fill: #fafafa;
            }

            .cls-3 {
                fill: #f0f0f0;
            }

            .cls-4 {
                fill: #ed1c24;
            }

            .cls-5 {
                fill: #fbb03b;
            }

            .cls-6 {
                fill: #39b54a;
            }

            .cls-7 {
                fill: #fdb913;
            }

            .cls-8 {
                fill: #b72467;
            }

            .cls-9 {
                fill: #6dc8bf;
            }

            .cls-10 {
                stroke: #000;
                stroke-miterlimit: 10;
                stroke-width: 4px;
            }

            .cls-11 {
                font-size: 40px;
            }

            .cls-11,
            .cls-26,
            .cls-69 {
                font-family: MyriadPro-Regular, Myriad Pro;
            }

            .cls-12 {
                letter-spacing: 0em;
            }

            .cls-13 {
                letter-spacing: -0.01em;
            }

            .cls-14 {
                letter-spacing: 0em;
            }

            .cls-15 {
                letter-spacing: 0em;
            }

            .cls-16 {
                letter-spacing: 0.01em;
            }

            .cls-17 {
                letter-spacing: 0em;
            }

            .cls-18 {
                letter-spacing: -0.01em;
            }

            .cls-19 {
                letter-spacing: 0em;
            }

            .cls-20 {
                letter-spacing: 0em;
            }

            .cls-21 {
                letter-spacing: -0.01em;
            }

            .cls-22 {
                letter-spacing: 0em;
            }

            .cls-23 {
                letter-spacing: 0.02em;
            }

            .cls-24 {
                letter-spacing: 0.02em;
            }

            .cls-25 {
                letter-spacing: 0em;
            }

            .cls-26 {
                font-size: 33px;
            }

            .cls-27 {
                letter-spacing: -0.01em;
            }

            .cls-28 {
                letter-spacing: 0em;
            }

            .cls-29 {
                letter-spacing: 0.01em;
            }

            .cls-30 {
                letter-spacing: 0em;
            }

            .cls-31 {
                letter-spacing: -0.01em;
            }

            .cls-32 {
                letter-spacing: -0.01em;
            }

            .cls-33 {
                letter-spacing: -0.01em;
            }

            .cls-34 {
                letter-spacing: 0em;
            }

            .cls-35 {
                letter-spacing: 0em;
            }

            .cls-36 {
                letter-spacing: 0.02em;
            }

            .cls-37 {
                letter-spacing: -0.01em;
            }

            .cls-38 {
                letter-spacing: -0.01em;
            }

            .cls-39 {
                letter-spacing: 0em;
            }

            .cls-40 {
                letter-spacing: 0em;
            }

            .cls-41 {
                letter-spacing: 0em;
            }

            .cls-42 {
                letter-spacing: 0em;
            }

            .cls-43 {
                letter-spacing: 0.02em;
            }

            .cls-44 {
                letter-spacing: -0.01em;
            }

            .cls-45 {
                letter-spacing: -0.01em;
            }

            .cls-46 {
                letter-spacing: 0em;
            }

            .cls-47 {
                letter-spacing: 0.02em;
            }

            .cls-48 {
                letter-spacing: -0.02em;
            }

            .cls-49 {
                letter-spacing: 0.03em;
            }

            .cls-50 {
                letter-spacing: 0em;
            }

            .cls-51 {
                letter-spacing: 0.01em;
            }

            .cls-52 {
                letter-spacing: 0em;
            }

            .cls-53 {
                letter-spacing: 0em;
            }

            .cls-54 {
                letter-spacing: 0.02em;
            }

            .cls-55 {
                letter-spacing: -0.01em;
            }

            .cls-56 {
                letter-spacing: 0.01em;
            }

            .cls-57 {
                letter-spacing: -0.01em;
            }

            .cls-58 {
                letter-spacing: 0em;
            }

            .cls-59 {
                letter-spacing: -0.04em;
            }

            .cls-60 {
                letter-spacing: -0.03em;
            }

            .cls-61 {
                letter-spacing: 0.02em;
            }

            .cls-62 {
                letter-spacing: -0.04em;
            }

            .cls-63 {
                letter-spacing: -0.02em;
            }

            .cls-64 {
                letter-spacing: -0.01em;
            }

            .cls-65 {
                letter-spacing: -0.01em;
            }

            .cls-66 {
                letter-spacing: -0.01em;
            }

            .cls-67 {
                letter-spacing: -0.04em;
            }

            .cls-68 {
                letter-spacing: -0.03em;
            }

            .cls-69 {
                font-size: 41px;
            }

            .cls-70 {
                letter-spacing: 0em;
            }

            .cls-71 {
                letter-spacing: 0.01em;
            }

            .cls-72 {
                letter-spacing: 0em;
            }

            .cls-73 {
                letter-spacing: -0.01em;
            }

            .cls-74 {
                letter-spacing: 0.02em;
            }

            .cls-75 {
                letter-spacing: 0.02em;
            }

            .cls-76 {
                letter-spacing: 0.01em;
            }

            .cls-77 {
                letter-spacing: 0.01em;
            }

            .cls-78 {
                letter-spacing: -0.05em;
            }

            .cls-79 {
                letter-spacing: 0.02em;
            }

            .cls-80 {
                letter-spacing: 0.02em;
            }

            .cls-81 {
                letter-spacing: 0.01em;
            }

            .cls-82 {
                letter-spacing: -0.01em;
            }

            .cls-83 {
                letter-spacing: -0.04em;
            }
        </style>
        <linearGradient id="Red_Purple_Blue" x1="-0.12" y1="253.48" x2="1820.21" y2="253.48"
            gradientUnits="userSpaceOnUse">
            <stop offset="0" stop-color="#b7151b" />
            <stop offset="0.02" stop-color="#c52229" />
            <stop offset="0.06" stop-color="#d7333c" />
            <stop offset="0.11" stop-color="#e23d47" />
            <stop offset="0.15" stop-color="#e6404b" />
            <stop offset="0.3" stop-color="#e98a7b" />
            <stop offset="0.47" stop-color="#7c78b8" />
            <stop offset="0.64" stop-color="#00b0b0" />
            <stop offset="0.79" stop-color="#7b76b6" />
            <stop offset="1" stop-color="#e7322f" />
        </linearGradient>
    </defs>
    <g id="Layer_1" data-name="Layer 1">
        <path class="cls-1"
            d="M1821.77,474.61c-55.57-29.86-108-65.84-158.22-103.93-53.1-40.28-105.06-83.81-149.17-134C1477.69,195,1437.63,122,1371.29,134.48c-18.27,3.42-34.33,13.81-49,24.7-15.78,11.69-31.15,23.95-46.6,36.08-32.86,25.8-65.77,51.66-100.75,74.58-67.76,44.39-147,78.65-229.67,71.25-80.81-7.24-152.66-51.39-217.31-97.29C667.67,201,609.15,153.27,540.61,124.08c-49.4-21-101.93-34.83-154.13-46.88-116.09-26.82-235.77-45.46-354.81-52C21.09,24.65,10.5,24.22-.09,24c-5.79-.12-5.79,8.88,0,9C51.49,34.09,103,39.34,154.19,45.73q94.51,11.81,188,31c56.23,11.65,112.52,25.12,166.63,44.56,64.28,23.1,120,61.7,174.89,101.6,62.72,45.6,126.71,92.71,201.89,115.47s151.93,11.66,222.63-20.76c73.91-33.89,136.34-87.07,200.11-136.48,30.14-23.35,63.47-49.9,103.38-33.51,32.27,13.26,55.36,43.82,75.93,70.65,38,49.5,85.47,91.64,133.79,130.77,51.09,41.37,104.84,79.9,161.25,113.7q17.07,10.23,34.58,19.69c5.1,2.74,9.65-5,4.54-7.78Z" />
        <path class="cls-2" d="M1768,517H49v790a20,20,0,0,0,20,20H1748a20,20,0,0,0,20-20Z" />
        <path class="cls-3" d="M1768,517H49V479a20,20,0,0,1,20-20H1748a20,20,0,0,1,20,20Z" />
        <circle class="cls-4" cx="78" cy="487" r="10" />
        <circle class="cls-5" cx="119" cy="487" r="10" />
        <circle class="cls-6" cx="161" cy="487" r="10" />
        <path class="cls-7"
            d="M54,289c0-57,151-99,271-99,121,0,275,37,275,99,0,63.28-200.74,96.87-244,114-96,38-35,226-35,226s-65.62-86.85-62-210C260,385,54,379,54,289Z" />
        <path class="cls-8"
            d="M1752,284.35C1752,226.57,1601.12,184,1481.22,184c-120.91,0-274.78,37.5-274.78,100.35,0,64.14,200.57,98.19,243.8,115.55,95.93,38.51,35,229.07,35,229.07s65.57-88,62-212.85C1546.17,381.65,1752,375.57,1752,284.35Z" />
        <ellipse class="cls-9" cx="903" cy="218" rx="284" ry="104" />
        <polygon class="cls-9" points="873.63 308 903 649 932.64 308 873.63 308" />
        <line class="cls-10" x1="88.62" y1="633.09" x2="575.87" y2="633.09" />
    </g>
    <g id="Layer_2" data-name="Layer 2"><text class="cls-11" transform="translate(1289.04 291.53)">
            <tspan class="cls-12">W</tspan>
            <tspan x="33.64" y="0">he</tspan>
            <tspan class="cls-13" x="75.88" y="0">r</tspan>
            <tspan class="cls-14" x="88.56" y="0">e did </tspan>
            <tspan class="cls-15" x="180.04" y="0">A</tspan>
            <tspan class="cls-14" x="204.4" y="0">ngl</tspan>
            <tspan class="cls-16" x="258.4" y="0">o</tspan>
            <tspan x="280.96" y="0">-</tspan>
            <tspan class="cls-17" x="293.24" y="0">S</tspan>
            <tspan x="313.08" y="0">a</tspan>
            <tspan class="cls-18" x="332.36" y="0">x</tspan>
            <tspan x="350.28" y="0">ons </tspan>
            <tspan x="121.82" y="48">o</tspan>
            <tspan class="cls-19" x="143.78" y="48">r</tspan>
            <tspan class="cls-20" x="157.02" y="48">i</tspan>
            <tspan class="cls-21" x="166.38" y="48">g</tspan>
            <tspan x="188.5" y="48">in</tspan>
            <tspan class="cls-22" x="220.06" y="48">a</tspan>
            <tspan class="cls-21" x="239.18" y="48">t</tspan>
            <tspan class="cls-20" x="252.18" y="48">e?</tspan>
        </text><text class="cls-11" transform="translate(680.76 231.83)">
            <tspan class="cls-12">W</tspan>
            <tspan x="33.64" y="0">h</tspan>
            <tspan class="cls-22" x="55.84" y="0">a</tspan>
            <tspan x="74.96" y="0">t </tspan>
            <tspan class="cls-13" x="96.68" y="0">w</tspan>
            <tspan x="125.72" y="0">e</tspan>
            <tspan class="cls-13" x="145.76" y="0">r</tspan>
            <tspan x="158.44" y="0">e their </tspan>
            <tspan class="cls-23" x="273.35" y="0">k</tspan>
            <tspan x="292.79" y="0">ingdoms?</tspan>
        </text><text class="cls-11" transform="translate(89.06 301.63)">
            <tspan class="cls-12">W</tspan>
            <tspan x="33.64" y="0">ho </tspan>
            <tspan class="cls-13" x="86.28" y="0">w</tspan>
            <tspan class="cls-14" x="115.32" y="0">e</tspan>
            <tspan class="cls-13" x="135.36" y="0">r</tspan>
            <tspan x="148.04" y="0">e the </tspan>
            <tspan class="cls-15" x="240.52" y="0">A</tspan>
            <tspan x="264.88" y="0">ngl</tspan>
            <tspan class="cls-24" x="318.88" y="0">o</tspan>
            <tspan class="cls-20" x="341.44" y="0">-</tspan>
            <tspan class="cls-25" x="353.71" y="0">S</tspan>
            <tspan class="cls-20" x="373.55" y="0">a</tspan>
            <tspan class="cls-18" x="392.83" y="0">x</tspan>
            <tspan x="410.75" y="0">ons?</tspan>
        </text></g>
    <g id="Layer_3" data-name="Layer 3"><text class="cls-26">
            <tspan class="cls-27" x="80.88" y="881.9">T</tspan>
            <tspan x="97.06" y="881.9">he </tspan>
            <tspan class="cls-28" x="138.9" y="881.9">A</tspan>
            <tspan x="159" y="881.9">ngl</tspan>
            <tspan class="cls-29" x="203.54" y="881.9">o</tspan>
            <tspan x="222.16" y="881.9">-</tspan>
            <tspan class="cls-30" x="232.29" y="881.9">S</tspan>
            <tspan x="248.65" y="881.9">a</tspan>
            <tspan class="cls-31" x="264.56" y="881.9">x</tspan>
            <tspan x="279.34" y="881.9">ons </tspan>
            <tspan class="cls-32" x="335.84" y="881.9">w</tspan>
            <tspan x="359.8" y="881.9">e</tspan>
            <tspan class="cls-33" x="376.33" y="881.9">r</tspan>
            <tspan x="386.79" y="881.9">e the members of </tspan>
            <tspan class="cls-34" x="635.57" y="881.9">G</tspan>
            <tspan x="657.06" y="881.9">e</tspan>
            <tspan class="cls-35" x="673.59" y="881.9">r</tspan>
            <tspan x="684.51" y="881.9">mani</tspan>
            <tspan class="cls-34" x="753.98" y="881.9">c</tspan>
            <tspan x="768.93" y="881.9">-spea</tspan>
            <tspan class="cls-36" x="843.34" y="881.9">k</tspan>
            <tspan x="859.38" y="881.9">ing </tspan>
            <tspan class="cls-37" x="910.86" y="881.9">g</tspan>
            <tspan class="cls-32" x="929.1" y="881.9">r</tspan>
            <tspan x="939.57" y="881.9">oups who mi</tspan>
            <tspan class="cls-38" x="1117.67" y="881.9">g</tspan>
            <tspan class="cls-39" x="1135.91" y="881.9">r</tspan>
            <tspan class="cls-40" x="1146.54" y="881.9">a</tspan>
            <tspan class="cls-38" x="1162.32" y="881.9">t</tspan>
            <tspan x="1173.04" y="881.9">ed </tspan>
            <tspan class="cls-38" x="1215.18" y="881.9">t</tspan>
            <tspan x="1225.91" y="881.9">o the southe</tspan>
            <tspan class="cls-35" x="1398.92" y="881.9">r</tspan>
            <tspan x="1409.85" y="881.9">n half of the island of </tspan>
            <tspan x="80.88" y="921.5">G</tspan>
            <tspan class="cls-33" x="102.2" y="921.5">r</tspan>
            <tspan x="112.66" y="921.5">e</tspan>
            <tspan class="cls-41" x="129.2" y="921.5">a</tspan>
            <tspan x="144.97" y="921.5">t B</tspan>
            <tspan class="cls-42" x="180.77" y="921.5">r</tspan>
            <tspan x="191.7" y="921.5">itain f</tspan>
            <tspan class="cls-32" x="268.92" y="921.5">r</tspan>
            <tspan x="279.38" y="921.5">om nea</tspan>
            <tspan class="cls-35" x="382.76" y="921.5">r</tspan>
            <tspan class="cls-27" x="393.69" y="921.5">b</tspan>
            <tspan x="412.23" y="921.5">y no</tspan>
            <tspan class="cls-43" x="471.2" y="921.5">r</tspan>
            <tspan x="482.79" y="921.5">t</tspan>
            <tspan class="cls-44" x="493.71" y="921.5">h</tspan>
            <tspan class="cls-33" x="511.6" y="921.5">w</tspan>
            <tspan x="535.55" y="921.5">es</tspan>
            <tspan class="cls-37" x="565.15" y="921.5">t</tspan>
            <tspan x="575.88" y="921.5">e</tspan>
            <tspan class="cls-35" x="592.41" y="921.5">r</tspan>
            <tspan x="603.33" y="921.5">n </tspan>
            <tspan class="cls-27" x="628.64" y="921.5">E</tspan>
            <tspan x="644.65" y="921.5">u</tspan>
            <tspan class="cls-32" x="662.83" y="921.5">r</tspan>
            <tspan x="673.29" y="921.5">op</tspan>
            <tspan class="cls-45" x="710.19" y="921.5">e</tspan>
            <tspan x="726.32" y="921.5">. </tspan>
            <tspan class="cls-46" x="740.15" y="921.5">A</tspan>
            <tspan x="760.25" y="921.5">ngl</tspan>
            <tspan class="cls-47" x="804.8" y="921.5">o</tspan>
            <tspan x="823.41" y="921.5">-</tspan>
            <tspan class="cls-30" x="833.54" y="921.5">S</tspan>
            <tspan x="849.91" y="921.5">a</tspan>
            <tspan class="cls-48" x="865.81" y="921.5">x</tspan>
            <tspan x="880.6" y="921.5">on his</tspan>
            <tspan class="cls-37" x="963.13" y="921.5">t</tspan>
            <tspan x="973.85" y="921.5">o</tspan>
            <tspan class="cls-49" x="991.97" y="921.5">r</tspan>
            <tspan x="1003.59" y="921.5">y thus be</tspan>
            <tspan class="cls-38" x="1128.92" y="921.5">g</tspan>
            <tspan x="1147.17" y="921.5">ins du</tspan>
            <tspan class="cls-35" x="1230.06" y="921.5">r</tspan>
            <tspan x="1240.98" y="921.5">ing the pe</tspan>
            <tspan class="cls-50" x="1380.54" y="921.5">r</tspan>
            <tspan x="1391.46" y="921.5">iod of su</tspan>
            <tspan class="cls-51" x="1508.91" y="921.5">b</tspan>
            <tspan x="1528.18" y="921.5">-</tspan>
            <tspan class="cls-50" x="1538.31" y="921.5">R</tspan>
            <tspan x="1556.2" y="921.5">oman B</tspan>
            <tspan class="cls-35" x="1660.94" y="921.5">r</tspan>
            <tspan x="1671.86" y="921.5">itain </tspan>
            <tspan class="cls-44" x="80.88" y="961.1">f</tspan>
            <tspan x="90.09" y="961.1">oll</tspan>
            <tspan class="cls-27" x="123.78" y="961.1">o</tspan>
            <tspan x="141.67" y="961.1">wing the end of </tspan>
            <tspan class="cls-35" x="365.41" y="961.1">R</tspan>
            <tspan x="383.29" y="961.1">oman </tspan>
            <tspan class="cls-37" x="470.15" y="961.1">c</tspan>
            <tspan x="484.73" y="961.1">o</tspan>
            <tspan class="cls-40" x="502.85" y="961.1">n</tspan>
            <tspan x="521.03" y="961.1">t</tspan>
            <tspan class="cls-32" x="531.96" y="961.1">r</tspan>
            <tspan x="542.42" y="961.1">o</tspan>
            <tspan class="cls-33" x="560.53" y="961.1">l</tspan>
            <tspan x="567.99" y="961.1">, and t</tspan>
            <tspan class="cls-52" x="652.57" y="961.1">r</tspan>
            <tspan x="663.19" y="961.1">a</tspan>
            <tspan class="cls-38" x="679.1" y="961.1">c</tspan>
            <tspan x="693.69" y="961.1">es the establishme</tspan>
            <tspan class="cls-40" x="949.2" y="961.1">n</tspan>
            <tspan class="cls-53" x="967.38" y="961.1">t of </tspan>
            <tspan class="cls-28" x="1020.05" y="961.1">A</tspan>
            <tspan x="1040.15" y="961.1">ngl</tspan>
            <tspan class="cls-47" x="1084.7" y="961.1">o</tspan>
            <tspan x="1103.31" y="961.1">-</tspan>
            <tspan class="cls-30" x="1113.44" y="961.1">S</tspan>
            <tspan x="1129.81" y="961.1">a</tspan>
            <tspan class="cls-48" x="1145.71" y="961.1">x</tspan>
            <tspan x="1160.5" y="961.1">on </tspan>
            <tspan class="cls-54" x="1203.93" y="961.1">k</tspan>
            <tspan x="1219.96" y="961.1">ingdoms in the 5th and 6th </tspan>
            <tspan class="cls-55" x="1600.71" y="961.1">c</tspan>
            <tspan x="1615.3" y="961.1">e</tspan>
            <tspan class="cls-40" x="1631.83" y="961.1">n</tspan>
            <tspan x="1650.02" y="961.1">tu</tspan>
            <tspan class="cls-35" x="1679.12" y="961.1">r</tspan>
            <tspan x="1690.05" y="961.1">ies </tspan>
            <tspan x="80.88" y="1000.7">(</tspan>
            <tspan class="cls-37" x="90.26" y="1000.7">c</tspan>
            <tspan x="104.84" y="1000.7">o</tspan>
            <tspan class="cls-44" x="122.96" y="1000.7">n</tspan>
            <tspan class="cls-33" x="140.85" y="1000.7">v</tspan>
            <tspan x="156.39" y="1000.7">e</tspan>
            <tspan class="cls-41" x="172.92" y="1000.7">n</tspan>
            <tspan x="191.1" y="1000.7">tionally ide</tspan>
            <tspan class="cls-40" x="343.07" y="1000.7">n</tspan>
            <tspan x="361.25" y="1000.7">tified as se</tspan>
            <tspan class="cls-33" x="504.86" y="1000.7">v</tspan>
            <tspan x="520.41" y="1000.7">en main </tspan>
            <tspan class="cls-36" x="638.71" y="1000.7">k</tspan>
            <tspan x="654.75" y="1000.7">ingdoms: No</tspan>
            <tspan class="cls-43" x="830.2" y="1000.7">r</tspan>
            <tspan x="841.79" y="1000.7">thumb</tspan>
            <tspan class="cls-35" x="935.51" y="1000.7">r</tspan>
            <tspan x="946.43" y="1000.7">ia, </tspan>
            <tspan class="cls-56" x="983.88" y="1000.7">M</tspan>
            <tspan x="1010.61" y="1000.7">e</tspan>
            <tspan class="cls-57" x="1027.14" y="1000.7">r</tspan>
            <tspan x="1037.61" y="1000.7">cia, East </tspan>
            <tspan class="cls-58" x="1152.97" y="1000.7">A</tspan>
            <tspan x="1173.07" y="1000.7">nglia, Ess</tspan>
            <tspan class="cls-28" x="1297.45" y="1000.7">e</tspan>
            <tspan x="1313.88" y="1000.7">x, Ke</tspan>
            <tspan class="cls-40" x="1377.4" y="1000.7">n</tspan>
            <tspan class="cls-28" x="1395.59" y="1000.7">t</tspan>
            <tspan x="1406.41" y="1000.7">, Suss</tspan>
            <tspan class="cls-28" x="1480.83" y="1000.7">e</tspan>
            <tspan x="1497.26" y="1000.7">x, and</tspan>
            <tspan class="cls-59" x="1579.2" y="1000.7"> </tspan>
            <tspan class="cls-60" x="1585.01" y="1000.7">W</tspan>
            <tspan x="1611.84" y="1000.7">ess</tspan>
            <tspan class="cls-28" x="1654.5" y="1000.7">e</tspan>
            <tspan x="1670.94" y="1000.7">x), </tspan>
            <tspan x="80.88" y="1040.3">their Ch</tspan>
            <tspan class="cls-35" x="189.62" y="1040.3">r</tspan>
            <tspan x="200.54" y="1040.3">istianis</tspan>
            <tspan class="cls-40" x="294.99" y="1040.3">a</tspan>
            <tspan x="310.76" y="1040.3">tion du</tspan>
            <tspan class="cls-35" x="409.63" y="1040.3">r</tspan>
            <tspan x="420.55" y="1040.3">ing the 7th </tspan>
            <tspan class="cls-37" x="577.96" y="1040.3">c</tspan>
            <tspan x="592.54" y="1040.3">e</tspan>
            <tspan class="cls-40" x="609.07" y="1040.3">n</tspan>
            <tspan x="627.26" y="1040.3">tu</tspan>
            <tspan class="cls-61" x="656.36" y="1040.3">r</tspan>
            <tspan class="cls-62" x="667.98" y="1040.3">y</tspan>
            <tspan x="682.23" y="1040.3">, the th</tspan>
            <tspan class="cls-33" x="778.06" y="1040.3">r</tspan>
            <tspan x="788.53" y="1040.3">e</tspan>
            <tspan class="cls-41" x="805.06" y="1040.3">a</tspan>
            <tspan x="820.83" y="1040.3">t of</tspan>
            <tspan class="cls-59" x="866.5" y="1040.3"> </tspan>
            <tspan class="cls-63" x="872.31" y="1040.3">V</tspan>
            <tspan x="890.2" y="1040.3">i</tspan>
            <tspan class="cls-36" x="897.92" y="1040.3">k</tspan>
            <tspan x="913.96" y="1040.3">ing i</tspan>
            <tspan class="cls-64" x="973.16" y="1040.3">n</tspan>
            <tspan class="cls-40" x="991.04" y="1040.3">v</tspan>
            <tspan x="1006.79" y="1040.3">asions and Danish settler</tspan>
            <tspan class="cls-65" x="1348.66" y="1040.3">s</tspan>
            <tspan x="1361.37" y="1040.3">, the </tspan>
            <tspan class="cls-38" x="1427.96" y="1040.3">g</tspan>
            <tspan class="cls-66" x="1446.21" y="1040.3">r</tspan>
            <tspan x="1456.83" y="1040.3">adual unific</tspan>
            <tspan class="cls-40" x="1616.49" y="1040.3">a</tspan>
            <tspan x="1632.26" y="1040.3">tion of </tspan>
            <tspan x="80.88" y="1079.9">England under the</tspan>
            <tspan class="cls-67" x="336.7" y="1079.9"> </tspan>
            <tspan class="cls-68" x="342.5" y="1079.9">W</tspan>
            <tspan x="369.33" y="1079.9">ess</tspan>
            <tspan class="cls-28" x="412" y="1079.9">e</tspan>
            <tspan x="428.44" y="1079.9">x hegemo</tspan>
            <tspan class="cls-44" x="566.18" y="1079.9">n</tspan>
            <tspan x="584.06" y="1079.9">y du</tspan>
            <tspan class="cls-35" x="643.4" y="1079.9">r</tspan>
            <tspan x="654.32" y="1079.9">ing the 9th and 10th </tspan>
            <tspan class="cls-37" x="941.65" y="1079.9">c</tspan>
            <tspan x="956.23" y="1079.9">e</tspan>
            <tspan class="cls-41" x="972.77" y="1079.9">n</tspan>
            <tspan x="990.95" y="1079.9">tu</tspan>
            <tspan class="cls-35" x="1020.05" y="1079.9">r</tspan>
            <tspan x="1030.98" y="1079.9">ie</tspan>
            <tspan class="cls-65" x="1055.23" y="1079.9">s</tspan>
            <tspan x="1067.94" y="1079.9">, and ending with the No</tspan>
            <tspan class="cls-35" x="1407.37" y="1079.9">r</tspan>
            <tspan x="1418.29" y="1079.9">man </tspan>
            <tspan class="cls-55" x="1487.03" y="1079.9">c</tspan>
            <tspan x="1501.62" y="1079.9">onquest of En</tspan>
            <tspan x="1691.63" y="1079.9">-</tspan>
            <tspan x="80.88" y="1119.5">gland </tspan>
            <tspan class="cls-27" x="166.95" y="1119.5">b</tspan>
            <tspan x="185.49" y="1119.5">y</tspan>
            <tspan class="cls-67" x="201.04" y="1119.5"> </tspan>
            <tspan class="cls-63" x="206.84" y="1119.5">W</tspan>
            <tspan x="234.23" y="1119.5">illiam the </tspan>
            <tspan class="cls-65" x="368.44" y="1119.5">C</tspan>
            <tspan x="387.22" y="1119.5">onque</tspan>
            <tspan class="cls-32" x="476.94" y="1119.5">r</tspan>
            <tspan x="487.41" y="1119.5">or in 1066.</tspan>
        </text><text class="cls-69" transform="translate(77.62 607.46)">
            <tspan class="cls-70">A</tspan>
            <tspan x="24.97" y="0">ngl</tspan>
            <tspan class="cls-71" x="80.32" y="0">o</tspan>
            <tspan x="103.44" y="0">-</tspan>
            <tspan class="cls-72" x="116.03" y="0">S</tspan>
            <tspan x="136.36" y="0">a</tspan>
            <tspan class="cls-73" x="156.13" y="0">x</tspan>
            <tspan x="174.49" y="0">on England</tspan>
        </text><text class="cls-26" transform="translate(78 693.12)">
            <tspan class="cls-28">A</tspan>
            <tspan x="20.1" y="0">ngl</tspan>
            <tspan class="cls-47" x="64.65" y="0">o</tspan>
            <tspan x="83.26" y="0">-</tspan>
            <tspan class="cls-30" x="93.39" y="0">S</tspan>
            <tspan x="109.76" y="0">a</tspan>
            <tspan class="cls-48" x="125.66" y="0">x</tspan>
            <tspan x="140.45" y="0">on England </tspan>
            <tspan class="cls-40" x="304.49" y="0">w</tspan>
            <tspan x="328.64" y="0">as ea</tspan>
            <tspan class="cls-35" x="397.05" y="0">r</tspan>
            <tspan x="407.97" y="0">ly medie</tspan>
            <tspan class="cls-40" x="525.22" y="0">v</tspan>
            <tspan x="540.96" y="0">al Englan</tspan>
            <tspan class="cls-32" x="666.66" y="0">d</tspan>
            <tspan x="684.94" y="0">, </tspan>
            <tspan class="cls-28" x="698.76" y="0">e</tspan>
            <tspan x="715.2" y="0">xisting f</tspan>
            <tspan class="cls-33" x="823.3" y="0">r</tspan>
            <tspan x="833.77" y="0">om the 5th </tspan>
            <tspan class="cls-55" x="992.33" y="0">t</tspan>
            <tspan x="1003.05" y="0">o the 11th </tspan>
            <tspan class="cls-38" x="1151.02" y="0">c</tspan>
            <tspan x="1165.61" y="0">e</tspan>
            <tspan class="cls-40" x="1182.14" y="0">n</tspan>
            <tspan x="1200.33" y="0">tu</tspan>
            <tspan class="cls-35" x="1229.43" y="0">r</tspan>
            <tspan x="1240.35" y="0">ies f</tspan>
            <tspan class="cls-32" x="1294.31" y="0">r</tspan>
            <tspan x="1304.77" y="0">om the end of </tspan>
            <tspan class="cls-35" x="1505.38" y="0">R</tspan>
            <tspan x="1523.26" y="0">oman </tspan>
            <tspan x="0" y="39.6">B</tspan>
            <tspan class="cls-35" x="17.89" y="39.6">r</tspan>
            <tspan x="28.81" y="39.6">itain u</tspan>
            <tspan class="cls-40" x="114.57" y="39.6">n</tspan>
            <tspan x="132.76" y="39.6">til the No</tspan>
            <tspan class="cls-35" x="258.78" y="39.6">r</tspan>
            <tspan x="269.7" y="39.6">man </tspan>
            <tspan class="cls-37" x="338.44" y="39.6">c</tspan>
            <tspan x="353.03" y="39.6">onquest in 1066. </tspan>
            <tspan class="cls-74" x="588.31" y="39.6">I</tspan>
            <tspan x="596.73" y="39.6">t </tspan>
            <tspan class="cls-38" x="614.65" y="39.6">c</tspan>
            <tspan x="629.23" y="39.6">onsis</tspan>
            <tspan class="cls-37" x="699.52" y="39.6">t</tspan>
            <tspan x="710.25" y="39.6">ed of </tspan>
            <tspan class="cls-40" x="787.13" y="39.6">v</tspan>
            <tspan x="802.88" y="39.6">a</tspan>
            <tspan class="cls-35" x="818.78" y="39.6">r</tspan>
            <tspan x="829.7" y="39.6">ious </tspan>
            <tspan class="cls-46" x="893.79" y="39.6">A</tspan>
            <tspan x="913.89" y="39.6">ngl</tspan>
            <tspan class="cls-47" x="958.43" y="39.6">o</tspan>
            <tspan x="977.05" y="39.6">-</tspan>
            <tspan class="cls-30" x="987.18" y="39.6">S</tspan>
            <tspan x="1003.54" y="39.6">a</tspan>
            <tspan class="cls-48" x="1019.45" y="39.6">x</tspan>
            <tspan x="1034.24" y="39.6">on </tspan>
            <tspan class="cls-75" x="1077.66" y="39.6">k</tspan>
            <tspan x="1093.7" y="39.6">ingdoms u</tspan>
            <tspan class="cls-40" x="1240.68" y="39.6">n</tspan>
            <tspan x="1258.87" y="39.6">til 927 when it </tspan>
            <tspan class="cls-40" x="1460.16" y="39.6">w</tspan>
            <tspan x="1484.32" y="39.6">as uni</tspan>
            <tspan class="cls-38" x="1564.51" y="39.6">t</tspan>
            <tspan x="1575.23" y="39.6">ed as </tspan>
            <tspan x="0" y="79.2">the </tspan>
            <tspan class="cls-76" x="52.77" y="79.2">K</tspan>
            <tspan x="70.98" y="79.2">ingdom of England </tspan>
            <tspan class="cls-27" x="342.07" y="79.2">b</tspan>
            <tspan x="360.62" y="79.2">y </tspan>
            <tspan class="cls-77" x="383.16" y="79.2">K</tspan>
            <tspan x="401.37" y="79.2">ing </tspan>
            <tspan class="cls-28" x="452.85" y="79.2">Æ</tspan>
            <tspan x="478.76" y="79.2">thelstan (</tspan>
            <tspan class="cls-78" x="606.89" y="79.2">r</tspan>
            <tspan x="615.94" y="79.2">. 927–939). </tspan>
            <tspan class="cls-74" x="771.03" y="79.2">I</tspan>
            <tspan x="779.45" y="79.2">t became pa</tspan>
            <tspan class="cls-79" x="949.1" y="79.2">r</tspan>
            <tspan x="960.68" y="79.2">t of the sho</tspan>
            <tspan class="cls-80" x="1115.62" y="79.2">r</tspan>
            <tspan class="cls-39" x="1127.2" y="79.2">t</tspan>
            <tspan x="1137.96" y="79.2">-li</tspan>
            <tspan class="cls-32" x="1163.6" y="79.2">v</tspan>
            <tspan x="1179.14" y="79.2">ed No</tspan>
            <tspan class="cls-79" x="1261.11" y="79.2">r</tspan>
            <tspan x="1272.7" y="79.2">th </tspan>
            <tspan class="cls-56" x="1308.93" y="79.2">S</tspan>
            <tspan x="1325.39" y="79.2">ea Empi</tspan>
            <tspan class="cls-57" x="1435.09" y="79.2">r</tspan>
            <tspan x="1445.55" y="79.2">e of </tspan>
            <tspan class="cls-28" x="1503.83" y="79.2">C</tspan>
            <tspan x="1522.87" y="79.2">nut the </tspan>
            <tspan x="0" y="118.8">G</tspan>
            <tspan class="cls-33" x="21.32" y="118.8">r</tspan>
            <tspan x="31.78" y="118.8">e</tspan>
            <tspan class="cls-41" x="48.31" y="118.8">a</tspan>
            <tspan class="cls-28" x="64.09" y="118.8">t</tspan>
            <tspan x="74.91" y="118.8">, a personal union be</tspan>
            <tspan class="cls-81" x="360.88" y="118.8">t</tspan>
            <tspan class="cls-32" x="372.1" y="118.8">w</tspan>
            <tspan x="396.06" y="118.8">een Englan</tspan>
            <tspan class="cls-33" x="549.44" y="118.8">d</tspan>
            <tspan x="567.72" y="118.8">, </tspan>
            <tspan class="cls-35" x="581.55" y="118.8">D</tspan>
            <tspan x="603.66" y="118.8">enma</tspan>
            <tspan class="cls-35" x="681.93" y="118.8">r</tspan>
            <tspan x="692.86" y="118.8">k and No</tspan>
            <tspan class="cls-61" x="814.99" y="118.8">r</tspan>
            <tspan class="cls-40" x="826.6" y="118.8">w</tspan>
            <tspan class="cls-82" x="850.76" y="118.8">a</tspan>
            <tspan x="866.4" y="118.8">y in the 11th </tspan>
            <tspan class="cls-38" x="1044.83" y="118.8">c</tspan>
            <tspan x="1059.42" y="118.8">e</tspan>
            <tspan class="cls-40" x="1075.95" y="118.8">n</tspan>
            <tspan x="1094.13" y="118.8">tu</tspan>
            <tspan class="cls-49" x="1123.24" y="118.8">r</tspan>
            <tspan class="cls-83" x="1134.85" y="118.8">y</tspan>
            <tspan x="1149.11" y="118.8">.</tspan>
        </text></g>
</svg>