<svg id="Layer_1" data-name="Layer 1" xmlns="http://www.w3.org/2000/svg" xmlns:xlink="http://www.w3.org/1999/xlink" width="1828.44" height="1303" viewBox="0 0 1828.44 1303">
  <defs>
    <style>
      .cls-1 {
        fill: url(#Red_Purple_Blue);
      }

      .cls-2 {
        fill: #fafafa;
      }

      .cls-3 {
        fill: #f0f0f0;
      }

      .cls-4 {
        fill: #ed1c24;
      }

      .cls-5 {
        fill: #fbb03b;
      }

      .cls-6 {
        fill: #39b54a;
      }

      .cls-7 {
        fill: #fdb913;
      }

      .cls-8 {
        fill: #b72467;
      }

      .cls-9 {
        fill: #6dc8bf;
      }

      .cls-10 {
        font-size: 33px;
      }

      .cls-10, .cls-40, .cls-45 {
        font-family: MyriadPro-Regular, Myriad Pro;
      }

      .cls-11 {
        letter-spacing: 0em;
      }

      .cls-12 {
        letter-spacing: 0.02em;
      }

      .cls-13 {
        letter-spacing: 0em;
      }

      .cls-14 {
        letter-spacing: -0.02em;
      }

      .cls-15 {
        letter-spacing: 0em;
      }

      .cls-16 {
        letter-spacing: 0em;
      }

      .cls-17 {
        letter-spacing: -0.01em;
      }

      .cls-18 {
        letter-spacing: -0.01em;
      }

      .cls-19 {
        letter-spacing: -0.01em;
      }

      .cls-20 {
        letter-spacing: -0.01em;
      }

      .cls-21 {
        letter-spacing: -0.01em;
      }

      .cls-22 {
        letter-spacing: 0.02em;
      }

      .cls-23 {
        letter-spacing: 0em;
      }

      .cls-24 {
        letter-spacing: 0.02em;
      }

      .cls-25 {
        letter-spacing: 0.01em;
      }

      .cls-26 {
        letter-spacing: -0.01em;
      }

      .cls-27 {
        letter-spacing: 0.01em;
      }

      .cls-28 {
        letter-spacing: -0.05em;
      }

      .cls-29 {
        letter-spacing: 0.02em;
      }

      .cls-30 {
        letter-spacing: 0.02em;
      }

      .cls-31 {
        letter-spacing: 0em;
      }

      .cls-32 {
        letter-spacing: 0.01em;
      }

      .cls-33 {
        letter-spacing: -0.01em;
      }

      .cls-34 {
        letter-spacing: 0em;
      }

      .cls-35 {
        letter-spacing: 0.01em;
      }

      .cls-36 {
        letter-spacing: 0.02em;
      }

      .cls-37 {
        letter-spacing: -0.01em;
      }

      .cls-38 {
        letter-spacing: 0.03em;
      }

      .cls-39 {
        letter-spacing: -0.04em;
      }

      .cls-40 {
        font-size: 41px;
      }

      .cls-41 {
        letter-spacing: 0em;
      }

      .cls-42 {
        letter-spacing: 0.01em;
      }

      .cls-43 {
        letter-spacing: 0em;
      }

      .cls-44 {
        letter-spacing: -0.01em;
      }

      .cls-45 {
        font-size: 40px;
      }

      .cls-46 {
        letter-spacing: 0em;
      }

      .cls-47 {
        letter-spacing: -0.01em;
      }

      .cls-48 {
        letter-spacing: 0em;
      }

      .cls-49 {
        letter-spacing: 0em;
      }

      .cls-50 {
        letter-spacing: 0.02em;
      }

      .cls-51 {
        letter-spacing: 0em;
      }

      .cls-52 {
        letter-spacing: 0em;
      }

      .cls-53 {
        letter-spacing: -0.01em;
      }

      .cls-54 {
        letter-spacing: 0em;
      }

      .cls-55 {
        letter-spacing: 0.02em;
      }

      .cls-56 {
        letter-spacing: 0.01em;
      }

      .cls-57 {
        letter-spacing: 0em;
      }

      .cls-58 {
        letter-spacing: 0em;
      }

      .cls-59 {
        letter-spacing: -0.01em;
      }

      .cls-60 {
        stroke: #000;
        stroke-miterlimit: 10;
        stroke-width: 4px;
      }

      .cls-61 {
        letter-spacing: 0.01em;
      }

      .cls-62 {
        letter-spacing: -0.01em;
      }

      .cls-63 {
        letter-spacing: 0em;
      }

      .cls-64 {
        letter-spacing: 0.02em;
      }

      .cls-65 {
        letter-spacing: 0em;
      }

      .cls-66 {
        letter-spacing: 0.02em;
      }

      .cls-67 {
        letter-spacing: -0.01em;
      }

      .cls-68 {
        letter-spacing: -0.01em;
      }

      .cls-69 {
        letter-spacing: 0em;
      }

      .cls-70 {
        letter-spacing: 0.01em;
      }

      .cls-71 {
        letter-spacing: 0em;
      }

      .cls-72 {
        letter-spacing: 0em;
      }

      .cls-73 {
        letter-spacing: 0.02em;
      }

      .cls-74 {
        letter-spacing: 0em;
      }

      .cls-75 {
        letter-spacing: -0.04em;
      }

      .cls-76 {
        letter-spacing: -0.03em;
      }

      .cls-77 {
        letter-spacing: -0.04em;
      }

      .cls-78 {
        letter-spacing: -0.02em;
      }

      .cls-79 {
        letter-spacing: -0.01em;
      }

      .cls-80 {
        letter-spacing: -0.01em;
      }

      .cls-81 {
        letter-spacing: -0.01em;
      }

      .cls-82 {
        letter-spacing: -0.04em;
      }

      .cls-83 {
        letter-spacing: -0.03em;
      }

      .cls-84 {
        letter-spacing: 0.01em;
      }

      .cls-85 {
        letter-spacing: 0.02em;
      }

      .cls-86 {
        letter-spacing: -0.01em;
      }
    </style>
    <linearGradient id="Red_Purple_Blue" data-name="Red, Purple, Blue" x1="-0.12" y1="253.48" x2="1820.21" y2="253.48" gradientUnits="userSpaceOnUse">
      <stop offset="0" stop-color="#b7151b"/>
      <stop offset="0.02" stop-color="#c52229"/>
      <stop offset="0.06" stop-color="#d7333c"/>
      <stop offset="0.11" stop-color="#e23d47"/>
      <stop offset="0.15" stop-color="#e6404b"/>
      <stop offset="0.3" stop-color="#e98a7b"/>
      <stop offset="0.47" stop-color="#7c78b8"/>
      <stop offset="0.64" stop-color="#00b0b0"/>
      <stop offset="0.79" stop-color="#7b76b6"/>
      <stop offset="1" stop-color="#e7322f"/>
    </linearGradient>
  </defs>
  <path class="cls-1" d="M1821.77,474.61c-55.57-29.86-108-65.84-158.22-103.93-53.1-40.28-105.06-83.81-149.17-134C1477.69,195,1437.63,122,1371.29,134.48c-18.27,3.42-34.33,13.81-49,24.7-15.78,11.69-31.15,23.95-46.6,36.08-32.86,25.8-65.77,51.66-100.75,74.58-67.76,44.39-147,78.65-229.67,71.25-80.81-7.24-152.66-51.39-217.31-97.29C667.67,201,609.15,153.27,540.61,124.08c-49.4-21-101.93-34.83-154.13-46.88-116.09-26.82-235.77-45.46-354.81-52C21.09,24.65,10.5,24.22-.09,24c-5.79-.12-5.79,8.88,0,9C51.49,34.09,103,39.34,154.19,45.73q94.51,11.81,188,31c56.23,11.65,112.52,25.12,166.63,44.56,64.28,23.1,120,61.7,174.89,101.6,62.72,45.6,126.71,92.71,201.89,115.47s151.93,11.66,222.63-20.76c73.91-33.89,136.34-87.07,200.11-136.48,30.14-23.35,63.47-49.9,103.38-33.51,32.27,13.26,55.36,43.82,75.93,70.65,38,49.5,85.47,91.64,133.79,130.77,51.09,41.37,104.84,79.9,161.25,113.7q17.07,10.23,34.58,19.69c5.1,2.74,9.65-5,4.54-7.78Z" transform="translate(4.43 -24)"/>
  <path class="cls-2" d="M1768,517H49v790a20,20,0,0,0,20,20H1748a20,20,0,0,0,20-20Z" transform="translate(4.43 -24)"/>
  <path class="cls-3" d="M1768,517H49V479a20,20,0,0,1,20-20H1748a20,20,0,0,1,20,20Z" transform="translate(4.43 -24)"/>
  <circle class="cls-4" cx="82.43" cy="463" r="10"/>
  <circle class="cls-5" cx="123.43" cy="463" r="10"/>
  <circle class="cls-6" cx="165.43" cy="463" r="10"/>
  <path class="cls-7" d="M54,289c0-57,151-99,271-99,121,0,275,37,275,99,0,63.28-200.74,96.87-244,114-96,38-35,226-35,226s-65.62-86.85-62-210C260,385,54,379,54,289Z" transform="translate(4.43 -24)"/>
  <path class="cls-8" d="M1752,284.35C1752,226.57,1601.12,184,1481.22,184c-120.91,0-274.78,37.5-274.78,100.35,0,64.14,200.57,98.19,243.8,115.55,95.93,38.51,35,229.07,35,229.07s65.57-88,62-212.85C1546.17,381.65,1752,375.57,1752,284.35Z" transform="translate(4.43 -24)"/>
  <ellipse class="cls-9" cx="907.43" cy="194" rx="284" ry="104"/>
  <text class="cls-10" transform="translate(82.43 669.12)"><tspan class="cls-11">A</tspan><tspan x="20.1" y="0">ngl</tspan><tspan class="cls-12" x="64.65" y="0">o</tspan><tspan x="83.26" y="0">-</tspan><tspan class="cls-13" x="93.39" y="0">S</tspan><tspan x="109.76" y="0">a</tspan><tspan class="cls-14" x="125.66" y="0">x</tspan><tspan x="140.45" y="0">on England </tspan><tspan class="cls-15" x="304.49" y="0">w</tspan><tspan x="328.64" y="0">as ea</tspan><tspan class="cls-16" x="397.05" y="0">r</tspan><tspan x="407.97" y="0">ly medie</tspan><tspan class="cls-15" x="525.22" y="0">v</tspan><tspan x="540.96" y="0">al Englan</tspan><tspan class="cls-17" x="666.66" y="0">d</tspan><tspan x="684.94" y="0">, </tspan><tspan class="cls-11" x="698.76" y="0">e</tspan><tspan x="715.2" y="0">xisting f</tspan><tspan class="cls-18" x="823.3" y="0">r</tspan><tspan x="833.77" y="0">om the 5th </tspan><tspan class="cls-19" x="992.33" y="0">t</tspan><tspan x="1003.05" y="0">o the 11th </tspan><tspan class="cls-20" x="1151.02" y="0">c</tspan><tspan x="1165.61" y="0">e</tspan><tspan class="cls-15" x="1182.14" y="0">n</tspan><tspan x="1200.33" y="0">tu</tspan><tspan class="cls-16" x="1229.43" y="0">r</tspan><tspan x="1240.35" y="0">ies f</tspan><tspan class="cls-17" x="1294.31" y="0">r</tspan><tspan x="1304.77" y="0">om the end of </tspan><tspan class="cls-16" x="1505.38" y="0">R</tspan><tspan x="1523.26" y="0">oman </tspan><tspan x="0" y="39.6">B</tspan><tspan class="cls-16" x="17.89" y="39.6">r</tspan><tspan x="28.81" y="39.6">itain u</tspan><tspan class="cls-15" x="114.57" y="39.6">n</tspan><tspan x="132.76" y="39.6">til the No</tspan><tspan class="cls-16" x="258.78" y="39.6">r</tspan><tspan x="269.7" y="39.6">man </tspan><tspan class="cls-21" x="338.44" y="39.6">c</tspan><tspan x="353.03" y="39.6">onquest in 1066. </tspan><tspan class="cls-22" x="588.31" y="39.6">I</tspan><tspan x="596.73" y="39.6">t </tspan><tspan class="cls-20" x="614.65" y="39.6">c</tspan><tspan x="629.23" y="39.6">onsis</tspan><tspan class="cls-21" x="699.52" y="39.6">t</tspan><tspan x="710.25" y="39.6">ed of </tspan><tspan class="cls-15" x="787.13" y="39.6">v</tspan><tspan x="802.88" y="39.6">a</tspan><tspan class="cls-16" x="818.78" y="39.6">r</tspan><tspan x="829.7" y="39.6">ious </tspan><tspan class="cls-23" x="893.79" y="39.6">A</tspan><tspan x="913.89" y="39.6">ngl</tspan><tspan class="cls-12" x="958.43" y="39.6">o</tspan><tspan x="977.05" y="39.6">-</tspan><tspan class="cls-13" x="987.18" y="39.6">S</tspan><tspan x="1003.54" y="39.6">a</tspan><tspan class="cls-14" x="1019.45" y="39.6">x</tspan><tspan x="1034.24" y="39.6">on </tspan><tspan class="cls-24" x="1077.66" y="39.6">k</tspan><tspan x="1093.7" y="39.6">ingdoms u</tspan><tspan class="cls-15" x="1240.68" y="39.6">n</tspan><tspan x="1258.87" y="39.6">til 927 when it </tspan><tspan class="cls-15" x="1460.16" y="39.6">w</tspan><tspan x="1484.32" y="39.6">as uni</tspan><tspan class="cls-20" x="1564.51" y="39.6">t</tspan><tspan x="1575.23" y="39.6">ed as </tspan><tspan x="0" y="79.2">the </tspan><tspan class="cls-25" x="52.77" y="79.2">K</tspan><tspan x="70.98" y="79.2">ingdom of England </tspan><tspan class="cls-26" x="342.07" y="79.2">b</tspan><tspan x="360.62" y="79.2">y </tspan><tspan class="cls-27" x="383.16" y="79.2">K</tspan><tspan x="401.37" y="79.2">ing </tspan><tspan class="cls-11" x="452.85" y="79.2">Æ</tspan><tspan x="478.76" y="79.2">thelstan (</tspan><tspan class="cls-28" x="606.89" y="79.2">r</tspan><tspan x="615.94" y="79.2">. 927–939). </tspan><tspan class="cls-22" x="771.03" y="79.2">I</tspan><tspan x="779.45" y="79.2">t became pa</tspan><tspan class="cls-29" x="949.1" y="79.2">r</tspan><tspan x="960.68" y="79.2">t of the sho</tspan><tspan class="cls-30" x="1115.62" y="79.2">r</tspan><tspan class="cls-31" x="1127.2" y="79.2">t</tspan><tspan x="1137.96" y="79.2">-li</tspan><tspan class="cls-17" x="1163.6" y="79.2">v</tspan><tspan x="1179.14" y="79.2">ed No</tspan><tspan class="cls-29" x="1261.11" y="79.2">r</tspan><tspan x="1272.7" y="79.2">th </tspan><tspan class="cls-32" x="1308.93" y="79.2">S</tspan><tspan x="1325.39" y="79.2">ea Empi</tspan><tspan class="cls-33" x="1435.09" y="79.2">r</tspan><tspan x="1445.55" y="79.2">e of </tspan><tspan class="cls-11" x="1503.83" y="79.2">C</tspan><tspan x="1522.87" y="79.2">nut the </tspan><tspan x="0" y="118.8">G</tspan><tspan class="cls-18" x="21.32" y="118.8">r</tspan><tspan x="31.78" y="118.8">e</tspan><tspan class="cls-34" x="48.31" y="118.8">a</tspan><tspan class="cls-11" x="64.09" y="118.8">t</tspan><tspan x="74.91" y="118.8">, a personal union be</tspan><tspan class="cls-35" x="360.88" y="118.8">t</tspan><tspan class="cls-17" x="372.1" y="118.8">w</tspan><tspan x="396.06" y="118.8">een Englan</tspan><tspan class="cls-18" x="549.44" y="118.8">d</tspan><tspan x="567.72" y="118.8">, </tspan><tspan class="cls-16" x="581.55" y="118.8">D</tspan><tspan x="603.66" y="118.8">enma</tspan><tspan class="cls-16" x="681.93" y="118.8">r</tspan><tspan x="692.86" y="118.8">k and No</tspan><tspan class="cls-36" x="814.99" y="118.8">r</tspan><tspan class="cls-15" x="826.6" y="118.8">w</tspan><tspan class="cls-37" x="850.76" y="118.8">a</tspan><tspan x="866.4" y="118.8">y in the 11th </tspan><tspan class="cls-20" x="1044.83" y="118.8">c</tspan><tspan x="1059.42" y="118.8">e</tspan><tspan class="cls-15" x="1075.95" y="118.8">n</tspan><tspan x="1094.13" y="118.8">tu</tspan><tspan class="cls-38" x="1123.24" y="118.8">r</tspan><tspan class="cls-39" x="1134.85" y="118.8">y</tspan><tspan x="1149.11" y="118.8">.</tspan></text>
  <text class="cls-40" transform="translate(82.06 583.46)"><tspan class="cls-41">A</tspan><tspan x="24.97" y="0">ngl</tspan><tspan class="cls-42" x="80.32" y="0">o</tspan><tspan x="103.44" y="0">-</tspan><tspan class="cls-43" x="116.03" y="0">S</tspan><tspan x="136.36" y="0">a</tspan><tspan class="cls-44" x="156.13" y="0">x</tspan><tspan x="174.49" y="0">on England</tspan></text>
  <text class="cls-45" transform="translate(93.49 277.63)"><tspan class="cls-46">W</tspan><tspan x="33.64" y="0">ho </tspan><tspan class="cls-47" x="86.28" y="0">w</tspan><tspan class="cls-48" x="115.32" y="0">e</tspan><tspan class="cls-47" x="135.36" y="0">r</tspan><tspan x="148.04" y="0">e the </tspan><tspan class="cls-49" x="240.52" y="0">A</tspan><tspan x="264.88" y="0">ngl</tspan><tspan class="cls-50" x="318.88" y="0">o</tspan><tspan class="cls-51" x="341.44" y="0">-</tspan><tspan class="cls-52" x="353.71" y="0">S</tspan><tspan class="cls-51" x="373.55" y="0">a</tspan><tspan class="cls-53" x="392.83" y="0">x</tspan><tspan x="410.75" y="0">ons?</tspan></text>
  <text class="cls-45" transform="translate(685.2 207.83)"><tspan class="cls-46">W</tspan><tspan x="33.64" y="0">h</tspan><tspan class="cls-54" x="55.84" y="0">a</tspan><tspan x="74.96" y="0">t </tspan><tspan class="cls-47" x="96.68" y="0">w</tspan><tspan x="125.72" y="0">e</tspan><tspan class="cls-47" x="145.76" y="0">r</tspan><tspan x="158.44" y="0">e their </tspan><tspan class="cls-55" x="273.35" y="0">k</tspan><tspan x="292.79" y="0">ingdoms?</tspan></text>
  <text class="cls-45" transform="translate(1293.47 267.53)"><tspan class="cls-46">W</tspan><tspan x="33.64" y="0">he</tspan><tspan class="cls-47" x="75.88" y="0">r</tspan><tspan class="cls-48" x="88.56" y="0">e did </tspan><tspan class="cls-49" x="180.04" y="0">A</tspan><tspan class="cls-48" x="204.4" y="0">ngl</tspan><tspan class="cls-56" x="258.4" y="0">o</tspan><tspan x="280.96" y="0">-</tspan><tspan class="cls-57" x="293.24" y="0">S</tspan><tspan x="313.08" y="0">a</tspan><tspan class="cls-53" x="332.36" y="0">x</tspan><tspan x="350.28" y="0">ons </tspan><tspan x="121.82" y="48">o</tspan><tspan class="cls-58" x="143.78" y="48">r</tspan><tspan class="cls-51" x="157.02" y="48">i</tspan><tspan class="cls-59" x="166.38" y="48">g</tspan><tspan x="188.5" y="48">in</tspan><tspan class="cls-54" x="220.06" y="48">a</tspan><tspan class="cls-59" x="239.18" y="48">t</tspan><tspan class="cls-51" x="252.18" y="48">e?</tspan></text>
  <polygon class="cls-9" points="878.07 284 907.43 625 937.08 284 878.07 284"/>
  <line class="cls-60" x1="93.06" y1="609.09" x2="580.3" y2="609.09"/>
  <text class="cls-10" x="4.43" y="-24"><tspan class="cls-26" x="85.32" y="857.9">T</tspan><tspan x="101.49" y="857.9">he </tspan><tspan class="cls-11" x="143.33" y="857.9">A</tspan><tspan x="163.43" y="857.9">ngl</tspan><tspan class="cls-61" x="207.98" y="857.9">o</tspan><tspan x="226.59" y="857.9">-</tspan><tspan class="cls-13" x="236.72" y="857.9">S</tspan><tspan x="253.09" y="857.9">a</tspan><tspan class="cls-62" x="269" y="857.9">x</tspan><tspan x="283.78" y="857.9">ons </tspan><tspan class="cls-17" x="340.27" y="857.9">w</tspan><tspan x="364.23" y="857.9">e</tspan><tspan class="cls-18" x="380.76" y="857.9">r</tspan><tspan x="391.23" y="857.9">e the members of </tspan><tspan class="cls-63" x="640.01" y="857.9">G</tspan><tspan x="661.49" y="857.9">e</tspan><tspan class="cls-16" x="678.02" y="857.9">r</tspan><tspan x="688.95" y="857.9">mani</tspan><tspan class="cls-63" x="758.41" y="857.9">c</tspan><tspan x="773.36" y="857.9">-spea</tspan><tspan class="cls-64" x="847.77" y="857.9">k</tspan><tspan x="863.81" y="857.9">ing </tspan><tspan class="cls-21" x="915.29" y="857.9">g</tspan><tspan class="cls-17" x="933.54" y="857.9">r</tspan><tspan x="944" y="857.9">oups who mi</tspan><tspan class="cls-20" x="1122.1" y="857.9">g</tspan><tspan class="cls-31" x="1140.35" y="857.9">r</tspan><tspan class="cls-15" x="1150.98" y="857.9">a</tspan><tspan class="cls-20" x="1166.75" y="857.9">t</tspan><tspan x="1177.47" y="857.9">ed </tspan><tspan class="cls-20" x="1219.62" y="857.9">t</tspan><tspan x="1230.34" y="857.9">o the southe</tspan><tspan class="cls-16" x="1403.36" y="857.9">r</tspan><tspan x="1414.28" y="857.9">n half of the island of </tspan><tspan x="85.32" y="897.5">G</tspan><tspan class="cls-18" x="106.64" y="897.5">r</tspan><tspan x="117.1" y="897.5">e</tspan><tspan class="cls-34" x="133.63" y="897.5">a</tspan><tspan x="149.4" y="897.5">t B</tspan><tspan class="cls-65" x="185.21" y="897.5">r</tspan><tspan x="196.13" y="897.5">itain f</tspan><tspan class="cls-17" x="273.35" y="897.5">r</tspan><tspan x="283.81" y="897.5">om nea</tspan><tspan class="cls-16" x="387.2" y="897.5">r</tspan><tspan class="cls-26" x="398.12" y="897.5">b</tspan><tspan x="416.67" y="897.5">y no</tspan><tspan class="cls-66" x="475.64" y="897.5">r</tspan><tspan x="487.22" y="897.5">t</tspan><tspan class="cls-67" x="498.14" y="897.5">h</tspan><tspan class="cls-18" x="516.03" y="897.5">w</tspan><tspan x="539.99" y="897.5">es</tspan><tspan class="cls-21" x="569.59" y="897.5">t</tspan><tspan x="580.31" y="897.5">e</tspan><tspan class="cls-16" x="596.85" y="897.5">r</tspan><tspan x="607.77" y="897.5">n </tspan><tspan class="cls-26" x="633.08" y="897.5">E</tspan><tspan x="649.09" y="897.5">u</tspan><tspan class="cls-17" x="667.27" y="897.5">r</tspan><tspan x="677.73" y="897.5">op</tspan><tspan class="cls-68" x="714.62" y="897.5">e</tspan><tspan x="730.76" y="897.5">. </tspan><tspan class="cls-23" x="744.59" y="897.5">A</tspan><tspan x="764.68" y="897.5">ngl</tspan><tspan class="cls-12" x="809.23" y="897.5">o</tspan><tspan x="827.84" y="897.5">-</tspan><tspan class="cls-13" x="837.97" y="897.5">S</tspan><tspan x="854.34" y="897.5">a</tspan><tspan class="cls-14" x="870.25" y="897.5">x</tspan><tspan x="885.03" y="897.5">on his</tspan><tspan class="cls-21" x="967.56" y="897.5">t</tspan><tspan x="978.29" y="897.5">o</tspan><tspan class="cls-38" x="996.4" y="897.5">r</tspan><tspan x="1008.02" y="897.5">y thus be</tspan><tspan class="cls-20" x="1133.35" y="897.5">g</tspan><tspan x="1151.6" y="897.5">ins du</tspan><tspan class="cls-16" x="1234.5" y="897.5">r</tspan><tspan x="1245.42" y="897.5">ing the pe</tspan><tspan class="cls-69" x="1384.97" y="897.5">r</tspan><tspan x="1395.9" y="897.5">iod of su</tspan><tspan class="cls-70" x="1513.34" y="897.5">b</tspan><tspan x="1532.61" y="897.5">-</tspan><tspan class="cls-69" x="1542.74" y="897.5">R</tspan><tspan x="1560.63" y="897.5">oman B</tspan><tspan class="cls-16" x="1665.37" y="897.5">r</tspan><tspan x="1676.3" y="897.5">itain </tspan><tspan class="cls-67" x="85.32" y="937.1">f</tspan><tspan x="94.53" y="937.1">oll</tspan><tspan class="cls-26" x="128.22" y="937.1">o</tspan><tspan x="146.1" y="937.1">wing the end of </tspan><tspan class="cls-16" x="369.84" y="937.1">R</tspan><tspan x="387.73" y="937.1">oman </tspan><tspan class="cls-21" x="474.58" y="937.1">c</tspan><tspan x="489.17" y="937.1">o</tspan><tspan class="cls-15" x="507.28" y="937.1">n</tspan><tspan x="525.47" y="937.1">t</tspan><tspan class="cls-17" x="536.39" y="937.1">r</tspan><tspan x="546.85" y="937.1">o</tspan><tspan class="cls-18" x="564.97" y="937.1">l</tspan><tspan x="572.43" y="937.1">, and t</tspan><tspan class="cls-71" x="657" y="937.1">r</tspan><tspan x="667.63" y="937.1">a</tspan><tspan class="cls-20" x="683.54" y="937.1">c</tspan><tspan x="698.12" y="937.1">es the establishme</tspan><tspan class="cls-15" x="953.64" y="937.1">n</tspan><tspan class="cls-72" x="971.82" y="937.1">t of </tspan><tspan class="cls-11" x="1024.49" y="937.1">A</tspan><tspan x="1044.58" y="937.1">ngl</tspan><tspan class="cls-12" x="1089.13" y="937.1">o</tspan><tspan x="1107.75" y="937.1">-</tspan><tspan class="cls-13" x="1117.88" y="937.1">S</tspan><tspan x="1134.24" y="937.1">a</tspan><tspan class="cls-14" x="1150.15" y="937.1">x</tspan><tspan x="1164.93" y="937.1">on </tspan><tspan class="cls-73" x="1208.36" y="937.1">k</tspan><tspan x="1224.4" y="937.1">ingdoms in the 5th and 6th </tspan><tspan class="cls-19" x="1605.15" y="937.1">c</tspan><tspan x="1619.74" y="937.1">e</tspan><tspan class="cls-15" x="1636.27" y="937.1">n</tspan><tspan x="1654.45" y="937.1">tu</tspan><tspan class="cls-16" x="1683.56" y="937.1">r</tspan><tspan x="1694.48" y="937.1">ies </tspan><tspan x="85.32" y="976.7">(</tspan><tspan class="cls-21" x="94.69" y="976.7">c</tspan><tspan x="109.28" y="976.7">o</tspan><tspan class="cls-67" x="127.39" y="976.7">n</tspan><tspan class="cls-18" x="145.28" y="976.7">v</tspan><tspan x="160.82" y="976.7">e</tspan><tspan class="cls-34" x="177.36" y="976.7">n</tspan><tspan x="195.54" y="976.7">tionally ide</tspan><tspan class="cls-15" x="347.5" y="976.7">n</tspan><tspan x="365.68" y="976.7">tified as se</tspan><tspan class="cls-18" x="509.3" y="976.7">v</tspan><tspan x="524.84" y="976.7">en main </tspan><tspan class="cls-64" x="643.14" y="976.7">k</tspan><tspan x="659.18" y="976.7">ingdoms: No</tspan><tspan class="cls-66" x="834.64" y="976.7">r</tspan><tspan x="846.22" y="976.7">thumb</tspan><tspan class="cls-16" x="939.94" y="976.7">r</tspan><tspan x="950.86" y="976.7">ia, </tspan><tspan class="cls-32" x="988.32" y="976.7">M</tspan><tspan x="1015.05" y="976.7">e</tspan><tspan class="cls-33" x="1031.58" y="976.7">r</tspan><tspan x="1042.04" y="976.7">cia, East </tspan><tspan class="cls-74" x="1157.41" y="976.7">A</tspan><tspan x="1177.51" y="976.7">nglia, Ess</tspan><tspan class="cls-11" x="1301.88" y="976.7">e</tspan><tspan x="1318.31" y="976.7">x, Ke</tspan><tspan class="cls-15" x="1381.84" y="976.7">n</tspan><tspan class="cls-11" x="1400.02" y="976.7">t</tspan><tspan x="1410.85" y="976.7">, Suss</tspan><tspan class="cls-11" x="1485.26" y="976.7">e</tspan><tspan x="1501.69" y="976.7">x, and</tspan><tspan class="cls-75" x="1583.63" y="976.7"> </tspan><tspan class="cls-76" x="1589.44" y="976.7">W</tspan><tspan x="1616.27" y="976.7">ess</tspan><tspan class="cls-11" x="1658.94" y="976.7">e</tspan><tspan x="1675.37" y="976.7">x), </tspan><tspan x="85.32" y="1016.3">their Ch</tspan><tspan class="cls-16" x="194.05" y="1016.3">r</tspan><tspan x="204.98" y="1016.3">istianis</tspan><tspan class="cls-15" x="299.42" y="1016.3">a</tspan><tspan x="315.19" y="1016.3">tion du</tspan><tspan class="cls-16" x="414.06" y="1016.3">r</tspan><tspan x="424.98" y="1016.3">ing the 7th </tspan><tspan class="cls-21" x="582.39" y="1016.3">c</tspan><tspan x="596.98" y="1016.3">e</tspan><tspan class="cls-15" x="613.51" y="1016.3">n</tspan><tspan x="631.69" y="1016.3">tu</tspan><tspan class="cls-36" x="660.8" y="1016.3">r</tspan><tspan class="cls-77" x="672.41" y="1016.3">y</tspan><tspan x="686.67" y="1016.3">, the th</tspan><tspan class="cls-18" x="782.5" y="1016.3">r</tspan><tspan x="792.96" y="1016.3">e</tspan><tspan class="cls-34" x="809.49" y="1016.3">a</tspan><tspan x="825.27" y="1016.3">t of</tspan><tspan class="cls-75" x="870.94" y="1016.3"> </tspan><tspan class="cls-78" x="876.75" y="1016.3">V</tspan><tspan x="894.63" y="1016.3">i</tspan><tspan class="cls-64" x="902.35" y="1016.3">k</tspan><tspan x="918.39" y="1016.3">ing i</tspan><tspan class="cls-79" x="977.59" y="1016.3">n</tspan><tspan class="cls-15" x="995.48" y="1016.3">v</tspan><tspan x="1011.22" y="1016.3">asions and Danish settler</tspan><tspan class="cls-80" x="1353.1" y="1016.3">s</tspan><tspan x="1365.8" y="1016.3">, the </tspan><tspan class="cls-20" x="1432.4" y="1016.3">g</tspan><tspan class="cls-81" x="1450.64" y="1016.3">r</tspan><tspan x="1461.27" y="1016.3">adual unific</tspan><tspan class="cls-15" x="1620.92" y="1016.3">a</tspan><tspan x="1636.7" y="1016.3">tion of </tspan><tspan x="85.32" y="1055.9">England under the</tspan><tspan class="cls-82" x="341.13" y="1055.9"> </tspan><tspan class="cls-83" x="346.94" y="1055.9">W</tspan><tspan x="373.77" y="1055.9">ess</tspan><tspan class="cls-11" x="416.44" y="1055.9">e</tspan><tspan x="432.87" y="1055.9">x hegemo</tspan><tspan class="cls-67" x="570.61" y="1055.9">n</tspan><tspan x="588.5" y="1055.9">y du</tspan><tspan class="cls-16" x="647.83" y="1055.9">r</tspan><tspan x="658.75" y="1055.9">ing the 9th and 10th </tspan><tspan class="cls-21" x="946.08" y="1055.9">c</tspan><tspan x="960.67" y="1055.9">e</tspan><tspan class="cls-34" x="977.2" y="1055.9">n</tspan><tspan x="995.38" y="1055.9">tu</tspan><tspan class="cls-16" x="1024.49" y="1055.9">r</tspan><tspan x="1035.41" y="1055.9">ie</tspan><tspan class="cls-80" x="1059.67" y="1055.9">s</tspan><tspan x="1072.37" y="1055.9">, and ending with the No</tspan><tspan class="cls-16" x="1411.8" y="1055.9">r</tspan><tspan x="1422.73" y="1055.9">man </tspan><tspan class="cls-19" x="1491.47" y="1055.9">c</tspan><tspan x="1506.05" y="1055.9">onquest of En</tspan><tspan x="1696.07" y="1055.9">-</tspan><tspan x="85.32" y="1095.5">gland </tspan><tspan class="cls-26" x="171.38" y="1095.5">b</tspan><tspan x="189.93" y="1095.5">y</tspan><tspan class="cls-82" x="205.47" y="1095.5"> </tspan><tspan class="cls-78" x="211.28" y="1095.5">W</tspan><tspan x="238.67" y="1095.5">illiam the </tspan><tspan class="cls-80" x="372.88" y="1095.5">C</tspan><tspan x="391.65" y="1095.5">onque</tspan><tspan class="cls-17" x="481.38" y="1095.5">r</tspan><tspan x="491.84" y="1095.5">or in 1066.</tspan></text>
  <text class="cls-10" x="4.43" y="-24"><tspan class="cls-11" x="85.32" y="1165.59">A</tspan><tspan x="105.42" y="1165.59">ngl</tspan><tspan class="cls-12" x="149.97" y="1165.59">o</tspan><tspan x="168.58" y="1165.59">-</tspan><tspan class="cls-13" x="178.71" y="1165.59">S</tspan><tspan x="195.08" y="1165.59">a</tspan><tspan class="cls-14" x="210.98" y="1165.59">x</tspan><tspan x="225.77" y="1165.59">on ide</tspan><tspan class="cls-15" x="312.06" y="1165.59">n</tspan><tspan x="330.24" y="1165.59">ti</tspan><tspan class="cls-84" x="348.89" y="1165.59">t</tspan><tspan x="360.11" y="1165.59">y su</tspan><tspan class="cls-36" x="413.9" y="1165.59">r</tspan><tspan x="425.51" y="1165.59">vi</tspan><tspan class="cls-18" x="449.1" y="1165.59">v</tspan><tspan x="464.65" y="1165.59">ed be</tspan><tspan class="cls-17" x="542.1" y="1165.59">y</tspan><tspan x="557.31" y="1165.59">ond the No</tspan><tspan class="cls-65" x="711.95" y="1165.59">r</tspan><tspan x="722.87" y="1165.59">man </tspan><tspan class="cls-20" x="791.61" y="1165.59">c</tspan><tspan x="806.19" y="1165.59">onques</tspan><tspan class="cls-11" x="908.99" y="1165.59">t</tspan><tspan x="919.81" y="1165.59">, came </tspan><tspan class="cls-20" x="1015.38" y="1165.59">t</tspan><tspan x="1026.1" y="1165.59">o be </tspan><tspan class="cls-24" x="1093.52" y="1165.59">k</tspan><tspan x="1109.56" y="1165.59">n</tspan><tspan class="cls-26" x="1127.87" y="1165.59">o</tspan><tspan x="1145.76" y="1165.59">wn as English</tspan><tspan class="cls-85" x="1331.22" y="1165.59">r</tspan><tspan x="1342.83" y="1165.59">y under No</tspan><tspan class="cls-16" x="1494.63" y="1165.59">r</tspan><tspan x="1505.56" y="1165.59">man rul</tspan><tspan class="cls-68" x="1611.06" y="1165.59">e</tspan><tspan x="1627.2" y="1165.59">, and </tspan><tspan x="85.32" y="1205.19">th</tspan><tspan class="cls-18" x="114.56" y="1205.19">r</tspan><tspan x="125.02" y="1205.19">ough social and cultu</tspan><tspan class="cls-81" x="419.14" y="1205.19">r</tspan><tspan x="429.77" y="1205.19">al i</tspan><tspan class="cls-15" x="468.18" y="1205.19">n</tspan><tspan class="cls-21" x="486.36" y="1205.19">t</tspan><tspan x="497.09" y="1205.19">e</tspan><tspan class="cls-21" x="513.62" y="1205.19">g</tspan><tspan class="cls-81" x="531.87" y="1205.19">r</tspan><tspan class="cls-15" x="542.49" y="1205.19">a</tspan><tspan x="558.27" y="1205.19">tion with </tspan><tspan class="cls-80" x="688.58" y="1205.19">C</tspan><tspan x="707.36" y="1205.19">elt</tspan><tspan class="cls-86" x="742.6" y="1205.19">s</tspan><tspan x="755.31" y="1205.19">, Danes and No</tspan><tspan class="cls-16" x="961.59" y="1205.19">r</tspan><tspan x="972.51" y="1205.19">mans became the mode</tspan><tspan class="cls-16" x="1304.92" y="1205.19">r</tspan><tspan x="1315.84" y="1205.19">n English peopl</tspan><tspan class="cls-68" x="1528.03" y="1205.19">e</tspan><tspan x="1544.17" y="1205.19">.</tspan></text>
</svg>
