<svg id="Layer_1" data-name="Layer 1" xmlns="http://www.w3.org/2000/svg" viewBox="0 0 787.01 246.96"><defs><style>.cls-1{fill:#8dc63f;}.cls-2{fill:#d1d3d4;}.cls-3{font-size:30px;}.cls-12,.cls-18,.cls-3,.cls-7,.cls-8,.cls-9{fill:#231f20;font-family:MyriadPro-Regular, Myriad Pro;}.cls-4{fill:#39b54a;}.cls-5{fill:#f7941d;}.cls-6{fill:#f15a29;}.cls-7{font-size:33.74px;}.cls-8{font-size:28px;}.cls-9{font-size:25px;}.cls-10{letter-spacing:-0.01em;}.cls-11{letter-spacing:0.01em;}.cls-12{font-size:28.12px;}.cls-13{letter-spacing:-0.01em;}.cls-14{letter-spacing:0em;}.cls-15{letter-spacing:-0.01em;}.cls-16{letter-spacing:-0.01em;}.cls-17{letter-spacing:0em;}.cls-18{font-size:20px;}</style></defs><path class="cls-1" d="M550.67,287.77A123.49,123.49,0,1,0,672.18,142.23l.11,13.05A110.43,110.43,0,1,1,563.61,285.44Z" transform="translate(-8.66 -142.23)"/><path class="cls-2" d="M668.85,155.18A106.92,106.92,0,0,0,654,156.4C595.79,164.47,554.47,221,563,282.21L550,284.37c-9.49-68.44,37.07-131.94,102.18-141a135.85,135.85,0,0,1,16.63-1.18Z" transform="translate(-8.66 -142.23)"/><text class="cls-3" transform="translate(637.24 114.56)">71%</text><circle class="cls-2" cx="274.84" cy="123.48" r="95"/><circle class="cls-2" cx="455" cy="122.79" r="63.64"/><circle class="cls-2" cx="79.2" cy="129.02" r="79.2"/><circle class="cls-4" cx="274.84" cy="124.69" r="83.34"/><circle class="cls-5" cx="455" cy="122.79" r="53.6"/><circle class="cls-6" cx="79.2" cy="129.02" r="68.74"/><text class="cls-7" transform="translate(249.09 120.96)">80%</text><text class="cls-8" transform="translate(53.75 120.56)">65%</text><text class="cls-9" transform="translate(436.5 119.89)">68%</text><text class="cls-3" transform="translate(602.29 146.26)">c<tspan class="cls-10" x="13.44" y="0">r</tspan><tspan x="22.95" y="0">edibili</tspan><tspan class="cls-11" x="100.11" y="0">t</tspan><tspan x="110.31" y="0">y</tspan></text><text class="cls-12" transform="translate(223.36 149.99)"><tspan class="cls-13">r</tspan><tspan x="8.91" y="0">ele</tspan><tspan class="cls-14" x="43.72" y="0">v</tspan><tspan x="57.13" y="0">an</tspan><tspan class="cls-15" x="86.29" y="0">c</tspan><tspan x="98.72" y="0">e</tspan></text><text class="cls-8" transform="translate(25.53 147.42)"><tspan class="cls-16">g</tspan><tspan class="cls-17" x="15.48" y="0">r</tspan><tspan x="24.5" y="0">ammar</tspan></text><text class="cls-18" transform="translate(431.28 142.12)">author</text></svg>