<svg id="Layer_1" data-name="Layer 1" xmlns="http://www.w3.org/2000/svg" viewBox="0 0 497.37 401.08"><defs><style>.cls-1{fill:#39b54a;}.cls-2{fill:#d1d3d4;}.cls-3{font-size:30px;fill:#231f20;font-family:MyriadPro-Regular, Myriad Pro;}</style></defs><path class="cls-1" d="M214.3,206.66A123.49,123.49,0,1,0,335.82,61.12l.1,13.05A110.43,110.43,0,1,1,227.25,204.33Z" transform="translate(-212.44 3.91)"/><path class="cls-2" d="M332.48,74.07a106.93,106.93,0,0,0-14.82,1.23c-58.23,8.06-99.55,64.59-91.07,125.8l-12.92,2.17c-9.48-68.45,37.08-132,102.19-141a135.83,135.83,0,0,1,16.62-1.18Z" transform="translate(-212.44 3.91)"/><text class="cls-3" transform="translate(100.4 195.76)">71%</text><circle class="cls-2" cx="331.33" cy="84.47" r="84.47"/><circle class="cls-2" cx="286.08" cy="337.44" r="63.64"/><circle class="cls-2" cx="418.16" cy="238.85" r="79.2"/></svg>